M48
; DRILL file {KiCad 9.0.6} date 2025-12-23T15:44:43+0530
; FORMAT={-:-/ absolute / metric / decimal}
; #@! TF.CreationDate,2025-12-23T15:44:43+05:30
; #@! TF.GenerationSoftware,Kicad,Pcbnew,9.0.6
; #@! TF.FileFunction,Plated,1,2,PTH
FMAT,2
METRIC
; #@! TA.AperFunction,Plated,PTH,ViaDrill
T1C0.300
; #@! TA.AperFunction,Plated,PTH,ComponentDrill
T2C0.800
; #@! TA.AperFunction,Plated,PTH,ComponentDrill
T3C0.890
; #@! TA.AperFunction,Plated,PTH,ComponentDrill
T4C0.920
; #@! TA.AperFunction,Plated,PTH,ComponentDrill
T5C1.000
; #@! TA.AperFunction,Plated,PTH,ComponentDrill
T6C1.100
; #@! TA.AperFunction,Plated,PTH,ComponentDrill
T7C1.194
; #@! TA.AperFunction,Plated,PTH,ComponentDrill
T8C1.570
; #@! TA.AperFunction,Plated,PTH,ComponentDrill
T9C2.300
; #@! TA.AperFunction,Plated,PTH,ComponentDrill
T10C3.000
%
G90
G05
T1
X102.085Y-100.28
X102.855Y-117.24
X102.855Y-119.78
X102.855Y-122.32
X104.865Y-146.701
X104.865Y-149.24
X104.865Y-151.78
X104.865Y-154.32
X104.875Y-141.66
X104.875Y-144.201
X105.325Y-39.041
X105.325Y-41.581
X105.325Y-44.12
X105.395Y-117.24
X105.395Y-119.78
X105.395Y-122.32
X105.415Y-48.53
X106.627Y-100.862
X107.255Y-106.16
X107.285Y-104.02
X107.385Y-128.761
X107.385Y-131.3
X107.385Y-133.84
X107.385Y-136.38
X107.405Y-146.701
X107.405Y-149.24
X107.405Y-151.78
X107.405Y-154.32
X107.415Y-139.12
X107.415Y-141.66
X107.415Y-144.201
X107.805Y-48.691
X107.805Y-51.23
X107.865Y-39.041
X107.865Y-41.581
X107.865Y-44.12
X107.935Y-117.24
X107.935Y-119.78
X107.935Y-122.32
X109.795Y-106.16
X109.825Y-104.02
X109.925Y-128.761
X109.925Y-131.3
X109.925Y-133.84
X109.925Y-136.38
X109.945Y-146.701
X109.945Y-149.24
X109.945Y-151.78
X109.945Y-154.32
X109.955Y-139.12
X109.955Y-141.66
X109.955Y-144.201
X110.365Y-51.691
X110.365Y-54.23
X110.4Y-93.9
X110.405Y-39.041
X110.405Y-44.12
X110.415Y-41.61
X110.475Y-117.24
X110.475Y-119.78
X110.475Y-122.32
X111.71Y-91.865
X111.725Y-88.41
X111.734Y-74.951
X111.745Y-81.85
X111.747Y-77.679
X111.765Y-80.411
X111.765Y-85.891
X111.915Y-114.1
X112.015Y-64.71
X112.055Y-100.48
X112.295Y-110.29
X112.335Y-106.16
X112.365Y-104.02
X112.42Y-107.87
X112.435Y-53.31
X112.435Y-55.85
X112.465Y-128.761
X112.465Y-131.3
X112.465Y-133.84
X112.465Y-136.38
X112.485Y-146.701
X112.485Y-149.24
X112.485Y-151.78
X112.485Y-154.32
X112.495Y-139.12
X112.495Y-141.66
X112.495Y-144.201
X112.665Y-39.06
X112.665Y-41.6
X112.665Y-44.14
X113.015Y-117.24
X113.015Y-119.78
X113.015Y-122.32
X113.295Y-112.45
X114.325Y-55.09
X114.325Y-57.63
X114.68Y-106.75
X114.995Y-101.76
X115.005Y-128.761
X115.005Y-131.3
X115.005Y-133.84
X115.005Y-136.38
X115.025Y-146.701
X115.025Y-149.24
X115.025Y-151.78
X115.025Y-154.32
X115.035Y-139.12
X115.035Y-141.66
X115.035Y-144.201
X115.205Y-39.06
X115.205Y-41.6
X115.205Y-44.14
X115.555Y-117.24
X115.555Y-119.78
X115.555Y-122.32
X115.875Y-92.191
X116.373Y-103.894
X116.715Y-55.12
X116.715Y-57.66
X116.715Y-60.2
X116.97Y-105.768
X117.119Y-109.827
X117.125Y-92.29
X117.545Y-128.761
X117.545Y-131.3
X117.545Y-133.84
X117.545Y-136.38
X117.565Y-146.701
X117.565Y-149.24
X117.565Y-151.78
X117.565Y-154.32
X117.705Y-94.581
X117.745Y-39.06
X117.745Y-41.6
X117.745Y-44.14
X118.095Y-117.24
X118.095Y-119.78
X118.095Y-122.32
X118.214Y-103.914
X118.29Y-100.478
X118.64Y-89.498
X118.85Y-106.178
X118.965Y-83.73
X119.255Y-55.12
X119.255Y-57.66
X119.255Y-60.2
X119.305Y-62.441
X119.325Y-129.19
X119.975Y-83.73
X120.105Y-146.701
X120.105Y-149.24
X120.105Y-151.78
X120.105Y-154.32
X120.285Y-39.06
X120.285Y-41.6
X120.285Y-44.14
X120.502Y-106.74
X120.965Y-83.641
X121.205Y-84.73
X121.28Y-101.518
X121.745Y-96.28
X121.75Y-90.528
X121.765Y-62.41
X121.765Y-64.95
X121.795Y-55.12
X121.795Y-57.66
X121.795Y-60.2
X121.86Y-102.508
X121.93Y-83.568
X121.97Y-91.578
X122.99Y-104.71
X123.54Y-109.22
X123.59Y-96.89
X123.635Y-62.52
X123.655Y-65.32
X123.655Y-67.861
X123.655Y-70.4
X123.655Y-72.941
X123.755Y-57.85
X123.755Y-60.39
X123.835Y-95.861
X123.99Y-108.03
X124.28Y-109.38
X124.43Y-110.858
X124.545Y-76.24
X124.765Y-93.39
X125.138Y-114.01
X126.355Y-92.38
X126.479Y-81.438
X126.495Y-53.98
X126.52Y-120.758
X126.555Y-98.51
X126.69Y-133.608
X126.715Y-146.72
X126.975Y-73.09
X127.088Y-117.588
X127.605Y-90.04
X127.616Y-118.824
X127.86Y-117.218
X128.31Y-59.92
X128.315Y-98.76
X128.46Y-110.148
X128.645Y-108.12
X129.035Y-53.98
X129.09Y-92.748
X129.39Y-112.998
X129.465Y-147.31
X129.469Y-120.487
X129.49Y-83.57
X129.52Y-141.6
X129.76Y-93.578
X130.071Y-121.089
X130.17Y-68.298
X130.225Y-80.66
X130.355Y-108.31
X130.835Y-81.331
X130.905Y-109.09
X131.12Y-113.818
X131.175Y-117.068
X131.832Y-52.96
X132.205Y-101.79
X132.245Y-54.21
X132.265Y-93.03
X132.404Y-113.181
X132.52Y-120.058
X132.645Y-108.111
X132.865Y-111.81
X132.925Y-90.689
X133.015Y-115.068
X133.49Y-83.05
X133.695Y-70.8
X133.695Y-87.2
X133.73Y-133.418
X134.48Y-141.6
X134.565Y-122.29
X134.565Y-123.14
X134.625Y-101.79
X134.785Y-54.21
X134.795Y-87.8
X134.85Y-138.888
X135.055Y-81.45
X136.09Y-87.251
X136.275Y-108.07
X136.385Y-111.79
X136.565Y-97.471
X136.905Y-76.781
X137.264Y-87.8
X137.92Y-95.47
X138.135Y-101.78
X138.475Y-87.75
X138.855Y-118.721
X139.085Y-114.838
X139.125Y-113.331
X139.272Y-87.809
X139.32Y-136.768
X139.525Y-102.27
X139.825Y-103.501
X140.055Y-86.88
X141.625Y-72.221
X141.645Y-74.43
X141.645Y-76.971
X141.72Y-38.99
X141.755Y-116.51
X142.315Y-115.63
X142.469Y-131.66
X142.995Y-85.77
X143.235Y-91.001
X143.442Y-63.123
X143.575Y-112.01
X143.575Y-112.01
X143.575Y-114.55
X143.575Y-114.55
X143.575Y-117.09
X143.575Y-117.09
X143.575Y-119.63
X143.575Y-119.63
X143.585Y-121.76
X143.585Y-121.76
X143.585Y-124.3
X143.585Y-124.3
X143.585Y-126.84
X143.585Y-126.84
X143.605Y-109.611
X143.605Y-109.611
X143.625Y-129.331
X143.625Y-129.331
X143.645Y-99.458
X144.145Y-69.59
X144.165Y-72.221
X144.185Y-74.43
X144.185Y-76.971
X144.24Y-86.97
X144.26Y-38.99
X146.115Y-112.01
X146.115Y-114.55
X146.115Y-117.09
X146.115Y-119.63
X146.115Y-136.761
X146.115Y-139.3
X146.125Y-121.76
X146.125Y-124.3
X146.125Y-126.84
X146.125Y-131.72
X146.125Y-134.261
X146.145Y-109.611
X146.165Y-129.331
X146.685Y-69.59
X146.705Y-72.221
X146.725Y-74.43
X146.725Y-76.971
X146.745Y-66.861
X146.8Y-38.99
X147.49Y-86.86
X148.635Y-141.66
X148.635Y-144.201
X148.655Y-136.761
X148.655Y-139.3
X148.665Y-131.72
X148.665Y-134.261
X148.765Y-84.79
X148.765Y-87.331
X148.795Y-90.8
X148.795Y-93.34
X148.795Y-95.88
X149.225Y-69.59
X149.245Y-72.221
X149.265Y-74.43
X149.265Y-76.971
X149.285Y-66.861
X149.34Y-38.99
X151.175Y-141.66
X151.175Y-144.201
X151.195Y-136.761
X151.195Y-139.3
X151.205Y-131.72
X151.205Y-134.261
X151.305Y-84.79
X151.305Y-87.331
X151.335Y-90.8
X151.335Y-93.34
X151.335Y-95.88
X151.755Y-98.67
X151.765Y-69.59
X151.785Y-72.221
X151.805Y-74.43
X151.805Y-76.971
X151.825Y-66.861
X151.88Y-38.99
X153.685Y-136.87
X153.685Y-139.41
X153.695Y-134.37
X153.715Y-141.66
X153.715Y-144.201
X153.815Y-112.1
X153.815Y-112.1
X153.815Y-114.64
X153.815Y-114.64
X153.815Y-117.18
X153.815Y-117.18
X153.815Y-119.721
X153.815Y-119.721
X153.845Y-84.79
X153.845Y-87.331
X153.875Y-90.8
X153.875Y-93.34
X153.875Y-95.88
X153.945Y-98.57
X154.305Y-69.59
X154.325Y-72.221
X154.345Y-74.43
X154.345Y-76.971
X154.365Y-66.861
X155.482Y-48.28
X156.355Y-112.1
X156.355Y-114.64
X156.355Y-117.18
X156.355Y-119.721
X156.415Y-93.34
X156.415Y-95.88
X156.485Y-98.57
X156.775Y-141.68
X156.775Y-144.22
X156.775Y-149.43
X156.775Y-151.97
X156.785Y-139.18
X156.785Y-146.93
X156.845Y-69.59
X156.845Y-74.35
X156.845Y-76.891
X156.865Y-72.221
X156.905Y-66.861
T2
X146.855Y-42.34
X146.855Y-44.34
X148.855Y-42.34
X148.855Y-44.34
X150.855Y-42.34
X150.855Y-44.34
X152.855Y-42.34
X152.855Y-44.34
X154.855Y-42.34
X154.855Y-44.34
T3
X124.188Y-144.481
X126.478Y-144.481
X127.488Y-149.3
X128.508Y-151.081
X129.518Y-149.3
X130.538Y-151.081
X131.548Y-149.3
X132.568Y-151.081
X133.578Y-149.3
X134.598Y-151.081
X135.618Y-144.481
X137.908Y-144.481
T4
X129.799Y-46.425
X129.799Y-48.425
X132.299Y-46.425
X132.299Y-48.425
T5
X144.232Y-49.971
X144.232Y-52.511
X144.232Y-55.05
T6
X147.615Y-146.21
X147.615Y-150.71
X154.115Y-146.21
X154.115Y-150.71
T7
X99.653Y-56.6
X99.653Y-59.14
X99.653Y-61.68
X99.653Y-64.22
X99.653Y-66.76
X99.653Y-80.147
X99.653Y-82.687
X99.653Y-85.227
X99.653Y-87.767
X99.653Y-90.307
X99.653Y-103.693
X99.653Y-106.233
X99.653Y-108.773
X99.653Y-111.313
X99.653Y-113.853
X99.653Y-127.24
X99.653Y-129.78
X99.653Y-132.32
X99.653Y-134.86
X99.653Y-137.4
X102.193Y-56.6
X102.193Y-59.14
X102.193Y-61.68
X102.193Y-64.22
X102.193Y-66.76
X102.193Y-80.147
X102.193Y-82.687
X102.193Y-85.227
X102.193Y-87.767
X102.193Y-90.307
X102.193Y-103.693
X102.193Y-106.233
X102.193Y-108.773
X102.193Y-111.313
X102.193Y-113.853
X102.193Y-127.24
X102.193Y-129.78
X102.193Y-132.32
X102.193Y-134.86
X102.193Y-137.4
X159.84Y-56.6
X159.84Y-59.14
X159.84Y-61.68
X159.84Y-64.22
X159.84Y-66.76
X159.84Y-80.147
X159.84Y-82.687
X159.84Y-85.227
X159.84Y-87.767
X159.84Y-90.307
X159.84Y-103.693
X159.84Y-106.233
X159.84Y-108.773
X159.84Y-111.313
X159.84Y-113.853
X159.84Y-127.24
X159.84Y-129.78
X159.84Y-132.32
X159.84Y-134.86
X159.84Y-137.4
X162.38Y-56.6
X162.38Y-59.14
X162.38Y-61.68
X162.38Y-64.22
X162.38Y-66.76
X162.38Y-80.147
X162.38Y-82.687
X162.38Y-85.227
X162.38Y-87.767
X162.38Y-90.307
X162.38Y-103.693
X162.38Y-106.233
X162.38Y-108.773
X162.38Y-111.313
X162.38Y-113.853
X162.38Y-127.24
X162.38Y-129.78
X162.38Y-132.32
X162.38Y-134.86
X162.38Y-137.4
T8
X122.918Y-150.19
X139.178Y-150.19
T9
X125.029Y-43.715
X137.069Y-43.715
T10
X99.985Y-43.528
X99.985Y-150.528
X161.985Y-43.528
X161.985Y-150.528
M30
