%TF.GenerationSoftware,KiCad,Pcbnew,9.0.6*%
%TF.CreationDate,2025-12-23T15:44:35+05:30*%
%TF.ProjectId,SimsBharath_DAQ,53696d73-4268-4617-9261-74685f444151,rev?*%
%TF.SameCoordinates,Original*%
%TF.FileFunction,Legend,Bot*%
%TF.FilePolarity,Positive*%
%FSLAX46Y46*%
G04 Gerber Fmt 4.6, Leading zero omitted, Abs format (unit mm)*
G04 Created by KiCad (PCBNEW 9.0.6) date 2025-12-23 15:44:35*
%MOMM*%
%LPD*%
G01*
G04 APERTURE LIST*
G04 Aperture macros list*
%AMRoundRect*
0 Rectangle with rounded corners*
0 $1 Rounding radius*
0 $2 $3 $4 $5 $6 $7 $8 $9 X,Y pos of 4 corners*
0 Add a 4 corners polygon primitive as box body*
4,1,4,$2,$3,$4,$5,$6,$7,$8,$9,$2,$3,0*
0 Add four circle primitives for the rounded corners*
1,1,$1+$1,$2,$3*
1,1,$1+$1,$4,$5*
1,1,$1+$1,$6,$7*
1,1,$1+$1,$8,$9*
0 Add four rect primitives between the rounded corners*
20,1,$1+$1,$2,$3,$4,$5,0*
20,1,$1+$1,$4,$5,$6,$7,0*
20,1,$1+$1,$6,$7,$8,$9,0*
20,1,$1+$1,$8,$9,$2,$3,0*%
G04 Aperture macros list end*
%ADD10C,0.100000*%
%ADD11C,0.125000*%
%ADD12C,0.508000*%
%ADD13C,0.000000*%
%ADD14C,0.200000*%
%ADD15R,1.000000X1.000000*%
%ADD16R,1.701800X1.701800*%
%ADD17C,1.800000*%
%ADD18C,3.500000*%
%ADD19C,5.000000*%
%ADD20R,1.700000X1.700000*%
%ADD21C,1.700000*%
%ADD22C,2.000000*%
%ADD23R,1.431000X1.431000*%
%ADD24C,1.431000*%
%ADD25C,3.450000*%
%ADD26C,3.250000*%
%ADD27R,1.446000X1.446000*%
%ADD28C,1.446000*%
%ADD29C,2.355000*%
%ADD30R,1.350000X1.350000*%
%ADD31C,1.350000*%
%ADD32R,0.650000X0.700000*%
%ADD33R,0.700000X0.650000*%
%ADD34R,1.000000X1.800000*%
%ADD35R,0.750000X0.700000*%
%ADD36R,0.850000X0.300000*%
%ADD37R,0.300000X0.850000*%
%ADD38R,2.600000X2.600000*%
%ADD39R,1.475000X0.300000*%
%ADD40R,0.300000X1.475000*%
%ADD41C,1.500000*%
%ADD42R,1.200000X1.220000*%
%ADD43R,1.750000X0.950000*%
%ADD44R,1.750000X3.250000*%
%ADD45RoundRect,0.237500X-0.287500X-0.237500X0.287500X-0.237500X0.287500X0.237500X-0.287500X0.237500X0*%
%ADD46R,0.800000X1.645000*%
%TA.AperFunction,Profile*%
%ADD47C,0.050000*%
%TD*%
G04 APERTURE END LIST*
D10*
X127021428Y-77436109D02*
X127188094Y-77198014D01*
X127307142Y-77436109D02*
X127307142Y-76936109D01*
X127307142Y-76936109D02*
X127116666Y-76936109D01*
X127116666Y-76936109D02*
X127069047Y-76959919D01*
X127069047Y-76959919D02*
X127045237Y-76983728D01*
X127045237Y-76983728D02*
X127021428Y-77031347D01*
X127021428Y-77031347D02*
X127021428Y-77102776D01*
X127021428Y-77102776D02*
X127045237Y-77150395D01*
X127045237Y-77150395D02*
X127069047Y-77174204D01*
X127069047Y-77174204D02*
X127116666Y-77198014D01*
X127116666Y-77198014D02*
X127307142Y-77198014D01*
X126592856Y-77102776D02*
X126592856Y-77436109D01*
X126711904Y-76912300D02*
X126830951Y-77269442D01*
X126830951Y-77269442D02*
X126521428Y-77269442D01*
X126235714Y-76936109D02*
X126188095Y-76936109D01*
X126188095Y-76936109D02*
X126140476Y-76959919D01*
X126140476Y-76959919D02*
X126116666Y-76983728D01*
X126116666Y-76983728D02*
X126092857Y-77031347D01*
X126092857Y-77031347D02*
X126069047Y-77126585D01*
X126069047Y-77126585D02*
X126069047Y-77245633D01*
X126069047Y-77245633D02*
X126092857Y-77340871D01*
X126092857Y-77340871D02*
X126116666Y-77388490D01*
X126116666Y-77388490D02*
X126140476Y-77412300D01*
X126140476Y-77412300D02*
X126188095Y-77436109D01*
X126188095Y-77436109D02*
X126235714Y-77436109D01*
X126235714Y-77436109D02*
X126283333Y-77412300D01*
X126283333Y-77412300D02*
X126307142Y-77388490D01*
X126307142Y-77388490D02*
X126330952Y-77340871D01*
X126330952Y-77340871D02*
X126354761Y-77245633D01*
X126354761Y-77245633D02*
X126354761Y-77126585D01*
X126354761Y-77126585D02*
X126330952Y-77031347D01*
X126330952Y-77031347D02*
X126307142Y-76983728D01*
X126307142Y-76983728D02*
X126283333Y-76959919D01*
X126283333Y-76959919D02*
X126235714Y-76936109D01*
X128624761Y-113176490D02*
X128648570Y-113200300D01*
X128648570Y-113200300D02*
X128719999Y-113224109D01*
X128719999Y-113224109D02*
X128767618Y-113224109D01*
X128767618Y-113224109D02*
X128839046Y-113200300D01*
X128839046Y-113200300D02*
X128886665Y-113152680D01*
X128886665Y-113152680D02*
X128910475Y-113105061D01*
X128910475Y-113105061D02*
X128934284Y-113009823D01*
X128934284Y-113009823D02*
X128934284Y-112938395D01*
X128934284Y-112938395D02*
X128910475Y-112843157D01*
X128910475Y-112843157D02*
X128886665Y-112795538D01*
X128886665Y-112795538D02*
X128839046Y-112747919D01*
X128839046Y-112747919D02*
X128767618Y-112724109D01*
X128767618Y-112724109D02*
X128719999Y-112724109D01*
X128719999Y-112724109D02*
X128648570Y-112747919D01*
X128648570Y-112747919D02*
X128624761Y-112771728D01*
X128434284Y-112771728D02*
X128410475Y-112747919D01*
X128410475Y-112747919D02*
X128362856Y-112724109D01*
X128362856Y-112724109D02*
X128243808Y-112724109D01*
X128243808Y-112724109D02*
X128196189Y-112747919D01*
X128196189Y-112747919D02*
X128172380Y-112771728D01*
X128172380Y-112771728D02*
X128148570Y-112819347D01*
X128148570Y-112819347D02*
X128148570Y-112866966D01*
X128148570Y-112866966D02*
X128172380Y-112938395D01*
X128172380Y-112938395D02*
X128458094Y-113224109D01*
X128458094Y-113224109D02*
X128148570Y-113224109D01*
X127910475Y-113224109D02*
X127815237Y-113224109D01*
X127815237Y-113224109D02*
X127767618Y-113200300D01*
X127767618Y-113200300D02*
X127743809Y-113176490D01*
X127743809Y-113176490D02*
X127696190Y-113105061D01*
X127696190Y-113105061D02*
X127672380Y-113009823D01*
X127672380Y-113009823D02*
X127672380Y-112819347D01*
X127672380Y-112819347D02*
X127696190Y-112771728D01*
X127696190Y-112771728D02*
X127719999Y-112747919D01*
X127719999Y-112747919D02*
X127767618Y-112724109D01*
X127767618Y-112724109D02*
X127862856Y-112724109D01*
X127862856Y-112724109D02*
X127910475Y-112747919D01*
X127910475Y-112747919D02*
X127934285Y-112771728D01*
X127934285Y-112771728D02*
X127958094Y-112819347D01*
X127958094Y-112819347D02*
X127958094Y-112938395D01*
X127958094Y-112938395D02*
X127934285Y-112986014D01*
X127934285Y-112986014D02*
X127910475Y-113009823D01*
X127910475Y-113009823D02*
X127862856Y-113033633D01*
X127862856Y-113033633D02*
X127767618Y-113033633D01*
X127767618Y-113033633D02*
X127719999Y-113009823D01*
X127719999Y-113009823D02*
X127696190Y-112986014D01*
X127696190Y-112986014D02*
X127672380Y-112938395D01*
X126511428Y-98686490D02*
X126535237Y-98710300D01*
X126535237Y-98710300D02*
X126606666Y-98734109D01*
X126606666Y-98734109D02*
X126654285Y-98734109D01*
X126654285Y-98734109D02*
X126725713Y-98710300D01*
X126725713Y-98710300D02*
X126773332Y-98662680D01*
X126773332Y-98662680D02*
X126797142Y-98615061D01*
X126797142Y-98615061D02*
X126820951Y-98519823D01*
X126820951Y-98519823D02*
X126820951Y-98448395D01*
X126820951Y-98448395D02*
X126797142Y-98353157D01*
X126797142Y-98353157D02*
X126773332Y-98305538D01*
X126773332Y-98305538D02*
X126725713Y-98257919D01*
X126725713Y-98257919D02*
X126654285Y-98234109D01*
X126654285Y-98234109D02*
X126606666Y-98234109D01*
X126606666Y-98234109D02*
X126535237Y-98257919D01*
X126535237Y-98257919D02*
X126511428Y-98281728D01*
X126035237Y-98734109D02*
X126320951Y-98734109D01*
X126178094Y-98734109D02*
X126178094Y-98234109D01*
X126178094Y-98234109D02*
X126225713Y-98305538D01*
X126225713Y-98305538D02*
X126273332Y-98353157D01*
X126273332Y-98353157D02*
X126320951Y-98376966D01*
X125582857Y-98234109D02*
X125820952Y-98234109D01*
X125820952Y-98234109D02*
X125844761Y-98472204D01*
X125844761Y-98472204D02*
X125820952Y-98448395D01*
X125820952Y-98448395D02*
X125773333Y-98424585D01*
X125773333Y-98424585D02*
X125654285Y-98424585D01*
X125654285Y-98424585D02*
X125606666Y-98448395D01*
X125606666Y-98448395D02*
X125582857Y-98472204D01*
X125582857Y-98472204D02*
X125559047Y-98519823D01*
X125559047Y-98519823D02*
X125559047Y-98638871D01*
X125559047Y-98638871D02*
X125582857Y-98686490D01*
X125582857Y-98686490D02*
X125606666Y-98710300D01*
X125606666Y-98710300D02*
X125654285Y-98734109D01*
X125654285Y-98734109D02*
X125773333Y-98734109D01*
X125773333Y-98734109D02*
X125820952Y-98710300D01*
X125820952Y-98710300D02*
X125844761Y-98686490D01*
X122511428Y-98686490D02*
X122535237Y-98710300D01*
X122535237Y-98710300D02*
X122606666Y-98734109D01*
X122606666Y-98734109D02*
X122654285Y-98734109D01*
X122654285Y-98734109D02*
X122725713Y-98710300D01*
X122725713Y-98710300D02*
X122773332Y-98662680D01*
X122773332Y-98662680D02*
X122797142Y-98615061D01*
X122797142Y-98615061D02*
X122820951Y-98519823D01*
X122820951Y-98519823D02*
X122820951Y-98448395D01*
X122820951Y-98448395D02*
X122797142Y-98353157D01*
X122797142Y-98353157D02*
X122773332Y-98305538D01*
X122773332Y-98305538D02*
X122725713Y-98257919D01*
X122725713Y-98257919D02*
X122654285Y-98234109D01*
X122654285Y-98234109D02*
X122606666Y-98234109D01*
X122606666Y-98234109D02*
X122535237Y-98257919D01*
X122535237Y-98257919D02*
X122511428Y-98281728D01*
X122035237Y-98734109D02*
X122320951Y-98734109D01*
X122178094Y-98734109D02*
X122178094Y-98234109D01*
X122178094Y-98234109D02*
X122225713Y-98305538D01*
X122225713Y-98305538D02*
X122273332Y-98353157D01*
X122273332Y-98353157D02*
X122320951Y-98376966D01*
X121749523Y-98448395D02*
X121797142Y-98424585D01*
X121797142Y-98424585D02*
X121820952Y-98400776D01*
X121820952Y-98400776D02*
X121844761Y-98353157D01*
X121844761Y-98353157D02*
X121844761Y-98329347D01*
X121844761Y-98329347D02*
X121820952Y-98281728D01*
X121820952Y-98281728D02*
X121797142Y-98257919D01*
X121797142Y-98257919D02*
X121749523Y-98234109D01*
X121749523Y-98234109D02*
X121654285Y-98234109D01*
X121654285Y-98234109D02*
X121606666Y-98257919D01*
X121606666Y-98257919D02*
X121582857Y-98281728D01*
X121582857Y-98281728D02*
X121559047Y-98329347D01*
X121559047Y-98329347D02*
X121559047Y-98353157D01*
X121559047Y-98353157D02*
X121582857Y-98400776D01*
X121582857Y-98400776D02*
X121606666Y-98424585D01*
X121606666Y-98424585D02*
X121654285Y-98448395D01*
X121654285Y-98448395D02*
X121749523Y-98448395D01*
X121749523Y-98448395D02*
X121797142Y-98472204D01*
X121797142Y-98472204D02*
X121820952Y-98496014D01*
X121820952Y-98496014D02*
X121844761Y-98543633D01*
X121844761Y-98543633D02*
X121844761Y-98638871D01*
X121844761Y-98638871D02*
X121820952Y-98686490D01*
X121820952Y-98686490D02*
X121797142Y-98710300D01*
X121797142Y-98710300D02*
X121749523Y-98734109D01*
X121749523Y-98734109D02*
X121654285Y-98734109D01*
X121654285Y-98734109D02*
X121606666Y-98710300D01*
X121606666Y-98710300D02*
X121582857Y-98686490D01*
X121582857Y-98686490D02*
X121559047Y-98638871D01*
X121559047Y-98638871D02*
X121559047Y-98543633D01*
X121559047Y-98543633D02*
X121582857Y-98496014D01*
X121582857Y-98496014D02*
X121606666Y-98472204D01*
X121606666Y-98472204D02*
X121654285Y-98448395D01*
X123003333Y-103804109D02*
X123169999Y-103566014D01*
X123289047Y-103804109D02*
X123289047Y-103304109D01*
X123289047Y-103304109D02*
X123098571Y-103304109D01*
X123098571Y-103304109D02*
X123050952Y-103327919D01*
X123050952Y-103327919D02*
X123027142Y-103351728D01*
X123027142Y-103351728D02*
X123003333Y-103399347D01*
X123003333Y-103399347D02*
X123003333Y-103470776D01*
X123003333Y-103470776D02*
X123027142Y-103518395D01*
X123027142Y-103518395D02*
X123050952Y-103542204D01*
X123050952Y-103542204D02*
X123098571Y-103566014D01*
X123098571Y-103566014D02*
X123289047Y-103566014D01*
X122527142Y-103804109D02*
X122812856Y-103804109D01*
X122669999Y-103804109D02*
X122669999Y-103304109D01*
X122669999Y-103304109D02*
X122717618Y-103375538D01*
X122717618Y-103375538D02*
X122765237Y-103423157D01*
X122765237Y-103423157D02*
X122812856Y-103446966D01*
X115963333Y-144744109D02*
X116129999Y-144506014D01*
X116249047Y-144744109D02*
X116249047Y-144244109D01*
X116249047Y-144244109D02*
X116058571Y-144244109D01*
X116058571Y-144244109D02*
X116010952Y-144267919D01*
X116010952Y-144267919D02*
X115987142Y-144291728D01*
X115987142Y-144291728D02*
X115963333Y-144339347D01*
X115963333Y-144339347D02*
X115963333Y-144410776D01*
X115963333Y-144410776D02*
X115987142Y-144458395D01*
X115987142Y-144458395D02*
X116010952Y-144482204D01*
X116010952Y-144482204D02*
X116058571Y-144506014D01*
X116058571Y-144506014D02*
X116249047Y-144506014D01*
X115534761Y-144244109D02*
X115629999Y-144244109D01*
X115629999Y-144244109D02*
X115677618Y-144267919D01*
X115677618Y-144267919D02*
X115701428Y-144291728D01*
X115701428Y-144291728D02*
X115749047Y-144363157D01*
X115749047Y-144363157D02*
X115772856Y-144458395D01*
X115772856Y-144458395D02*
X115772856Y-144648871D01*
X115772856Y-144648871D02*
X115749047Y-144696490D01*
X115749047Y-144696490D02*
X115725237Y-144720300D01*
X115725237Y-144720300D02*
X115677618Y-144744109D01*
X115677618Y-144744109D02*
X115582380Y-144744109D01*
X115582380Y-144744109D02*
X115534761Y-144720300D01*
X115534761Y-144720300D02*
X115510952Y-144696490D01*
X115510952Y-144696490D02*
X115487142Y-144648871D01*
X115487142Y-144648871D02*
X115487142Y-144529823D01*
X115487142Y-144529823D02*
X115510952Y-144482204D01*
X115510952Y-144482204D02*
X115534761Y-144458395D01*
X115534761Y-144458395D02*
X115582380Y-144434585D01*
X115582380Y-144434585D02*
X115677618Y-144434585D01*
X115677618Y-144434585D02*
X115725237Y-144458395D01*
X115725237Y-144458395D02*
X115749047Y-144482204D01*
X115749047Y-144482204D02*
X115772856Y-144529823D01*
D11*
X124511428Y-98685190D02*
X124535237Y-98709000D01*
X124535237Y-98709000D02*
X124606666Y-98732809D01*
X124606666Y-98732809D02*
X124654285Y-98732809D01*
X124654285Y-98732809D02*
X124725713Y-98709000D01*
X124725713Y-98709000D02*
X124773332Y-98661380D01*
X124773332Y-98661380D02*
X124797142Y-98613761D01*
X124797142Y-98613761D02*
X124820951Y-98518523D01*
X124820951Y-98518523D02*
X124820951Y-98447095D01*
X124820951Y-98447095D02*
X124797142Y-98351857D01*
X124797142Y-98351857D02*
X124773332Y-98304238D01*
X124773332Y-98304238D02*
X124725713Y-98256619D01*
X124725713Y-98256619D02*
X124654285Y-98232809D01*
X124654285Y-98232809D02*
X124606666Y-98232809D01*
X124606666Y-98232809D02*
X124535237Y-98256619D01*
X124535237Y-98256619D02*
X124511428Y-98280428D01*
X124035237Y-98732809D02*
X124320951Y-98732809D01*
X124178094Y-98732809D02*
X124178094Y-98232809D01*
X124178094Y-98232809D02*
X124225713Y-98304238D01*
X124225713Y-98304238D02*
X124273332Y-98351857D01*
X124273332Y-98351857D02*
X124320951Y-98375666D01*
X123606666Y-98232809D02*
X123701904Y-98232809D01*
X123701904Y-98232809D02*
X123749523Y-98256619D01*
X123749523Y-98256619D02*
X123773333Y-98280428D01*
X123773333Y-98280428D02*
X123820952Y-98351857D01*
X123820952Y-98351857D02*
X123844761Y-98447095D01*
X123844761Y-98447095D02*
X123844761Y-98637571D01*
X123844761Y-98637571D02*
X123820952Y-98685190D01*
X123820952Y-98685190D02*
X123797142Y-98709000D01*
X123797142Y-98709000D02*
X123749523Y-98732809D01*
X123749523Y-98732809D02*
X123654285Y-98732809D01*
X123654285Y-98732809D02*
X123606666Y-98709000D01*
X123606666Y-98709000D02*
X123582857Y-98685190D01*
X123582857Y-98685190D02*
X123559047Y-98637571D01*
X123559047Y-98637571D02*
X123559047Y-98518523D01*
X123559047Y-98518523D02*
X123582857Y-98470904D01*
X123582857Y-98470904D02*
X123606666Y-98447095D01*
X123606666Y-98447095D02*
X123654285Y-98423285D01*
X123654285Y-98423285D02*
X123749523Y-98423285D01*
X123749523Y-98423285D02*
X123797142Y-98447095D01*
X123797142Y-98447095D02*
X123820952Y-98470904D01*
X123820952Y-98470904D02*
X123844761Y-98518523D01*
D10*
X107442293Y-81839252D02*
X107608959Y-81601157D01*
X107728007Y-81839252D02*
X107728007Y-81339252D01*
X107728007Y-81339252D02*
X107537531Y-81339252D01*
X107537531Y-81339252D02*
X107489912Y-81363062D01*
X107489912Y-81363062D02*
X107466102Y-81386871D01*
X107466102Y-81386871D02*
X107442293Y-81434490D01*
X107442293Y-81434490D02*
X107442293Y-81505919D01*
X107442293Y-81505919D02*
X107466102Y-81553538D01*
X107466102Y-81553538D02*
X107489912Y-81577347D01*
X107489912Y-81577347D02*
X107537531Y-81601157D01*
X107537531Y-81601157D02*
X107728007Y-81601157D01*
X107251816Y-81386871D02*
X107228007Y-81363062D01*
X107228007Y-81363062D02*
X107180388Y-81339252D01*
X107180388Y-81339252D02*
X107061340Y-81339252D01*
X107061340Y-81339252D02*
X107013721Y-81363062D01*
X107013721Y-81363062D02*
X106989912Y-81386871D01*
X106989912Y-81386871D02*
X106966102Y-81434490D01*
X106966102Y-81434490D02*
X106966102Y-81482109D01*
X106966102Y-81482109D02*
X106989912Y-81553538D01*
X106989912Y-81553538D02*
X107275626Y-81839252D01*
X107275626Y-81839252D02*
X106966102Y-81839252D01*
X106656579Y-81339252D02*
X106608960Y-81339252D01*
X106608960Y-81339252D02*
X106561341Y-81363062D01*
X106561341Y-81363062D02*
X106537531Y-81386871D01*
X106537531Y-81386871D02*
X106513722Y-81434490D01*
X106513722Y-81434490D02*
X106489912Y-81529728D01*
X106489912Y-81529728D02*
X106489912Y-81648776D01*
X106489912Y-81648776D02*
X106513722Y-81744014D01*
X106513722Y-81744014D02*
X106537531Y-81791633D01*
X106537531Y-81791633D02*
X106561341Y-81815443D01*
X106561341Y-81815443D02*
X106608960Y-81839252D01*
X106608960Y-81839252D02*
X106656579Y-81839252D01*
X106656579Y-81839252D02*
X106704198Y-81815443D01*
X106704198Y-81815443D02*
X106728007Y-81791633D01*
X106728007Y-81791633D02*
X106751817Y-81744014D01*
X106751817Y-81744014D02*
X106775626Y-81648776D01*
X106775626Y-81648776D02*
X106775626Y-81529728D01*
X106775626Y-81529728D02*
X106751817Y-81434490D01*
X106751817Y-81434490D02*
X106728007Y-81386871D01*
X106728007Y-81386871D02*
X106704198Y-81363062D01*
X106704198Y-81363062D02*
X106656579Y-81339252D01*
X122010833Y-81608990D02*
X122034642Y-81632800D01*
X122034642Y-81632800D02*
X122106071Y-81656609D01*
X122106071Y-81656609D02*
X122153690Y-81656609D01*
X122153690Y-81656609D02*
X122225118Y-81632800D01*
X122225118Y-81632800D02*
X122272737Y-81585180D01*
X122272737Y-81585180D02*
X122296547Y-81537561D01*
X122296547Y-81537561D02*
X122320356Y-81442323D01*
X122320356Y-81442323D02*
X122320356Y-81370895D01*
X122320356Y-81370895D02*
X122296547Y-81275657D01*
X122296547Y-81275657D02*
X122272737Y-81228038D01*
X122272737Y-81228038D02*
X122225118Y-81180419D01*
X122225118Y-81180419D02*
X122153690Y-81156609D01*
X122153690Y-81156609D02*
X122106071Y-81156609D01*
X122106071Y-81156609D02*
X122034642Y-81180419D01*
X122034642Y-81180419D02*
X122010833Y-81204228D01*
X121844166Y-81156609D02*
X121534642Y-81156609D01*
X121534642Y-81156609D02*
X121701309Y-81347085D01*
X121701309Y-81347085D02*
X121629880Y-81347085D01*
X121629880Y-81347085D02*
X121582261Y-81370895D01*
X121582261Y-81370895D02*
X121558452Y-81394704D01*
X121558452Y-81394704D02*
X121534642Y-81442323D01*
X121534642Y-81442323D02*
X121534642Y-81561371D01*
X121534642Y-81561371D02*
X121558452Y-81608990D01*
X121558452Y-81608990D02*
X121582261Y-81632800D01*
X121582261Y-81632800D02*
X121629880Y-81656609D01*
X121629880Y-81656609D02*
X121772737Y-81656609D01*
X121772737Y-81656609D02*
X121820356Y-81632800D01*
X121820356Y-81632800D02*
X121844166Y-81608990D01*
X128533333Y-79416490D02*
X128557142Y-79440300D01*
X128557142Y-79440300D02*
X128628571Y-79464109D01*
X128628571Y-79464109D02*
X128676190Y-79464109D01*
X128676190Y-79464109D02*
X128747618Y-79440300D01*
X128747618Y-79440300D02*
X128795237Y-79392680D01*
X128795237Y-79392680D02*
X128819047Y-79345061D01*
X128819047Y-79345061D02*
X128842856Y-79249823D01*
X128842856Y-79249823D02*
X128842856Y-79178395D01*
X128842856Y-79178395D02*
X128819047Y-79083157D01*
X128819047Y-79083157D02*
X128795237Y-79035538D01*
X128795237Y-79035538D02*
X128747618Y-78987919D01*
X128747618Y-78987919D02*
X128676190Y-78964109D01*
X128676190Y-78964109D02*
X128628571Y-78964109D01*
X128628571Y-78964109D02*
X128557142Y-78987919D01*
X128557142Y-78987919D02*
X128533333Y-79011728D01*
X128104761Y-79130776D02*
X128104761Y-79464109D01*
X128223809Y-78940300D02*
X128342856Y-79297442D01*
X128342856Y-79297442D02*
X128033333Y-79297442D01*
X137286428Y-87644109D02*
X137453094Y-87406014D01*
X137572142Y-87644109D02*
X137572142Y-87144109D01*
X137572142Y-87144109D02*
X137381666Y-87144109D01*
X137381666Y-87144109D02*
X137334047Y-87167919D01*
X137334047Y-87167919D02*
X137310237Y-87191728D01*
X137310237Y-87191728D02*
X137286428Y-87239347D01*
X137286428Y-87239347D02*
X137286428Y-87310776D01*
X137286428Y-87310776D02*
X137310237Y-87358395D01*
X137310237Y-87358395D02*
X137334047Y-87382204D01*
X137334047Y-87382204D02*
X137381666Y-87406014D01*
X137381666Y-87406014D02*
X137572142Y-87406014D01*
X137119761Y-87144109D02*
X136810237Y-87144109D01*
X136810237Y-87144109D02*
X136976904Y-87334585D01*
X136976904Y-87334585D02*
X136905475Y-87334585D01*
X136905475Y-87334585D02*
X136857856Y-87358395D01*
X136857856Y-87358395D02*
X136834047Y-87382204D01*
X136834047Y-87382204D02*
X136810237Y-87429823D01*
X136810237Y-87429823D02*
X136810237Y-87548871D01*
X136810237Y-87548871D02*
X136834047Y-87596490D01*
X136834047Y-87596490D02*
X136857856Y-87620300D01*
X136857856Y-87620300D02*
X136905475Y-87644109D01*
X136905475Y-87644109D02*
X137048332Y-87644109D01*
X137048332Y-87644109D02*
X137095951Y-87620300D01*
X137095951Y-87620300D02*
X137119761Y-87596490D01*
X136643571Y-87144109D02*
X136334047Y-87144109D01*
X136334047Y-87144109D02*
X136500714Y-87334585D01*
X136500714Y-87334585D02*
X136429285Y-87334585D01*
X136429285Y-87334585D02*
X136381666Y-87358395D01*
X136381666Y-87358395D02*
X136357857Y-87382204D01*
X136357857Y-87382204D02*
X136334047Y-87429823D01*
X136334047Y-87429823D02*
X136334047Y-87548871D01*
X136334047Y-87548871D02*
X136357857Y-87596490D01*
X136357857Y-87596490D02*
X136381666Y-87620300D01*
X136381666Y-87620300D02*
X136429285Y-87644109D01*
X136429285Y-87644109D02*
X136572142Y-87644109D01*
X136572142Y-87644109D02*
X136619761Y-87620300D01*
X136619761Y-87620300D02*
X136643571Y-87596490D01*
X107452293Y-73748895D02*
X107618959Y-73510800D01*
X107738007Y-73748895D02*
X107738007Y-73248895D01*
X107738007Y-73248895D02*
X107547531Y-73248895D01*
X107547531Y-73248895D02*
X107499912Y-73272705D01*
X107499912Y-73272705D02*
X107476102Y-73296514D01*
X107476102Y-73296514D02*
X107452293Y-73344133D01*
X107452293Y-73344133D02*
X107452293Y-73415562D01*
X107452293Y-73415562D02*
X107476102Y-73463181D01*
X107476102Y-73463181D02*
X107499912Y-73486990D01*
X107499912Y-73486990D02*
X107547531Y-73510800D01*
X107547531Y-73510800D02*
X107738007Y-73510800D01*
X106976102Y-73748895D02*
X107261816Y-73748895D01*
X107118959Y-73748895D02*
X107118959Y-73248895D01*
X107118959Y-73248895D02*
X107166578Y-73320324D01*
X107166578Y-73320324D02*
X107214197Y-73367943D01*
X107214197Y-73367943D02*
X107261816Y-73391752D01*
X106523722Y-73248895D02*
X106761817Y-73248895D01*
X106761817Y-73248895D02*
X106785626Y-73486990D01*
X106785626Y-73486990D02*
X106761817Y-73463181D01*
X106761817Y-73463181D02*
X106714198Y-73439371D01*
X106714198Y-73439371D02*
X106595150Y-73439371D01*
X106595150Y-73439371D02*
X106547531Y-73463181D01*
X106547531Y-73463181D02*
X106523722Y-73486990D01*
X106523722Y-73486990D02*
X106499912Y-73534609D01*
X106499912Y-73534609D02*
X106499912Y-73653657D01*
X106499912Y-73653657D02*
X106523722Y-73701276D01*
X106523722Y-73701276D02*
X106547531Y-73725086D01*
X106547531Y-73725086D02*
X106595150Y-73748895D01*
X106595150Y-73748895D02*
X106714198Y-73748895D01*
X106714198Y-73748895D02*
X106761817Y-73725086D01*
X106761817Y-73725086D02*
X106785626Y-73701276D01*
X122656109Y-137236571D02*
X122418014Y-137069905D01*
X122656109Y-136950857D02*
X122156109Y-136950857D01*
X122156109Y-136950857D02*
X122156109Y-137141333D01*
X122156109Y-137141333D02*
X122179919Y-137188952D01*
X122179919Y-137188952D02*
X122203728Y-137212762D01*
X122203728Y-137212762D02*
X122251347Y-137236571D01*
X122251347Y-137236571D02*
X122322776Y-137236571D01*
X122322776Y-137236571D02*
X122370395Y-137212762D01*
X122370395Y-137212762D02*
X122394204Y-137188952D01*
X122394204Y-137188952D02*
X122418014Y-137141333D01*
X122418014Y-137141333D02*
X122418014Y-136950857D01*
X122656109Y-137712762D02*
X122656109Y-137427048D01*
X122656109Y-137569905D02*
X122156109Y-137569905D01*
X122156109Y-137569905D02*
X122227538Y-137522286D01*
X122227538Y-137522286D02*
X122275157Y-137474667D01*
X122275157Y-137474667D02*
X122298966Y-137427048D01*
X122322776Y-138141333D02*
X122656109Y-138141333D01*
X122132300Y-138022285D02*
X122489442Y-137903238D01*
X122489442Y-137903238D02*
X122489442Y-138212761D01*
X135200178Y-87598990D02*
X135223987Y-87622800D01*
X135223987Y-87622800D02*
X135295416Y-87646609D01*
X135295416Y-87646609D02*
X135343035Y-87646609D01*
X135343035Y-87646609D02*
X135414463Y-87622800D01*
X135414463Y-87622800D02*
X135462082Y-87575180D01*
X135462082Y-87575180D02*
X135485892Y-87527561D01*
X135485892Y-87527561D02*
X135509701Y-87432323D01*
X135509701Y-87432323D02*
X135509701Y-87360895D01*
X135509701Y-87360895D02*
X135485892Y-87265657D01*
X135485892Y-87265657D02*
X135462082Y-87218038D01*
X135462082Y-87218038D02*
X135414463Y-87170419D01*
X135414463Y-87170419D02*
X135343035Y-87146609D01*
X135343035Y-87146609D02*
X135295416Y-87146609D01*
X135295416Y-87146609D02*
X135223987Y-87170419D01*
X135223987Y-87170419D02*
X135200178Y-87194228D01*
X135033511Y-87146609D02*
X134723987Y-87146609D01*
X134723987Y-87146609D02*
X134890654Y-87337085D01*
X134890654Y-87337085D02*
X134819225Y-87337085D01*
X134819225Y-87337085D02*
X134771606Y-87360895D01*
X134771606Y-87360895D02*
X134747797Y-87384704D01*
X134747797Y-87384704D02*
X134723987Y-87432323D01*
X134723987Y-87432323D02*
X134723987Y-87551371D01*
X134723987Y-87551371D02*
X134747797Y-87598990D01*
X134747797Y-87598990D02*
X134771606Y-87622800D01*
X134771606Y-87622800D02*
X134819225Y-87646609D01*
X134819225Y-87646609D02*
X134962082Y-87646609D01*
X134962082Y-87646609D02*
X135009701Y-87622800D01*
X135009701Y-87622800D02*
X135033511Y-87598990D01*
X134295416Y-87146609D02*
X134390654Y-87146609D01*
X134390654Y-87146609D02*
X134438273Y-87170419D01*
X134438273Y-87170419D02*
X134462083Y-87194228D01*
X134462083Y-87194228D02*
X134509702Y-87265657D01*
X134509702Y-87265657D02*
X134533511Y-87360895D01*
X134533511Y-87360895D02*
X134533511Y-87551371D01*
X134533511Y-87551371D02*
X134509702Y-87598990D01*
X134509702Y-87598990D02*
X134485892Y-87622800D01*
X134485892Y-87622800D02*
X134438273Y-87646609D01*
X134438273Y-87646609D02*
X134343035Y-87646609D01*
X134343035Y-87646609D02*
X134295416Y-87622800D01*
X134295416Y-87622800D02*
X134271607Y-87598990D01*
X134271607Y-87598990D02*
X134247797Y-87551371D01*
X134247797Y-87551371D02*
X134247797Y-87432323D01*
X134247797Y-87432323D02*
X134271607Y-87384704D01*
X134271607Y-87384704D02*
X134295416Y-87360895D01*
X134295416Y-87360895D02*
X134343035Y-87337085D01*
X134343035Y-87337085D02*
X134438273Y-87337085D01*
X134438273Y-87337085D02*
X134485892Y-87360895D01*
X134485892Y-87360895D02*
X134509702Y-87384704D01*
X134509702Y-87384704D02*
X134533511Y-87432323D01*
X128634761Y-115048990D02*
X128658570Y-115072800D01*
X128658570Y-115072800D02*
X128729999Y-115096609D01*
X128729999Y-115096609D02*
X128777618Y-115096609D01*
X128777618Y-115096609D02*
X128849046Y-115072800D01*
X128849046Y-115072800D02*
X128896665Y-115025180D01*
X128896665Y-115025180D02*
X128920475Y-114977561D01*
X128920475Y-114977561D02*
X128944284Y-114882323D01*
X128944284Y-114882323D02*
X128944284Y-114810895D01*
X128944284Y-114810895D02*
X128920475Y-114715657D01*
X128920475Y-114715657D02*
X128896665Y-114668038D01*
X128896665Y-114668038D02*
X128849046Y-114620419D01*
X128849046Y-114620419D02*
X128777618Y-114596609D01*
X128777618Y-114596609D02*
X128729999Y-114596609D01*
X128729999Y-114596609D02*
X128658570Y-114620419D01*
X128658570Y-114620419D02*
X128634761Y-114644228D01*
X128468094Y-114596609D02*
X128158570Y-114596609D01*
X128158570Y-114596609D02*
X128325237Y-114787085D01*
X128325237Y-114787085D02*
X128253808Y-114787085D01*
X128253808Y-114787085D02*
X128206189Y-114810895D01*
X128206189Y-114810895D02*
X128182380Y-114834704D01*
X128182380Y-114834704D02*
X128158570Y-114882323D01*
X128158570Y-114882323D02*
X128158570Y-115001371D01*
X128158570Y-115001371D02*
X128182380Y-115048990D01*
X128182380Y-115048990D02*
X128206189Y-115072800D01*
X128206189Y-115072800D02*
X128253808Y-115096609D01*
X128253808Y-115096609D02*
X128396665Y-115096609D01*
X128396665Y-115096609D02*
X128444284Y-115072800D01*
X128444284Y-115072800D02*
X128468094Y-115048990D01*
X127682380Y-115096609D02*
X127968094Y-115096609D01*
X127825237Y-115096609D02*
X127825237Y-114596609D01*
X127825237Y-114596609D02*
X127872856Y-114668038D01*
X127872856Y-114668038D02*
X127920475Y-114715657D01*
X127920475Y-114715657D02*
X127968094Y-114739466D01*
X124774166Y-110084109D02*
X125012261Y-110084109D01*
X125012261Y-110084109D02*
X125012261Y-109584109D01*
X124345594Y-110084109D02*
X124631308Y-110084109D01*
X124488451Y-110084109D02*
X124488451Y-109584109D01*
X124488451Y-109584109D02*
X124536070Y-109655538D01*
X124536070Y-109655538D02*
X124583689Y-109703157D01*
X124583689Y-109703157D02*
X124631308Y-109726966D01*
X107404793Y-92806395D02*
X107571459Y-92568300D01*
X107690507Y-92806395D02*
X107690507Y-92306395D01*
X107690507Y-92306395D02*
X107500031Y-92306395D01*
X107500031Y-92306395D02*
X107452412Y-92330205D01*
X107452412Y-92330205D02*
X107428602Y-92354014D01*
X107428602Y-92354014D02*
X107404793Y-92401633D01*
X107404793Y-92401633D02*
X107404793Y-92473062D01*
X107404793Y-92473062D02*
X107428602Y-92520681D01*
X107428602Y-92520681D02*
X107452412Y-92544490D01*
X107452412Y-92544490D02*
X107500031Y-92568300D01*
X107500031Y-92568300D02*
X107690507Y-92568300D01*
X107214316Y-92354014D02*
X107190507Y-92330205D01*
X107190507Y-92330205D02*
X107142888Y-92306395D01*
X107142888Y-92306395D02*
X107023840Y-92306395D01*
X107023840Y-92306395D02*
X106976221Y-92330205D01*
X106976221Y-92330205D02*
X106952412Y-92354014D01*
X106952412Y-92354014D02*
X106928602Y-92401633D01*
X106928602Y-92401633D02*
X106928602Y-92449252D01*
X106928602Y-92449252D02*
X106952412Y-92520681D01*
X106952412Y-92520681D02*
X107238126Y-92806395D01*
X107238126Y-92806395D02*
X106928602Y-92806395D01*
X106500031Y-92306395D02*
X106595269Y-92306395D01*
X106595269Y-92306395D02*
X106642888Y-92330205D01*
X106642888Y-92330205D02*
X106666698Y-92354014D01*
X106666698Y-92354014D02*
X106714317Y-92425443D01*
X106714317Y-92425443D02*
X106738126Y-92520681D01*
X106738126Y-92520681D02*
X106738126Y-92711157D01*
X106738126Y-92711157D02*
X106714317Y-92758776D01*
X106714317Y-92758776D02*
X106690507Y-92782586D01*
X106690507Y-92782586D02*
X106642888Y-92806395D01*
X106642888Y-92806395D02*
X106547650Y-92806395D01*
X106547650Y-92806395D02*
X106500031Y-92782586D01*
X106500031Y-92782586D02*
X106476222Y-92758776D01*
X106476222Y-92758776D02*
X106452412Y-92711157D01*
X106452412Y-92711157D02*
X106452412Y-92592109D01*
X106452412Y-92592109D02*
X106476222Y-92544490D01*
X106476222Y-92544490D02*
X106500031Y-92520681D01*
X106500031Y-92520681D02*
X106547650Y-92496871D01*
X106547650Y-92496871D02*
X106642888Y-92496871D01*
X106642888Y-92496871D02*
X106690507Y-92520681D01*
X106690507Y-92520681D02*
X106714317Y-92544490D01*
X106714317Y-92544490D02*
X106738126Y-92592109D01*
X128702261Y-117021490D02*
X128726070Y-117045300D01*
X128726070Y-117045300D02*
X128797499Y-117069109D01*
X128797499Y-117069109D02*
X128845118Y-117069109D01*
X128845118Y-117069109D02*
X128916546Y-117045300D01*
X128916546Y-117045300D02*
X128964165Y-116997680D01*
X128964165Y-116997680D02*
X128987975Y-116950061D01*
X128987975Y-116950061D02*
X129011784Y-116854823D01*
X129011784Y-116854823D02*
X129011784Y-116783395D01*
X129011784Y-116783395D02*
X128987975Y-116688157D01*
X128987975Y-116688157D02*
X128964165Y-116640538D01*
X128964165Y-116640538D02*
X128916546Y-116592919D01*
X128916546Y-116592919D02*
X128845118Y-116569109D01*
X128845118Y-116569109D02*
X128797499Y-116569109D01*
X128797499Y-116569109D02*
X128726070Y-116592919D01*
X128726070Y-116592919D02*
X128702261Y-116616728D01*
X128535594Y-116569109D02*
X128226070Y-116569109D01*
X128226070Y-116569109D02*
X128392737Y-116759585D01*
X128392737Y-116759585D02*
X128321308Y-116759585D01*
X128321308Y-116759585D02*
X128273689Y-116783395D01*
X128273689Y-116783395D02*
X128249880Y-116807204D01*
X128249880Y-116807204D02*
X128226070Y-116854823D01*
X128226070Y-116854823D02*
X128226070Y-116973871D01*
X128226070Y-116973871D02*
X128249880Y-117021490D01*
X128249880Y-117021490D02*
X128273689Y-117045300D01*
X128273689Y-117045300D02*
X128321308Y-117069109D01*
X128321308Y-117069109D02*
X128464165Y-117069109D01*
X128464165Y-117069109D02*
X128511784Y-117045300D01*
X128511784Y-117045300D02*
X128535594Y-117021490D01*
X127916547Y-116569109D02*
X127868928Y-116569109D01*
X127868928Y-116569109D02*
X127821309Y-116592919D01*
X127821309Y-116592919D02*
X127797499Y-116616728D01*
X127797499Y-116616728D02*
X127773690Y-116664347D01*
X127773690Y-116664347D02*
X127749880Y-116759585D01*
X127749880Y-116759585D02*
X127749880Y-116878633D01*
X127749880Y-116878633D02*
X127773690Y-116973871D01*
X127773690Y-116973871D02*
X127797499Y-117021490D01*
X127797499Y-117021490D02*
X127821309Y-117045300D01*
X127821309Y-117045300D02*
X127868928Y-117069109D01*
X127868928Y-117069109D02*
X127916547Y-117069109D01*
X127916547Y-117069109D02*
X127964166Y-117045300D01*
X127964166Y-117045300D02*
X127987975Y-117021490D01*
X127987975Y-117021490D02*
X128011785Y-116973871D01*
X128011785Y-116973871D02*
X128035594Y-116878633D01*
X128035594Y-116878633D02*
X128035594Y-116759585D01*
X128035594Y-116759585D02*
X128011785Y-116664347D01*
X128011785Y-116664347D02*
X127987975Y-116616728D01*
X127987975Y-116616728D02*
X127964166Y-116592919D01*
X127964166Y-116592919D02*
X127916547Y-116569109D01*
X124746428Y-87646609D02*
X124913094Y-87408514D01*
X125032142Y-87646609D02*
X125032142Y-87146609D01*
X125032142Y-87146609D02*
X124841666Y-87146609D01*
X124841666Y-87146609D02*
X124794047Y-87170419D01*
X124794047Y-87170419D02*
X124770237Y-87194228D01*
X124770237Y-87194228D02*
X124746428Y-87241847D01*
X124746428Y-87241847D02*
X124746428Y-87313276D01*
X124746428Y-87313276D02*
X124770237Y-87360895D01*
X124770237Y-87360895D02*
X124794047Y-87384704D01*
X124794047Y-87384704D02*
X124841666Y-87408514D01*
X124841666Y-87408514D02*
X125032142Y-87408514D01*
X124579761Y-87146609D02*
X124270237Y-87146609D01*
X124270237Y-87146609D02*
X124436904Y-87337085D01*
X124436904Y-87337085D02*
X124365475Y-87337085D01*
X124365475Y-87337085D02*
X124317856Y-87360895D01*
X124317856Y-87360895D02*
X124294047Y-87384704D01*
X124294047Y-87384704D02*
X124270237Y-87432323D01*
X124270237Y-87432323D02*
X124270237Y-87551371D01*
X124270237Y-87551371D02*
X124294047Y-87598990D01*
X124294047Y-87598990D02*
X124317856Y-87622800D01*
X124317856Y-87622800D02*
X124365475Y-87646609D01*
X124365475Y-87646609D02*
X124508332Y-87646609D01*
X124508332Y-87646609D02*
X124555951Y-87622800D01*
X124555951Y-87622800D02*
X124579761Y-87598990D01*
X123841666Y-87313276D02*
X123841666Y-87646609D01*
X123960714Y-87122800D02*
X124079761Y-87479942D01*
X124079761Y-87479942D02*
X123770238Y-87479942D01*
X107442293Y-84593538D02*
X107608959Y-84355443D01*
X107728007Y-84593538D02*
X107728007Y-84093538D01*
X107728007Y-84093538D02*
X107537531Y-84093538D01*
X107537531Y-84093538D02*
X107489912Y-84117348D01*
X107489912Y-84117348D02*
X107466102Y-84141157D01*
X107466102Y-84141157D02*
X107442293Y-84188776D01*
X107442293Y-84188776D02*
X107442293Y-84260205D01*
X107442293Y-84260205D02*
X107466102Y-84307824D01*
X107466102Y-84307824D02*
X107489912Y-84331633D01*
X107489912Y-84331633D02*
X107537531Y-84355443D01*
X107537531Y-84355443D02*
X107728007Y-84355443D01*
X107251816Y-84141157D02*
X107228007Y-84117348D01*
X107228007Y-84117348D02*
X107180388Y-84093538D01*
X107180388Y-84093538D02*
X107061340Y-84093538D01*
X107061340Y-84093538D02*
X107013721Y-84117348D01*
X107013721Y-84117348D02*
X106989912Y-84141157D01*
X106989912Y-84141157D02*
X106966102Y-84188776D01*
X106966102Y-84188776D02*
X106966102Y-84236395D01*
X106966102Y-84236395D02*
X106989912Y-84307824D01*
X106989912Y-84307824D02*
X107275626Y-84593538D01*
X107275626Y-84593538D02*
X106966102Y-84593538D01*
X106799436Y-84093538D02*
X106489912Y-84093538D01*
X106489912Y-84093538D02*
X106656579Y-84284014D01*
X106656579Y-84284014D02*
X106585150Y-84284014D01*
X106585150Y-84284014D02*
X106537531Y-84307824D01*
X106537531Y-84307824D02*
X106513722Y-84331633D01*
X106513722Y-84331633D02*
X106489912Y-84379252D01*
X106489912Y-84379252D02*
X106489912Y-84498300D01*
X106489912Y-84498300D02*
X106513722Y-84545919D01*
X106513722Y-84545919D02*
X106537531Y-84569729D01*
X106537531Y-84569729D02*
X106585150Y-84593538D01*
X106585150Y-84593538D02*
X106728007Y-84593538D01*
X106728007Y-84593538D02*
X106775626Y-84569729D01*
X106775626Y-84569729D02*
X106799436Y-84545919D01*
X126792678Y-87598990D02*
X126816487Y-87622800D01*
X126816487Y-87622800D02*
X126887916Y-87646609D01*
X126887916Y-87646609D02*
X126935535Y-87646609D01*
X126935535Y-87646609D02*
X127006963Y-87622800D01*
X127006963Y-87622800D02*
X127054582Y-87575180D01*
X127054582Y-87575180D02*
X127078392Y-87527561D01*
X127078392Y-87527561D02*
X127102201Y-87432323D01*
X127102201Y-87432323D02*
X127102201Y-87360895D01*
X127102201Y-87360895D02*
X127078392Y-87265657D01*
X127078392Y-87265657D02*
X127054582Y-87218038D01*
X127054582Y-87218038D02*
X127006963Y-87170419D01*
X127006963Y-87170419D02*
X126935535Y-87146609D01*
X126935535Y-87146609D02*
X126887916Y-87146609D01*
X126887916Y-87146609D02*
X126816487Y-87170419D01*
X126816487Y-87170419D02*
X126792678Y-87194228D01*
X126626011Y-87146609D02*
X126316487Y-87146609D01*
X126316487Y-87146609D02*
X126483154Y-87337085D01*
X126483154Y-87337085D02*
X126411725Y-87337085D01*
X126411725Y-87337085D02*
X126364106Y-87360895D01*
X126364106Y-87360895D02*
X126340297Y-87384704D01*
X126340297Y-87384704D02*
X126316487Y-87432323D01*
X126316487Y-87432323D02*
X126316487Y-87551371D01*
X126316487Y-87551371D02*
X126340297Y-87598990D01*
X126340297Y-87598990D02*
X126364106Y-87622800D01*
X126364106Y-87622800D02*
X126411725Y-87646609D01*
X126411725Y-87646609D02*
X126554582Y-87646609D01*
X126554582Y-87646609D02*
X126602201Y-87622800D01*
X126602201Y-87622800D02*
X126626011Y-87598990D01*
X125887916Y-87313276D02*
X125887916Y-87646609D01*
X126006964Y-87122800D02*
X126126011Y-87479942D01*
X126126011Y-87479942D02*
X125816488Y-87479942D01*
X155616693Y-61798990D02*
X155640502Y-61822800D01*
X155640502Y-61822800D02*
X155711931Y-61846609D01*
X155711931Y-61846609D02*
X155759550Y-61846609D01*
X155759550Y-61846609D02*
X155830978Y-61822800D01*
X155830978Y-61822800D02*
X155878597Y-61775180D01*
X155878597Y-61775180D02*
X155902407Y-61727561D01*
X155902407Y-61727561D02*
X155926216Y-61632323D01*
X155926216Y-61632323D02*
X155926216Y-61560895D01*
X155926216Y-61560895D02*
X155902407Y-61465657D01*
X155902407Y-61465657D02*
X155878597Y-61418038D01*
X155878597Y-61418038D02*
X155830978Y-61370419D01*
X155830978Y-61370419D02*
X155759550Y-61346609D01*
X155759550Y-61346609D02*
X155711931Y-61346609D01*
X155711931Y-61346609D02*
X155640502Y-61370419D01*
X155640502Y-61370419D02*
X155616693Y-61394228D01*
X155450026Y-61346609D02*
X155140502Y-61346609D01*
X155140502Y-61346609D02*
X155307169Y-61537085D01*
X155307169Y-61537085D02*
X155235740Y-61537085D01*
X155235740Y-61537085D02*
X155188121Y-61560895D01*
X155188121Y-61560895D02*
X155164312Y-61584704D01*
X155164312Y-61584704D02*
X155140502Y-61632323D01*
X155140502Y-61632323D02*
X155140502Y-61751371D01*
X155140502Y-61751371D02*
X155164312Y-61798990D01*
X155164312Y-61798990D02*
X155188121Y-61822800D01*
X155188121Y-61822800D02*
X155235740Y-61846609D01*
X155235740Y-61846609D02*
X155378597Y-61846609D01*
X155378597Y-61846609D02*
X155426216Y-61822800D01*
X155426216Y-61822800D02*
X155450026Y-61798990D01*
X154973836Y-61346609D02*
X154640503Y-61346609D01*
X154640503Y-61346609D02*
X154854788Y-61846609D01*
X135911109Y-119424666D02*
X135673014Y-119258000D01*
X135911109Y-119138952D02*
X135411109Y-119138952D01*
X135411109Y-119138952D02*
X135411109Y-119329428D01*
X135411109Y-119329428D02*
X135434919Y-119377047D01*
X135434919Y-119377047D02*
X135458728Y-119400857D01*
X135458728Y-119400857D02*
X135506347Y-119424666D01*
X135506347Y-119424666D02*
X135577776Y-119424666D01*
X135577776Y-119424666D02*
X135625395Y-119400857D01*
X135625395Y-119400857D02*
X135649204Y-119377047D01*
X135649204Y-119377047D02*
X135673014Y-119329428D01*
X135673014Y-119329428D02*
X135673014Y-119138952D01*
X135577776Y-119853238D02*
X135911109Y-119853238D01*
X135387300Y-119734190D02*
X135744442Y-119615143D01*
X135744442Y-119615143D02*
X135744442Y-119924666D01*
X136671428Y-54954109D02*
X136838094Y-54716014D01*
X136957142Y-54954109D02*
X136957142Y-54454109D01*
X136957142Y-54454109D02*
X136766666Y-54454109D01*
X136766666Y-54454109D02*
X136719047Y-54477919D01*
X136719047Y-54477919D02*
X136695237Y-54501728D01*
X136695237Y-54501728D02*
X136671428Y-54549347D01*
X136671428Y-54549347D02*
X136671428Y-54620776D01*
X136671428Y-54620776D02*
X136695237Y-54668395D01*
X136695237Y-54668395D02*
X136719047Y-54692204D01*
X136719047Y-54692204D02*
X136766666Y-54716014D01*
X136766666Y-54716014D02*
X136957142Y-54716014D01*
X136504761Y-54454109D02*
X136195237Y-54454109D01*
X136195237Y-54454109D02*
X136361904Y-54644585D01*
X136361904Y-54644585D02*
X136290475Y-54644585D01*
X136290475Y-54644585D02*
X136242856Y-54668395D01*
X136242856Y-54668395D02*
X136219047Y-54692204D01*
X136219047Y-54692204D02*
X136195237Y-54739823D01*
X136195237Y-54739823D02*
X136195237Y-54858871D01*
X136195237Y-54858871D02*
X136219047Y-54906490D01*
X136219047Y-54906490D02*
X136242856Y-54930300D01*
X136242856Y-54930300D02*
X136290475Y-54954109D01*
X136290475Y-54954109D02*
X136433332Y-54954109D01*
X136433332Y-54954109D02*
X136480951Y-54930300D01*
X136480951Y-54930300D02*
X136504761Y-54906490D01*
X135742857Y-54454109D02*
X135980952Y-54454109D01*
X135980952Y-54454109D02*
X136004761Y-54692204D01*
X136004761Y-54692204D02*
X135980952Y-54668395D01*
X135980952Y-54668395D02*
X135933333Y-54644585D01*
X135933333Y-54644585D02*
X135814285Y-54644585D01*
X135814285Y-54644585D02*
X135766666Y-54668395D01*
X135766666Y-54668395D02*
X135742857Y-54692204D01*
X135742857Y-54692204D02*
X135719047Y-54739823D01*
X135719047Y-54739823D02*
X135719047Y-54858871D01*
X135719047Y-54858871D02*
X135742857Y-54906490D01*
X135742857Y-54906490D02*
X135766666Y-54930300D01*
X135766666Y-54930300D02*
X135814285Y-54954109D01*
X135814285Y-54954109D02*
X135933333Y-54954109D01*
X135933333Y-54954109D02*
X135980952Y-54930300D01*
X135980952Y-54930300D02*
X136004761Y-54906490D01*
X128511428Y-98686490D02*
X128535237Y-98710300D01*
X128535237Y-98710300D02*
X128606666Y-98734109D01*
X128606666Y-98734109D02*
X128654285Y-98734109D01*
X128654285Y-98734109D02*
X128725713Y-98710300D01*
X128725713Y-98710300D02*
X128773332Y-98662680D01*
X128773332Y-98662680D02*
X128797142Y-98615061D01*
X128797142Y-98615061D02*
X128820951Y-98519823D01*
X128820951Y-98519823D02*
X128820951Y-98448395D01*
X128820951Y-98448395D02*
X128797142Y-98353157D01*
X128797142Y-98353157D02*
X128773332Y-98305538D01*
X128773332Y-98305538D02*
X128725713Y-98257919D01*
X128725713Y-98257919D02*
X128654285Y-98234109D01*
X128654285Y-98234109D02*
X128606666Y-98234109D01*
X128606666Y-98234109D02*
X128535237Y-98257919D01*
X128535237Y-98257919D02*
X128511428Y-98281728D01*
X128035237Y-98734109D02*
X128320951Y-98734109D01*
X128178094Y-98734109D02*
X128178094Y-98234109D01*
X128178094Y-98234109D02*
X128225713Y-98305538D01*
X128225713Y-98305538D02*
X128273332Y-98353157D01*
X128273332Y-98353157D02*
X128320951Y-98376966D01*
X127868571Y-98234109D02*
X127535238Y-98234109D01*
X127535238Y-98234109D02*
X127749523Y-98734109D01*
X107431693Y-76472681D02*
X107598359Y-76234586D01*
X107717407Y-76472681D02*
X107717407Y-75972681D01*
X107717407Y-75972681D02*
X107526931Y-75972681D01*
X107526931Y-75972681D02*
X107479312Y-75996491D01*
X107479312Y-75996491D02*
X107455502Y-76020300D01*
X107455502Y-76020300D02*
X107431693Y-76067919D01*
X107431693Y-76067919D02*
X107431693Y-76139348D01*
X107431693Y-76139348D02*
X107455502Y-76186967D01*
X107455502Y-76186967D02*
X107479312Y-76210776D01*
X107479312Y-76210776D02*
X107526931Y-76234586D01*
X107526931Y-76234586D02*
X107717407Y-76234586D01*
X106955502Y-76472681D02*
X107241216Y-76472681D01*
X107098359Y-76472681D02*
X107098359Y-75972681D01*
X107098359Y-75972681D02*
X107145978Y-76044110D01*
X107145978Y-76044110D02*
X107193597Y-76091729D01*
X107193597Y-76091729D02*
X107241216Y-76115538D01*
X106788836Y-75972681D02*
X106455503Y-75972681D01*
X106455503Y-75972681D02*
X106669788Y-76472681D01*
X133551428Y-118546490D02*
X133575237Y-118570300D01*
X133575237Y-118570300D02*
X133646666Y-118594109D01*
X133646666Y-118594109D02*
X133694285Y-118594109D01*
X133694285Y-118594109D02*
X133765713Y-118570300D01*
X133765713Y-118570300D02*
X133813332Y-118522680D01*
X133813332Y-118522680D02*
X133837142Y-118475061D01*
X133837142Y-118475061D02*
X133860951Y-118379823D01*
X133860951Y-118379823D02*
X133860951Y-118308395D01*
X133860951Y-118308395D02*
X133837142Y-118213157D01*
X133837142Y-118213157D02*
X133813332Y-118165538D01*
X133813332Y-118165538D02*
X133765713Y-118117919D01*
X133765713Y-118117919D02*
X133694285Y-118094109D01*
X133694285Y-118094109D02*
X133646666Y-118094109D01*
X133646666Y-118094109D02*
X133575237Y-118117919D01*
X133575237Y-118117919D02*
X133551428Y-118141728D01*
X133360951Y-118141728D02*
X133337142Y-118117919D01*
X133337142Y-118117919D02*
X133289523Y-118094109D01*
X133289523Y-118094109D02*
X133170475Y-118094109D01*
X133170475Y-118094109D02*
X133122856Y-118117919D01*
X133122856Y-118117919D02*
X133099047Y-118141728D01*
X133099047Y-118141728D02*
X133075237Y-118189347D01*
X133075237Y-118189347D02*
X133075237Y-118236966D01*
X133075237Y-118236966D02*
X133099047Y-118308395D01*
X133099047Y-118308395D02*
X133384761Y-118594109D01*
X133384761Y-118594109D02*
X133075237Y-118594109D01*
X132622857Y-118094109D02*
X132860952Y-118094109D01*
X132860952Y-118094109D02*
X132884761Y-118332204D01*
X132884761Y-118332204D02*
X132860952Y-118308395D01*
X132860952Y-118308395D02*
X132813333Y-118284585D01*
X132813333Y-118284585D02*
X132694285Y-118284585D01*
X132694285Y-118284585D02*
X132646666Y-118308395D01*
X132646666Y-118308395D02*
X132622857Y-118332204D01*
X132622857Y-118332204D02*
X132599047Y-118379823D01*
X132599047Y-118379823D02*
X132599047Y-118498871D01*
X132599047Y-118498871D02*
X132622857Y-118546490D01*
X132622857Y-118546490D02*
X132646666Y-118570300D01*
X132646666Y-118570300D02*
X132694285Y-118594109D01*
X132694285Y-118594109D02*
X132813333Y-118594109D01*
X132813333Y-118594109D02*
X132860952Y-118570300D01*
X132860952Y-118570300D02*
X132884761Y-118546490D01*
X115963333Y-140274109D02*
X116129999Y-140036014D01*
X116249047Y-140274109D02*
X116249047Y-139774109D01*
X116249047Y-139774109D02*
X116058571Y-139774109D01*
X116058571Y-139774109D02*
X116010952Y-139797919D01*
X116010952Y-139797919D02*
X115987142Y-139821728D01*
X115987142Y-139821728D02*
X115963333Y-139869347D01*
X115963333Y-139869347D02*
X115963333Y-139940776D01*
X115963333Y-139940776D02*
X115987142Y-139988395D01*
X115987142Y-139988395D02*
X116010952Y-140012204D01*
X116010952Y-140012204D02*
X116058571Y-140036014D01*
X116058571Y-140036014D02*
X116249047Y-140036014D01*
X115677618Y-139988395D02*
X115725237Y-139964585D01*
X115725237Y-139964585D02*
X115749047Y-139940776D01*
X115749047Y-139940776D02*
X115772856Y-139893157D01*
X115772856Y-139893157D02*
X115772856Y-139869347D01*
X115772856Y-139869347D02*
X115749047Y-139821728D01*
X115749047Y-139821728D02*
X115725237Y-139797919D01*
X115725237Y-139797919D02*
X115677618Y-139774109D01*
X115677618Y-139774109D02*
X115582380Y-139774109D01*
X115582380Y-139774109D02*
X115534761Y-139797919D01*
X115534761Y-139797919D02*
X115510952Y-139821728D01*
X115510952Y-139821728D02*
X115487142Y-139869347D01*
X115487142Y-139869347D02*
X115487142Y-139893157D01*
X115487142Y-139893157D02*
X115510952Y-139940776D01*
X115510952Y-139940776D02*
X115534761Y-139964585D01*
X115534761Y-139964585D02*
X115582380Y-139988395D01*
X115582380Y-139988395D02*
X115677618Y-139988395D01*
X115677618Y-139988395D02*
X115725237Y-140012204D01*
X115725237Y-140012204D02*
X115749047Y-140036014D01*
X115749047Y-140036014D02*
X115772856Y-140083633D01*
X115772856Y-140083633D02*
X115772856Y-140178871D01*
X115772856Y-140178871D02*
X115749047Y-140226490D01*
X115749047Y-140226490D02*
X115725237Y-140250300D01*
X115725237Y-140250300D02*
X115677618Y-140274109D01*
X115677618Y-140274109D02*
X115582380Y-140274109D01*
X115582380Y-140274109D02*
X115534761Y-140250300D01*
X115534761Y-140250300D02*
X115510952Y-140226490D01*
X115510952Y-140226490D02*
X115487142Y-140178871D01*
X115487142Y-140178871D02*
X115487142Y-140083633D01*
X115487142Y-140083633D02*
X115510952Y-140036014D01*
X115510952Y-140036014D02*
X115534761Y-140012204D01*
X115534761Y-140012204D02*
X115582380Y-139988395D01*
X135951109Y-137126571D02*
X135713014Y-136959905D01*
X135951109Y-136840857D02*
X135451109Y-136840857D01*
X135451109Y-136840857D02*
X135451109Y-137031333D01*
X135451109Y-137031333D02*
X135474919Y-137078952D01*
X135474919Y-137078952D02*
X135498728Y-137102762D01*
X135498728Y-137102762D02*
X135546347Y-137126571D01*
X135546347Y-137126571D02*
X135617776Y-137126571D01*
X135617776Y-137126571D02*
X135665395Y-137102762D01*
X135665395Y-137102762D02*
X135689204Y-137078952D01*
X135689204Y-137078952D02*
X135713014Y-137031333D01*
X135713014Y-137031333D02*
X135713014Y-136840857D01*
X135951109Y-137602762D02*
X135951109Y-137317048D01*
X135951109Y-137459905D02*
X135451109Y-137459905D01*
X135451109Y-137459905D02*
X135522538Y-137412286D01*
X135522538Y-137412286D02*
X135570157Y-137364667D01*
X135570157Y-137364667D02*
X135593966Y-137317048D01*
X135451109Y-137769428D02*
X135451109Y-138078952D01*
X135451109Y-138078952D02*
X135641585Y-137912285D01*
X135641585Y-137912285D02*
X135641585Y-137983714D01*
X135641585Y-137983714D02*
X135665395Y-138031333D01*
X135665395Y-138031333D02*
X135689204Y-138055142D01*
X135689204Y-138055142D02*
X135736823Y-138078952D01*
X135736823Y-138078952D02*
X135855871Y-138078952D01*
X135855871Y-138078952D02*
X135903490Y-138055142D01*
X135903490Y-138055142D02*
X135927300Y-138031333D01*
X135927300Y-138031333D02*
X135951109Y-137983714D01*
X135951109Y-137983714D02*
X135951109Y-137840857D01*
X135951109Y-137840857D02*
X135927300Y-137793238D01*
X135927300Y-137793238D02*
X135903490Y-137769428D01*
X107442293Y-79176395D02*
X107608959Y-78938300D01*
X107728007Y-79176395D02*
X107728007Y-78676395D01*
X107728007Y-78676395D02*
X107537531Y-78676395D01*
X107537531Y-78676395D02*
X107489912Y-78700205D01*
X107489912Y-78700205D02*
X107466102Y-78724014D01*
X107466102Y-78724014D02*
X107442293Y-78771633D01*
X107442293Y-78771633D02*
X107442293Y-78843062D01*
X107442293Y-78843062D02*
X107466102Y-78890681D01*
X107466102Y-78890681D02*
X107489912Y-78914490D01*
X107489912Y-78914490D02*
X107537531Y-78938300D01*
X107537531Y-78938300D02*
X107728007Y-78938300D01*
X106966102Y-79176395D02*
X107251816Y-79176395D01*
X107108959Y-79176395D02*
X107108959Y-78676395D01*
X107108959Y-78676395D02*
X107156578Y-78747824D01*
X107156578Y-78747824D02*
X107204197Y-78795443D01*
X107204197Y-78795443D02*
X107251816Y-78819252D01*
X106728007Y-79176395D02*
X106632769Y-79176395D01*
X106632769Y-79176395D02*
X106585150Y-79152586D01*
X106585150Y-79152586D02*
X106561341Y-79128776D01*
X106561341Y-79128776D02*
X106513722Y-79057347D01*
X106513722Y-79057347D02*
X106489912Y-78962109D01*
X106489912Y-78962109D02*
X106489912Y-78771633D01*
X106489912Y-78771633D02*
X106513722Y-78724014D01*
X106513722Y-78724014D02*
X106537531Y-78700205D01*
X106537531Y-78700205D02*
X106585150Y-78676395D01*
X106585150Y-78676395D02*
X106680388Y-78676395D01*
X106680388Y-78676395D02*
X106728007Y-78700205D01*
X106728007Y-78700205D02*
X106751817Y-78724014D01*
X106751817Y-78724014D02*
X106775626Y-78771633D01*
X106775626Y-78771633D02*
X106775626Y-78890681D01*
X106775626Y-78890681D02*
X106751817Y-78938300D01*
X106751817Y-78938300D02*
X106728007Y-78962109D01*
X106728007Y-78962109D02*
X106680388Y-78985919D01*
X106680388Y-78985919D02*
X106585150Y-78985919D01*
X106585150Y-78985919D02*
X106537531Y-78962109D01*
X106537531Y-78962109D02*
X106513722Y-78938300D01*
X106513722Y-78938300D02*
X106489912Y-78890681D01*
X131084761Y-86464109D02*
X130751428Y-86964109D01*
X130751428Y-86464109D02*
X131084761Y-86964109D01*
X130608571Y-86464109D02*
X130299047Y-86464109D01*
X130299047Y-86464109D02*
X130465714Y-86654585D01*
X130465714Y-86654585D02*
X130394285Y-86654585D01*
X130394285Y-86654585D02*
X130346666Y-86678395D01*
X130346666Y-86678395D02*
X130322857Y-86702204D01*
X130322857Y-86702204D02*
X130299047Y-86749823D01*
X130299047Y-86749823D02*
X130299047Y-86868871D01*
X130299047Y-86868871D02*
X130322857Y-86916490D01*
X130322857Y-86916490D02*
X130346666Y-86940300D01*
X130346666Y-86940300D02*
X130394285Y-86964109D01*
X130394285Y-86964109D02*
X130537142Y-86964109D01*
X130537142Y-86964109D02*
X130584761Y-86940300D01*
X130584761Y-86940300D02*
X130608571Y-86916490D01*
X115963333Y-142504109D02*
X116129999Y-142266014D01*
X116249047Y-142504109D02*
X116249047Y-142004109D01*
X116249047Y-142004109D02*
X116058571Y-142004109D01*
X116058571Y-142004109D02*
X116010952Y-142027919D01*
X116010952Y-142027919D02*
X115987142Y-142051728D01*
X115987142Y-142051728D02*
X115963333Y-142099347D01*
X115963333Y-142099347D02*
X115963333Y-142170776D01*
X115963333Y-142170776D02*
X115987142Y-142218395D01*
X115987142Y-142218395D02*
X116010952Y-142242204D01*
X116010952Y-142242204D02*
X116058571Y-142266014D01*
X116058571Y-142266014D02*
X116249047Y-142266014D01*
X115510952Y-142004109D02*
X115749047Y-142004109D01*
X115749047Y-142004109D02*
X115772856Y-142242204D01*
X115772856Y-142242204D02*
X115749047Y-142218395D01*
X115749047Y-142218395D02*
X115701428Y-142194585D01*
X115701428Y-142194585D02*
X115582380Y-142194585D01*
X115582380Y-142194585D02*
X115534761Y-142218395D01*
X115534761Y-142218395D02*
X115510952Y-142242204D01*
X115510952Y-142242204D02*
X115487142Y-142289823D01*
X115487142Y-142289823D02*
X115487142Y-142408871D01*
X115487142Y-142408871D02*
X115510952Y-142456490D01*
X115510952Y-142456490D02*
X115534761Y-142480300D01*
X115534761Y-142480300D02*
X115582380Y-142504109D01*
X115582380Y-142504109D02*
X115701428Y-142504109D01*
X115701428Y-142504109D02*
X115749047Y-142480300D01*
X115749047Y-142480300D02*
X115772856Y-142456490D01*
X133513333Y-79416490D02*
X133537142Y-79440300D01*
X133537142Y-79440300D02*
X133608571Y-79464109D01*
X133608571Y-79464109D02*
X133656190Y-79464109D01*
X133656190Y-79464109D02*
X133727618Y-79440300D01*
X133727618Y-79440300D02*
X133775237Y-79392680D01*
X133775237Y-79392680D02*
X133799047Y-79345061D01*
X133799047Y-79345061D02*
X133822856Y-79249823D01*
X133822856Y-79249823D02*
X133822856Y-79178395D01*
X133822856Y-79178395D02*
X133799047Y-79083157D01*
X133799047Y-79083157D02*
X133775237Y-79035538D01*
X133775237Y-79035538D02*
X133727618Y-78987919D01*
X133727618Y-78987919D02*
X133656190Y-78964109D01*
X133656190Y-78964109D02*
X133608571Y-78964109D01*
X133608571Y-78964109D02*
X133537142Y-78987919D01*
X133537142Y-78987919D02*
X133513333Y-79011728D01*
X133060952Y-78964109D02*
X133299047Y-78964109D01*
X133299047Y-78964109D02*
X133322856Y-79202204D01*
X133322856Y-79202204D02*
X133299047Y-79178395D01*
X133299047Y-79178395D02*
X133251428Y-79154585D01*
X133251428Y-79154585D02*
X133132380Y-79154585D01*
X133132380Y-79154585D02*
X133084761Y-79178395D01*
X133084761Y-79178395D02*
X133060952Y-79202204D01*
X133060952Y-79202204D02*
X133037142Y-79249823D01*
X133037142Y-79249823D02*
X133037142Y-79368871D01*
X133037142Y-79368871D02*
X133060952Y-79416490D01*
X133060952Y-79416490D02*
X133084761Y-79440300D01*
X133084761Y-79440300D02*
X133132380Y-79464109D01*
X133132380Y-79464109D02*
X133251428Y-79464109D01*
X133251428Y-79464109D02*
X133299047Y-79440300D01*
X133299047Y-79440300D02*
X133322856Y-79416490D01*
X118568598Y-106988990D02*
X118592407Y-107012800D01*
X118592407Y-107012800D02*
X118663836Y-107036609D01*
X118663836Y-107036609D02*
X118711455Y-107036609D01*
X118711455Y-107036609D02*
X118782883Y-107012800D01*
X118782883Y-107012800D02*
X118830502Y-106965180D01*
X118830502Y-106965180D02*
X118854312Y-106917561D01*
X118854312Y-106917561D02*
X118878121Y-106822323D01*
X118878121Y-106822323D02*
X118878121Y-106750895D01*
X118878121Y-106750895D02*
X118854312Y-106655657D01*
X118854312Y-106655657D02*
X118830502Y-106608038D01*
X118830502Y-106608038D02*
X118782883Y-106560419D01*
X118782883Y-106560419D02*
X118711455Y-106536609D01*
X118711455Y-106536609D02*
X118663836Y-106536609D01*
X118663836Y-106536609D02*
X118592407Y-106560419D01*
X118592407Y-106560419D02*
X118568598Y-106584228D01*
X118092407Y-107036609D02*
X118378121Y-107036609D01*
X118235264Y-107036609D02*
X118235264Y-106536609D01*
X118235264Y-106536609D02*
X118282883Y-106608038D01*
X118282883Y-106608038D02*
X118330502Y-106655657D01*
X118330502Y-106655657D02*
X118378121Y-106679466D01*
X115963333Y-138384109D02*
X116129999Y-138146014D01*
X116249047Y-138384109D02*
X116249047Y-137884109D01*
X116249047Y-137884109D02*
X116058571Y-137884109D01*
X116058571Y-137884109D02*
X116010952Y-137907919D01*
X116010952Y-137907919D02*
X115987142Y-137931728D01*
X115987142Y-137931728D02*
X115963333Y-137979347D01*
X115963333Y-137979347D02*
X115963333Y-138050776D01*
X115963333Y-138050776D02*
X115987142Y-138098395D01*
X115987142Y-138098395D02*
X116010952Y-138122204D01*
X116010952Y-138122204D02*
X116058571Y-138146014D01*
X116058571Y-138146014D02*
X116249047Y-138146014D01*
X115796666Y-137884109D02*
X115463333Y-137884109D01*
X115463333Y-137884109D02*
X115677618Y-138384109D01*
X133581428Y-116486490D02*
X133605237Y-116510300D01*
X133605237Y-116510300D02*
X133676666Y-116534109D01*
X133676666Y-116534109D02*
X133724285Y-116534109D01*
X133724285Y-116534109D02*
X133795713Y-116510300D01*
X133795713Y-116510300D02*
X133843332Y-116462680D01*
X133843332Y-116462680D02*
X133867142Y-116415061D01*
X133867142Y-116415061D02*
X133890951Y-116319823D01*
X133890951Y-116319823D02*
X133890951Y-116248395D01*
X133890951Y-116248395D02*
X133867142Y-116153157D01*
X133867142Y-116153157D02*
X133843332Y-116105538D01*
X133843332Y-116105538D02*
X133795713Y-116057919D01*
X133795713Y-116057919D02*
X133724285Y-116034109D01*
X133724285Y-116034109D02*
X133676666Y-116034109D01*
X133676666Y-116034109D02*
X133605237Y-116057919D01*
X133605237Y-116057919D02*
X133581428Y-116081728D01*
X133390951Y-116081728D02*
X133367142Y-116057919D01*
X133367142Y-116057919D02*
X133319523Y-116034109D01*
X133319523Y-116034109D02*
X133200475Y-116034109D01*
X133200475Y-116034109D02*
X133152856Y-116057919D01*
X133152856Y-116057919D02*
X133129047Y-116081728D01*
X133129047Y-116081728D02*
X133105237Y-116129347D01*
X133105237Y-116129347D02*
X133105237Y-116176966D01*
X133105237Y-116176966D02*
X133129047Y-116248395D01*
X133129047Y-116248395D02*
X133414761Y-116534109D01*
X133414761Y-116534109D02*
X133105237Y-116534109D01*
X132676666Y-116034109D02*
X132771904Y-116034109D01*
X132771904Y-116034109D02*
X132819523Y-116057919D01*
X132819523Y-116057919D02*
X132843333Y-116081728D01*
X132843333Y-116081728D02*
X132890952Y-116153157D01*
X132890952Y-116153157D02*
X132914761Y-116248395D01*
X132914761Y-116248395D02*
X132914761Y-116438871D01*
X132914761Y-116438871D02*
X132890952Y-116486490D01*
X132890952Y-116486490D02*
X132867142Y-116510300D01*
X132867142Y-116510300D02*
X132819523Y-116534109D01*
X132819523Y-116534109D02*
X132724285Y-116534109D01*
X132724285Y-116534109D02*
X132676666Y-116510300D01*
X132676666Y-116510300D02*
X132652857Y-116486490D01*
X132652857Y-116486490D02*
X132629047Y-116438871D01*
X132629047Y-116438871D02*
X132629047Y-116319823D01*
X132629047Y-116319823D02*
X132652857Y-116272204D01*
X132652857Y-116272204D02*
X132676666Y-116248395D01*
X132676666Y-116248395D02*
X132724285Y-116224585D01*
X132724285Y-116224585D02*
X132819523Y-116224585D01*
X132819523Y-116224585D02*
X132867142Y-116248395D01*
X132867142Y-116248395D02*
X132890952Y-116272204D01*
X132890952Y-116272204D02*
X132914761Y-116319823D01*
X107442293Y-87307824D02*
X107608959Y-87069729D01*
X107728007Y-87307824D02*
X107728007Y-86807824D01*
X107728007Y-86807824D02*
X107537531Y-86807824D01*
X107537531Y-86807824D02*
X107489912Y-86831634D01*
X107489912Y-86831634D02*
X107466102Y-86855443D01*
X107466102Y-86855443D02*
X107442293Y-86903062D01*
X107442293Y-86903062D02*
X107442293Y-86974491D01*
X107442293Y-86974491D02*
X107466102Y-87022110D01*
X107466102Y-87022110D02*
X107489912Y-87045919D01*
X107489912Y-87045919D02*
X107537531Y-87069729D01*
X107537531Y-87069729D02*
X107728007Y-87069729D01*
X107251816Y-86855443D02*
X107228007Y-86831634D01*
X107228007Y-86831634D02*
X107180388Y-86807824D01*
X107180388Y-86807824D02*
X107061340Y-86807824D01*
X107061340Y-86807824D02*
X107013721Y-86831634D01*
X107013721Y-86831634D02*
X106989912Y-86855443D01*
X106989912Y-86855443D02*
X106966102Y-86903062D01*
X106966102Y-86903062D02*
X106966102Y-86950681D01*
X106966102Y-86950681D02*
X106989912Y-87022110D01*
X106989912Y-87022110D02*
X107275626Y-87307824D01*
X107275626Y-87307824D02*
X106966102Y-87307824D01*
X106537531Y-86974491D02*
X106537531Y-87307824D01*
X106656579Y-86784015D02*
X106775626Y-87141157D01*
X106775626Y-87141157D02*
X106466103Y-87141157D01*
X113778333Y-89684109D02*
X113944999Y-89446014D01*
X114064047Y-89684109D02*
X114064047Y-89184109D01*
X114064047Y-89184109D02*
X113873571Y-89184109D01*
X113873571Y-89184109D02*
X113825952Y-89207919D01*
X113825952Y-89207919D02*
X113802142Y-89231728D01*
X113802142Y-89231728D02*
X113778333Y-89279347D01*
X113778333Y-89279347D02*
X113778333Y-89350776D01*
X113778333Y-89350776D02*
X113802142Y-89398395D01*
X113802142Y-89398395D02*
X113825952Y-89422204D01*
X113825952Y-89422204D02*
X113873571Y-89446014D01*
X113873571Y-89446014D02*
X114064047Y-89446014D01*
X113611666Y-89184109D02*
X113302142Y-89184109D01*
X113302142Y-89184109D02*
X113468809Y-89374585D01*
X113468809Y-89374585D02*
X113397380Y-89374585D01*
X113397380Y-89374585D02*
X113349761Y-89398395D01*
X113349761Y-89398395D02*
X113325952Y-89422204D01*
X113325952Y-89422204D02*
X113302142Y-89469823D01*
X113302142Y-89469823D02*
X113302142Y-89588871D01*
X113302142Y-89588871D02*
X113325952Y-89636490D01*
X113325952Y-89636490D02*
X113349761Y-89660300D01*
X113349761Y-89660300D02*
X113397380Y-89684109D01*
X113397380Y-89684109D02*
X113540237Y-89684109D01*
X113540237Y-89684109D02*
X113587856Y-89660300D01*
X113587856Y-89660300D02*
X113611666Y-89636490D01*
X114336693Y-91528990D02*
X114360502Y-91552800D01*
X114360502Y-91552800D02*
X114431931Y-91576609D01*
X114431931Y-91576609D02*
X114479550Y-91576609D01*
X114479550Y-91576609D02*
X114550978Y-91552800D01*
X114550978Y-91552800D02*
X114598597Y-91505180D01*
X114598597Y-91505180D02*
X114622407Y-91457561D01*
X114622407Y-91457561D02*
X114646216Y-91362323D01*
X114646216Y-91362323D02*
X114646216Y-91290895D01*
X114646216Y-91290895D02*
X114622407Y-91195657D01*
X114622407Y-91195657D02*
X114598597Y-91148038D01*
X114598597Y-91148038D02*
X114550978Y-91100419D01*
X114550978Y-91100419D02*
X114479550Y-91076609D01*
X114479550Y-91076609D02*
X114431931Y-91076609D01*
X114431931Y-91076609D02*
X114360502Y-91100419D01*
X114360502Y-91100419D02*
X114336693Y-91124228D01*
X113860502Y-91576609D02*
X114146216Y-91576609D01*
X114003359Y-91576609D02*
X114003359Y-91076609D01*
X114003359Y-91076609D02*
X114050978Y-91148038D01*
X114050978Y-91148038D02*
X114098597Y-91195657D01*
X114098597Y-91195657D02*
X114146216Y-91219466D01*
X113431931Y-91243276D02*
X113431931Y-91576609D01*
X113550979Y-91052800D02*
X113670026Y-91409942D01*
X113670026Y-91409942D02*
X113360503Y-91409942D01*
X107442293Y-90064609D02*
X107608959Y-89826514D01*
X107728007Y-90064609D02*
X107728007Y-89564609D01*
X107728007Y-89564609D02*
X107537531Y-89564609D01*
X107537531Y-89564609D02*
X107489912Y-89588419D01*
X107489912Y-89588419D02*
X107466102Y-89612228D01*
X107466102Y-89612228D02*
X107442293Y-89659847D01*
X107442293Y-89659847D02*
X107442293Y-89731276D01*
X107442293Y-89731276D02*
X107466102Y-89778895D01*
X107466102Y-89778895D02*
X107489912Y-89802704D01*
X107489912Y-89802704D02*
X107537531Y-89826514D01*
X107537531Y-89826514D02*
X107728007Y-89826514D01*
X107251816Y-89612228D02*
X107228007Y-89588419D01*
X107228007Y-89588419D02*
X107180388Y-89564609D01*
X107180388Y-89564609D02*
X107061340Y-89564609D01*
X107061340Y-89564609D02*
X107013721Y-89588419D01*
X107013721Y-89588419D02*
X106989912Y-89612228D01*
X106989912Y-89612228D02*
X106966102Y-89659847D01*
X106966102Y-89659847D02*
X106966102Y-89707466D01*
X106966102Y-89707466D02*
X106989912Y-89778895D01*
X106989912Y-89778895D02*
X107275626Y-90064609D01*
X107275626Y-90064609D02*
X106966102Y-90064609D01*
X106513722Y-89564609D02*
X106751817Y-89564609D01*
X106751817Y-89564609D02*
X106775626Y-89802704D01*
X106775626Y-89802704D02*
X106751817Y-89778895D01*
X106751817Y-89778895D02*
X106704198Y-89755085D01*
X106704198Y-89755085D02*
X106585150Y-89755085D01*
X106585150Y-89755085D02*
X106537531Y-89778895D01*
X106537531Y-89778895D02*
X106513722Y-89802704D01*
X106513722Y-89802704D02*
X106489912Y-89850323D01*
X106489912Y-89850323D02*
X106489912Y-89969371D01*
X106489912Y-89969371D02*
X106513722Y-90016990D01*
X106513722Y-90016990D02*
X106537531Y-90040800D01*
X106537531Y-90040800D02*
X106585150Y-90064609D01*
X106585150Y-90064609D02*
X106704198Y-90064609D01*
X106704198Y-90064609D02*
X106751817Y-90040800D01*
X106751817Y-90040800D02*
X106775626Y-90016990D01*
%TO.C,R40*%
X127402500Y-80882500D02*
X125902500Y-80882500D01*
X125902500Y-77857500D01*
X127402500Y-77857500D01*
X127402500Y-80882500D01*
D12*
%TO.C,J9*%
X158196000Y-103668413D02*
G75*
G02*
X157434000Y-103668413I-381000J0D01*
G01*
X157434000Y-103668413D02*
G75*
G02*
X158196000Y-103668413I381000J0D01*
G01*
%TO.C,J7*%
X158196000Y-56575000D02*
G75*
G02*
X157434000Y-56575000I-381000J0D01*
G01*
X157434000Y-56575000D02*
G75*
G02*
X158196000Y-56575000I381000J0D01*
G01*
%TO.C,J3*%
X104599100Y-137425119D02*
G75*
G02*
X103837100Y-137425119I-381000J0D01*
G01*
X103837100Y-137425119D02*
G75*
G02*
X104599100Y-137425119I381000J0D01*
G01*
%TO.C,J6*%
X104599100Y-66785000D02*
G75*
G02*
X103837100Y-66785000I-381000J0D01*
G01*
X103837100Y-66785000D02*
G75*
G02*
X104599100Y-66785000I381000J0D01*
G01*
%TO.C,J10*%
X158196000Y-127215119D02*
G75*
G02*
X157434000Y-127215119I-381000J0D01*
G01*
X157434000Y-127215119D02*
G75*
G02*
X158196000Y-127215119I381000J0D01*
G01*
%TO.C,J5*%
X104599100Y-90331706D02*
G75*
G02*
X103837100Y-90331706I-381000J0D01*
G01*
X103837100Y-90331706D02*
G75*
G02*
X104599100Y-90331706I381000J0D01*
G01*
%TO.C,J8*%
X158196000Y-80121706D02*
G75*
G02*
X157434000Y-80121706I-381000J0D01*
G01*
X157434000Y-80121706D02*
G75*
G02*
X158196000Y-80121706I381000J0D01*
G01*
%TO.C,J4*%
X104599100Y-113878413D02*
G75*
G02*
X103837100Y-113878413I-381000J0D01*
G01*
X103837100Y-113878413D02*
G75*
G02*
X104599100Y-113878413I381000J0D01*
G01*
D13*
%TO.C,G\u002A\u002A\u002A*%
G36*
X137420569Y-65618000D02*
G01*
X137420569Y-71457911D01*
X131420000Y-71457911D01*
X125419431Y-71457911D01*
X125419431Y-65618000D01*
X125419431Y-60179733D01*
X126319115Y-60179733D01*
X126319115Y-65409145D01*
X126319115Y-70638557D01*
X131612790Y-70638557D01*
X136906465Y-70638557D01*
X136906465Y-65409145D01*
X136906465Y-60179733D01*
X131612790Y-60179733D01*
X126319115Y-60179733D01*
X125419431Y-60179733D01*
X125419431Y-59778089D01*
X131420000Y-59778089D01*
X137420569Y-59778089D01*
X137420569Y-65409145D01*
X137420569Y-65618000D01*
G37*
G36*
X132769526Y-69082449D02*
G01*
X132773609Y-69096094D01*
X132778519Y-69137076D01*
X132783028Y-69198660D01*
X132786945Y-69274435D01*
X132790075Y-69357993D01*
X132792226Y-69442927D01*
X132793204Y-69522828D01*
X132792817Y-69591286D01*
X132790872Y-69641895D01*
X132787174Y-69668246D01*
X132782243Y-69677126D01*
X132754742Y-69689737D01*
X132713878Y-69679943D01*
X132665941Y-69648755D01*
X132616122Y-69606835D01*
X132620528Y-69347779D01*
X132624934Y-69088723D01*
X132689197Y-69077929D01*
X132702550Y-69076060D01*
X132744645Y-69075199D01*
X132769526Y-69082449D01*
G37*
G36*
X132759772Y-68260490D02*
G01*
X132779571Y-68300985D01*
X132782314Y-68316589D01*
X132787828Y-68373030D01*
X132790794Y-68443877D01*
X132791251Y-68519840D01*
X132789238Y-68591627D01*
X132784793Y-68649950D01*
X132777956Y-68685518D01*
X132775952Y-68690408D01*
X132749224Y-68720942D01*
X132710527Y-68722913D01*
X132662862Y-68696044D01*
X132661090Y-68694598D01*
X132644517Y-68678107D01*
X132633550Y-68656831D01*
X132626710Y-68623935D01*
X132622512Y-68572581D01*
X132619475Y-68495934D01*
X132618324Y-68458758D01*
X132617218Y-68394841D01*
X132619188Y-68352652D01*
X132625475Y-68325002D01*
X132637320Y-68304701D01*
X132655966Y-68284559D01*
X132684518Y-68261258D01*
X132726479Y-68247034D01*
X132759772Y-68260490D01*
G37*
G36*
X128889779Y-68502611D02*
G01*
X128889794Y-68503362D01*
X128892016Y-68529577D01*
X128897472Y-68580194D01*
X128905379Y-68648236D01*
X128914952Y-68726729D01*
X128924355Y-68802900D01*
X128935719Y-68896623D01*
X128945907Y-68982311D01*
X128953489Y-69048044D01*
X128953548Y-69048564D01*
X128961888Y-69117356D01*
X128970777Y-69182078D01*
X128978302Y-69228784D01*
X128989610Y-69289031D01*
X128927576Y-69288812D01*
X128912932Y-69288740D01*
X128854735Y-69286370D01*
X128819600Y-69276217D01*
X128802469Y-69252223D01*
X128798281Y-69208334D01*
X128801977Y-69138492D01*
X128808192Y-69054931D01*
X128817921Y-68938684D01*
X128828427Y-68826818D01*
X128839190Y-68723943D01*
X128849692Y-68634671D01*
X128859413Y-68563612D01*
X128867835Y-68515377D01*
X128874439Y-68494578D01*
X128883244Y-68489033D01*
X128889779Y-68502611D01*
G37*
G36*
X130399823Y-68239469D02*
G01*
X130402019Y-68256459D01*
X130403891Y-68301737D01*
X130405390Y-68371259D01*
X130406525Y-68461029D01*
X130407307Y-68567054D01*
X130407749Y-68685339D01*
X130407861Y-68811889D01*
X130407654Y-68942712D01*
X130407139Y-69073811D01*
X130406328Y-69201193D01*
X130405231Y-69320864D01*
X130403860Y-69428830D01*
X130402226Y-69521095D01*
X130400339Y-69593666D01*
X130398212Y-69642548D01*
X130395855Y-69663748D01*
X130387878Y-69677256D01*
X130362000Y-69687336D01*
X130328614Y-69670413D01*
X130291944Y-69627942D01*
X130285015Y-69617458D01*
X130276955Y-69603076D01*
X130270498Y-69585870D01*
X130265468Y-69562582D01*
X130261685Y-69529957D01*
X130258972Y-69484738D01*
X130257151Y-69423670D01*
X130256044Y-69343495D01*
X130255474Y-69240957D01*
X130255262Y-69112801D01*
X130255231Y-68955769D01*
X130255248Y-68890026D01*
X130255488Y-68742301D01*
X130256113Y-68622306D01*
X130257250Y-68526875D01*
X130259027Y-68452840D01*
X130261572Y-68397035D01*
X130265012Y-68356293D01*
X130269477Y-68327448D01*
X130275093Y-68307333D01*
X130281987Y-68292780D01*
X130301253Y-68269863D01*
X130337199Y-68245556D01*
X130373935Y-68233670D01*
X130399823Y-68239469D01*
G37*
G36*
X127404188Y-68220900D02*
G01*
X127439333Y-68256140D01*
X127439556Y-68256483D01*
X127446636Y-68269556D01*
X127452432Y-68286926D01*
X127457073Y-68311686D01*
X127460683Y-68346929D01*
X127463391Y-68395747D01*
X127465323Y-68461232D01*
X127466604Y-68546479D01*
X127467363Y-68654579D01*
X127467725Y-68788624D01*
X127467818Y-68951709D01*
X127467818Y-68956912D01*
X127467719Y-69119102D01*
X127467347Y-69252344D01*
X127466575Y-69359730D01*
X127465277Y-69444352D01*
X127463325Y-69509303D01*
X127460593Y-69557674D01*
X127456954Y-69592559D01*
X127452282Y-69617050D01*
X127446451Y-69634239D01*
X127439333Y-69647218D01*
X127425017Y-69665650D01*
X127389023Y-69688444D01*
X127354796Y-69682046D01*
X127328247Y-69646495D01*
X127323212Y-69618261D01*
X127318858Y-69562286D01*
X127315196Y-69482863D01*
X127312232Y-69384266D01*
X127309968Y-69270770D01*
X127308410Y-69146650D01*
X127307562Y-69016180D01*
X127307427Y-68883636D01*
X127308012Y-68753291D01*
X127309318Y-68629421D01*
X127311352Y-68516300D01*
X127314118Y-68418204D01*
X127317619Y-68339406D01*
X127321860Y-68284181D01*
X127326845Y-68256805D01*
X127336726Y-68239096D01*
X127368078Y-68215230D01*
X127404188Y-68220900D01*
G37*
G36*
X136777938Y-65409145D02*
G01*
X136777938Y-67875242D01*
X136777938Y-70510030D01*
X131620823Y-70510030D01*
X126463707Y-70510030D01*
X126463707Y-70301175D01*
X126716297Y-70301175D01*
X126955498Y-70298756D01*
X126979366Y-70298444D01*
X127075103Y-70295930D01*
X127167021Y-70291741D01*
X127245684Y-70286379D01*
X127301652Y-70280346D01*
X127408605Y-70264355D01*
X127454277Y-70174524D01*
X127473507Y-70140360D01*
X127508557Y-70092732D01*
X127540114Y-70066696D01*
X127541931Y-70065881D01*
X127588764Y-70044123D01*
X128166067Y-70044123D01*
X128453647Y-70044123D01*
X128741227Y-70044123D01*
X128751896Y-69887481D01*
X128757405Y-69808300D01*
X128763498Y-69737914D01*
X128770706Y-69690938D01*
X128780878Y-69662638D01*
X128795864Y-69648283D01*
X128817515Y-69643141D01*
X128847681Y-69642478D01*
X128901362Y-69646965D01*
X128940858Y-69666050D01*
X128964097Y-69705495D01*
X128976811Y-69771004D01*
X128980112Y-69799452D01*
X128988700Y-69873996D01*
X128996394Y-69941380D01*
X129005692Y-70023394D01*
X129175086Y-70033758D01*
X129213255Y-70035922D01*
X129306108Y-70040124D01*
X129397280Y-70043035D01*
X129471590Y-70044123D01*
X129496240Y-70044059D01*
X129550169Y-70042704D01*
X129579909Y-70038511D01*
X129591390Y-70030079D01*
X129590540Y-70016008D01*
X129576872Y-69965966D01*
X129559476Y-69887583D01*
X129545280Y-69799568D01*
X129532271Y-69690675D01*
X129529189Y-69662913D01*
X129518568Y-69575864D01*
X129504915Y-69472052D01*
X129489659Y-69362167D01*
X129485995Y-69337166D01*
X129676608Y-69337166D01*
X129676648Y-69431115D01*
X129677530Y-69506317D01*
X129679355Y-69566126D01*
X129682227Y-69613896D01*
X129686249Y-69652984D01*
X129691523Y-69686744D01*
X129698152Y-69718532D01*
X129706239Y-69751702D01*
X129707733Y-69757568D01*
X129733854Y-69845572D01*
X129763235Y-69908380D01*
X129801372Y-69952459D01*
X129853756Y-69984278D01*
X129925883Y-70010303D01*
X129946038Y-70016197D01*
X129979942Y-70024778D01*
X130008697Y-70030079D01*
X130015944Y-70031415D01*
X130058337Y-70036352D01*
X130111409Y-70039837D01*
X130179451Y-70042116D01*
X130266754Y-70043434D01*
X130377607Y-70044038D01*
X130516300Y-70044174D01*
X130994257Y-70044123D01*
X130994257Y-69465755D01*
X132046721Y-69465755D01*
X132046727Y-69477029D01*
X132047045Y-69583217D01*
X132048149Y-69662886D01*
X132050525Y-69721175D01*
X132054663Y-69763222D01*
X132061047Y-69794166D01*
X132070166Y-69819146D01*
X132082507Y-69843300D01*
X132092279Y-69860539D01*
X132140056Y-69930597D01*
X132192214Y-69977488D01*
X132257919Y-70007607D01*
X132346340Y-70027350D01*
X132348519Y-70027688D01*
X132393582Y-70031995D01*
X132465097Y-70035875D01*
X132557786Y-70039172D01*
X132666369Y-70041729D01*
X132785568Y-70043391D01*
X132910101Y-70044001D01*
X133371993Y-70044123D01*
X133371993Y-69444560D01*
X133562031Y-69444560D01*
X133562380Y-69584414D01*
X133583793Y-69708340D01*
X133627353Y-69823739D01*
X133640455Y-69849319D01*
X133692717Y-69925364D01*
X133757918Y-69980267D01*
X133842025Y-70018068D01*
X133951003Y-70042804D01*
X133965043Y-70044974D01*
X134076827Y-70058719D01*
X134186883Y-70066633D01*
X134287776Y-70068546D01*
X134372071Y-70064292D01*
X134432334Y-70053700D01*
X134527307Y-70019908D01*
X134622223Y-69969083D01*
X134696091Y-69904076D01*
X134752516Y-69820573D01*
X134795103Y-69714258D01*
X134827457Y-69580818D01*
X134838244Y-69513896D01*
X134846775Y-69437961D01*
X134850045Y-69375979D01*
X134850045Y-69289031D01*
X134578948Y-69289031D01*
X134307851Y-69289031D01*
X134300801Y-69473219D01*
X134298515Y-69525669D01*
X134293779Y-69593896D01*
X134287087Y-69639963D01*
X134277359Y-69670169D01*
X134263518Y-69690814D01*
X134242759Y-69709213D01*
X134204429Y-69719006D01*
X134167063Y-69696912D01*
X134131101Y-69643090D01*
X134108339Y-69586645D01*
X134096137Y-69496567D01*
X134111891Y-69397374D01*
X134120952Y-69374687D01*
X134139814Y-69345446D01*
X134170143Y-69310132D01*
X134214311Y-69266540D01*
X134274687Y-69212468D01*
X134353644Y-69145712D01*
X134453552Y-69064069D01*
X134576782Y-68965334D01*
X134623867Y-68926901D01*
X134694654Y-68864375D01*
X134745381Y-68812597D01*
X134772593Y-68774926D01*
X134790532Y-68733328D01*
X134824132Y-68618343D01*
X134842297Y-68493601D01*
X134842557Y-68373281D01*
X134839152Y-68334868D01*
X134827699Y-68236831D01*
X134813031Y-68162356D01*
X134793106Y-68104994D01*
X134765881Y-68058298D01*
X134729314Y-68015818D01*
X134698703Y-67986577D01*
X134655813Y-67950696D01*
X134623411Y-67929391D01*
X134564269Y-67905522D01*
X134447665Y-67875242D01*
X135016974Y-67875242D01*
X135022604Y-68529923D01*
X135023302Y-68606559D01*
X135025948Y-68831563D01*
X135029396Y-69027416D01*
X135033872Y-69196385D01*
X135037551Y-69289031D01*
X135039604Y-69340737D01*
X135046820Y-69462739D01*
X135055745Y-69564659D01*
X135066607Y-69648765D01*
X135079632Y-69717323D01*
X135095049Y-69772601D01*
X135113084Y-69816867D01*
X135133963Y-69852387D01*
X135157914Y-69881430D01*
X135214209Y-69929881D01*
X135310006Y-69987100D01*
X135420233Y-70030557D01*
X135440232Y-70035970D01*
X135511422Y-70049765D01*
X135597392Y-70060872D01*
X135685465Y-70067526D01*
X135761555Y-70069400D01*
X135861190Y-70063975D01*
X135944171Y-70046425D01*
X136019240Y-70014588D01*
X136095143Y-69966304D01*
X136099700Y-69963010D01*
X136143197Y-69930703D01*
X136175201Y-69903270D01*
X136203016Y-69872796D01*
X136233949Y-69831360D01*
X136275306Y-69771045D01*
X136335091Y-69682725D01*
X136341575Y-68778983D01*
X136348058Y-67875242D01*
X136057567Y-67875242D01*
X135767075Y-67875242D01*
X135762418Y-68768322D01*
X135757761Y-69661402D01*
X135718914Y-69692849D01*
X135695450Y-69710208D01*
X135675219Y-69714521D01*
X135654747Y-69698975D01*
X135653877Y-69698049D01*
X135647059Y-69686028D01*
X135640947Y-69664844D01*
X135635441Y-69632411D01*
X135630440Y-69586640D01*
X135625845Y-69525443D01*
X135621554Y-69446733D01*
X135617468Y-69348420D01*
X135613485Y-69228419D01*
X135609506Y-69084640D01*
X135605429Y-68914995D01*
X135601156Y-68717397D01*
X135596584Y-68489758D01*
X135584579Y-67875242D01*
X135300776Y-67875242D01*
X135016974Y-67875242D01*
X134447665Y-67875242D01*
X134440722Y-67873439D01*
X134305703Y-67856960D01*
X134167202Y-67855940D01*
X134033210Y-67870234D01*
X133911716Y-67899695D01*
X133810712Y-67944179D01*
X133804372Y-67947968D01*
X133731853Y-68001576D01*
X133678482Y-68065376D01*
X133641821Y-68144502D01*
X133619432Y-68244087D01*
X133608879Y-68369265D01*
X133603084Y-68517873D01*
X133863328Y-68517873D01*
X134123572Y-68517873D01*
X134129585Y-68398801D01*
X134137697Y-68322350D01*
X134157156Y-68259931D01*
X134188549Y-68224086D01*
X134233091Y-68212624D01*
X134249612Y-68214733D01*
X134286723Y-68239683D01*
X134311105Y-68288927D01*
X134319874Y-68357645D01*
X134309212Y-68429424D01*
X134271092Y-68507645D01*
X134203931Y-68585550D01*
X134106296Y-68665198D01*
X134076464Y-68686617D01*
X133962313Y-68769801D01*
X133871151Y-68838873D01*
X133799798Y-68896655D01*
X133745079Y-68945969D01*
X133734443Y-68957225D01*
X133703816Y-68989636D01*
X133672832Y-69030476D01*
X133648951Y-69071312D01*
X133627862Y-69113314D01*
X133607587Y-69158698D01*
X133593401Y-69201575D01*
X133583121Y-69250578D01*
X133574570Y-69314339D01*
X133565565Y-69401491D01*
X133562031Y-69444560D01*
X133371993Y-69444560D01*
X133371993Y-68957225D01*
X133371993Y-67870328D01*
X132910101Y-67881570D01*
X132893559Y-67881982D01*
X132772205Y-67885587D01*
X132659033Y-67889919D01*
X132558833Y-67894723D01*
X132476392Y-67899746D01*
X132416501Y-67904735D01*
X132383947Y-67909436D01*
X132380005Y-67910513D01*
X132314556Y-67942175D01*
X132248042Y-67996224D01*
X132188528Y-68064894D01*
X132144081Y-68140417D01*
X132122503Y-68199686D01*
X132101704Y-68289244D01*
X132088931Y-68386771D01*
X132084465Y-68484528D01*
X132088586Y-68574779D01*
X132101575Y-68649787D01*
X132123712Y-68701815D01*
X132161531Y-68749169D01*
X132215321Y-68792939D01*
X132276535Y-68814829D01*
X132287067Y-68817066D01*
X132317478Y-68830087D01*
X132318828Y-68848669D01*
X132290539Y-68874015D01*
X132232032Y-68907328D01*
X132193841Y-68927817D01*
X132147367Y-68955516D01*
X132141538Y-68959682D01*
X132118129Y-68976412D01*
X132109323Y-68985294D01*
X132087947Y-69018204D01*
X132071646Y-69065191D01*
X132059898Y-69129848D01*
X132057865Y-69152472D01*
X132052177Y-69215766D01*
X132047959Y-69326537D01*
X132046721Y-69465755D01*
X130994257Y-69465755D01*
X130994257Y-68967715D01*
X131170981Y-68967715D01*
X131170981Y-69152472D01*
X131170981Y-69337228D01*
X131540494Y-69337228D01*
X131910007Y-69337228D01*
X131910007Y-69152472D01*
X131910007Y-68967715D01*
X131540494Y-68967715D01*
X131170981Y-68967715D01*
X130994257Y-68967715D01*
X130994257Y-68959682D01*
X130994257Y-67875242D01*
X130773353Y-67875640D01*
X130741958Y-67875818D01*
X130635986Y-67877567D01*
X130514997Y-67880857D01*
X130391600Y-67885309D01*
X130278402Y-67890543D01*
X130258193Y-67891649D01*
X130129644Y-67901094D01*
X130027582Y-67914122D01*
X129947104Y-67932121D01*
X129883309Y-67956477D01*
X129831295Y-67988577D01*
X129786159Y-68029808D01*
X129765110Y-68052773D01*
X129746367Y-68076044D01*
X129730921Y-68101201D01*
X129718411Y-68131268D01*
X129708472Y-68169268D01*
X129700744Y-68218228D01*
X129694862Y-68281170D01*
X129690466Y-68361120D01*
X129687192Y-68461102D01*
X129684678Y-68584141D01*
X129682561Y-68733260D01*
X129680478Y-68911485D01*
X129678638Y-69079601D01*
X129677305Y-69221113D01*
X129676608Y-69337166D01*
X129485995Y-69337166D01*
X129474231Y-69256899D01*
X129469326Y-69224075D01*
X129452942Y-69109598D01*
X129436687Y-68989655D01*
X129422211Y-68876642D01*
X129411162Y-68782959D01*
X129402713Y-68707664D01*
X129389486Y-68593684D01*
X129375831Y-68479549D01*
X129363646Y-68381314D01*
X129355638Y-68317637D01*
X129343445Y-68218300D01*
X129332021Y-68122784D01*
X129323060Y-68045109D01*
X129319464Y-68014584D01*
X129311242Y-67954879D01*
X129303627Y-67911618D01*
X129297898Y-67892567D01*
X129296099Y-67891717D01*
X129270436Y-67888360D01*
X129219485Y-67885263D01*
X129148745Y-67882502D01*
X129063716Y-67880156D01*
X128969896Y-67878301D01*
X128872786Y-67877013D01*
X128777885Y-67876372D01*
X128690694Y-67876452D01*
X128616710Y-67877333D01*
X128561435Y-67879090D01*
X128530367Y-67881801D01*
X128476534Y-67891900D01*
X128456671Y-68064311D01*
X128449898Y-68118407D01*
X128438756Y-68201140D01*
X128424150Y-68305990D01*
X128406800Y-68428041D01*
X128387429Y-68562374D01*
X128366757Y-68704074D01*
X128345506Y-68848223D01*
X128324397Y-68989906D01*
X128315021Y-69052102D01*
X128304151Y-69124203D01*
X128285489Y-69246200D01*
X128269133Y-69350979D01*
X128255805Y-69433623D01*
X128254468Y-69441771D01*
X128242119Y-69522992D01*
X128230867Y-69606209D01*
X128222998Y-69674610D01*
X128221953Y-69685050D01*
X128212053Y-69769888D01*
X128199540Y-69860349D01*
X128186255Y-69943891D01*
X128174040Y-70007975D01*
X128166067Y-70044123D01*
X127588764Y-70044123D01*
X127646164Y-70017456D01*
X127726842Y-69975474D01*
X127790625Y-69935798D01*
X127844174Y-69894292D01*
X127894149Y-69846819D01*
X127896154Y-69844758D01*
X127929957Y-69809611D01*
X127955588Y-69779665D01*
X127974726Y-69749615D01*
X127989050Y-69714156D01*
X128000242Y-69667984D01*
X128009980Y-69605795D01*
X128019946Y-69522284D01*
X128031819Y-69412146D01*
X128036717Y-69363700D01*
X128044651Y-69264996D01*
X128049645Y-69163576D01*
X128051893Y-69052102D01*
X128051591Y-68923241D01*
X128048934Y-68769656D01*
X128046709Y-68684858D01*
X128043047Y-68581570D01*
X128038795Y-68492043D01*
X128034215Y-68420868D01*
X128029569Y-68372639D01*
X128025118Y-68351946D01*
X128017503Y-68337187D01*
X128003509Y-68296920D01*
X127989507Y-68244755D01*
X127978110Y-68203839D01*
X127926066Y-68092678D01*
X127849339Y-67999878D01*
X127751072Y-67928650D01*
X127634411Y-67882206D01*
X127544053Y-67864686D01*
X127429105Y-67855272D01*
X127311924Y-67856914D01*
X127203387Y-67869399D01*
X127114371Y-67892509D01*
X127079731Y-67906303D01*
X126959232Y-67969593D01*
X126862866Y-68046630D01*
X126793045Y-68135149D01*
X126752183Y-68232879D01*
X126750513Y-68241306D01*
X126745961Y-68287607D01*
X126742514Y-68360182D01*
X126740122Y-68454590D01*
X126738734Y-68566392D01*
X126738297Y-68691148D01*
X126738761Y-68824418D01*
X126740075Y-68961763D01*
X126742186Y-69098742D01*
X126745044Y-69230917D01*
X126748597Y-69353846D01*
X126752794Y-69463091D01*
X126757584Y-69554212D01*
X126762915Y-69622769D01*
X126768736Y-69664323D01*
X126777741Y-69699567D01*
X126792933Y-69738154D01*
X126816199Y-69771037D01*
X126852600Y-69803442D01*
X126907194Y-69840594D01*
X126985040Y-69887717D01*
X127002295Y-69898132D01*
X127038518Y-69924259D01*
X127054015Y-69947562D01*
X127055169Y-69976078D01*
X127049485Y-69999947D01*
X127029084Y-70022094D01*
X126985845Y-70038979D01*
X126974969Y-70042044D01*
X126912073Y-70056669D01*
X126849286Y-70067563D01*
X126828301Y-70070537D01*
X126777840Y-70082232D01*
X126748551Y-70103006D01*
X126733373Y-70140543D01*
X126725242Y-70202527D01*
X126716297Y-70301175D01*
X126463707Y-70301175D01*
X126463707Y-65409145D01*
X126463707Y-60709904D01*
X126785022Y-60709904D01*
X126785022Y-64035521D01*
X126785022Y-67361137D01*
X131612790Y-67361137D01*
X136440557Y-67361137D01*
X136440557Y-64035521D01*
X136440557Y-60709904D01*
X131612790Y-60709904D01*
X126785022Y-60709904D01*
X126463707Y-60709904D01*
X126463707Y-60308259D01*
X131620823Y-60308259D01*
X136777938Y-60308259D01*
X136777938Y-64035521D01*
X136777938Y-65409145D01*
G37*
G36*
X136295571Y-64611862D02*
G01*
X136295301Y-64908063D01*
X136294942Y-65192980D01*
X136294499Y-65465011D01*
X136293978Y-65722550D01*
X136293383Y-65963995D01*
X136292719Y-66187742D01*
X136291993Y-66392187D01*
X136291208Y-66575725D01*
X136290553Y-66701741D01*
X136290371Y-66736755D01*
X136289485Y-66873672D01*
X136288558Y-66984871D01*
X136287592Y-67068751D01*
X136286595Y-67123706D01*
X136285570Y-67148133D01*
X136275455Y-67232345D01*
X135373977Y-67236776D01*
X135313207Y-67237008D01*
X135214365Y-67237242D01*
X135089596Y-67237423D01*
X134940514Y-67237554D01*
X134768730Y-67237637D01*
X134575857Y-67237674D01*
X134363509Y-67237667D01*
X134133298Y-67237617D01*
X133886836Y-67237528D01*
X133625737Y-67237400D01*
X133351613Y-67237236D01*
X133066076Y-67237038D01*
X132770740Y-67236807D01*
X132467218Y-67236546D01*
X132157122Y-67236257D01*
X131842064Y-67235942D01*
X131523658Y-67235602D01*
X131203516Y-67235240D01*
X130883251Y-67234858D01*
X130564475Y-67234457D01*
X130248802Y-67234040D01*
X129937844Y-67233609D01*
X129633215Y-67233165D01*
X129336525Y-67232711D01*
X129049389Y-67232248D01*
X128773419Y-67231779D01*
X128510228Y-67231305D01*
X128261428Y-67230829D01*
X128028633Y-67230353D01*
X127813455Y-67229878D01*
X127617506Y-67229406D01*
X127442400Y-67228940D01*
X127289749Y-67228482D01*
X127161166Y-67228032D01*
X127058263Y-67227595D01*
X126982654Y-67227170D01*
X126935951Y-67226761D01*
X126919767Y-67226370D01*
X126919694Y-67224250D01*
X126919423Y-67197107D01*
X126919054Y-67139909D01*
X126918595Y-67054186D01*
X126918050Y-66941466D01*
X126917426Y-66803278D01*
X126916729Y-66641151D01*
X126915965Y-66456613D01*
X126915140Y-66251193D01*
X126914261Y-66026420D01*
X126913333Y-65783823D01*
X126912362Y-65524930D01*
X126911355Y-65251270D01*
X126910974Y-65145731D01*
X127829298Y-65145731D01*
X127829298Y-65932118D01*
X127829298Y-66718506D01*
X131608773Y-66717419D01*
X131920321Y-66717292D01*
X132305476Y-66717026D01*
X132672158Y-66716649D01*
X133019456Y-66716163D01*
X133346460Y-66715573D01*
X133652259Y-66714882D01*
X133935943Y-66714095D01*
X134196601Y-66713215D01*
X134433323Y-66712246D01*
X134645197Y-66711191D01*
X134831314Y-66710055D01*
X134990763Y-66708841D01*
X135122634Y-66707554D01*
X135226015Y-66706196D01*
X135299996Y-66704772D01*
X135343667Y-66703286D01*
X135356117Y-66701741D01*
X135353527Y-66700680D01*
X135336144Y-66695343D01*
X135305173Y-66687528D01*
X135258822Y-66676861D01*
X135195296Y-66662967D01*
X135112801Y-66645473D01*
X135009545Y-66624005D01*
X134883733Y-66598190D01*
X134733571Y-66567654D01*
X134557266Y-66532023D01*
X134353024Y-66490923D01*
X134119051Y-66443981D01*
X134064772Y-66433089D01*
X133898999Y-66399666D01*
X133726412Y-66364658D01*
X133550493Y-66328788D01*
X133374725Y-66292777D01*
X133202592Y-66257346D01*
X133037576Y-66223216D01*
X132883159Y-66191110D01*
X132742826Y-66161749D01*
X132620059Y-66135854D01*
X132518340Y-66114147D01*
X132441153Y-66097350D01*
X132391980Y-66086183D01*
X132347378Y-66075960D01*
X132264932Y-66058037D01*
X132162371Y-66036486D01*
X132046246Y-66012661D01*
X131923109Y-65987919D01*
X131799509Y-65963614D01*
X131711480Y-65946348D01*
X131584221Y-65920877D01*
X131460545Y-65895582D01*
X131347447Y-65871914D01*
X131251926Y-65851326D01*
X131180977Y-65835269D01*
X131143188Y-65826661D01*
X131066477Y-65809986D01*
X130965563Y-65788643D01*
X130844710Y-65763511D01*
X130708182Y-65735471D01*
X130560245Y-65705401D01*
X130405162Y-65674181D01*
X130247198Y-65642690D01*
X130135879Y-65620551D01*
X129978433Y-65589036D01*
X129826370Y-65558376D01*
X129684048Y-65529460D01*
X129555824Y-65503180D01*
X129446056Y-65480425D01*
X129359101Y-65462085D01*
X129299317Y-65449052D01*
X129214568Y-65430523D01*
X129112956Y-65409446D01*
X129016934Y-65390582D01*
X128939342Y-65376519D01*
X128912408Y-65371834D01*
X128818550Y-65354063D01*
X128717206Y-65333227D01*
X128626060Y-65312917D01*
X128592809Y-65305330D01*
X128507165Y-65286950D01*
X128404909Y-65266110D01*
X128296096Y-65244835D01*
X128190778Y-65225153D01*
X128121414Y-65212333D01*
X128033865Y-65195511D01*
X127959187Y-65180438D01*
X127903639Y-65168387D01*
X127873479Y-65160629D01*
X127829298Y-65145731D01*
X126910974Y-65145731D01*
X126910318Y-64964372D01*
X126909256Y-64665765D01*
X126908278Y-64386202D01*
X127896362Y-64386202D01*
X127899840Y-64531310D01*
X127931507Y-64671629D01*
X127974909Y-64785753D01*
X128033097Y-64899237D01*
X128101314Y-64988938D01*
X128184020Y-65059409D01*
X128285676Y-65115205D01*
X128410743Y-65160879D01*
X128442484Y-65169143D01*
X128559947Y-65179746D01*
X128690671Y-65163869D01*
X128831306Y-65121826D01*
X128887313Y-65101927D01*
X128964073Y-65082673D01*
X129023321Y-65081744D01*
X129070839Y-65099431D01*
X129112406Y-65136027D01*
X129140854Y-65165789D01*
X129169630Y-65186806D01*
X129192640Y-65189397D01*
X129210478Y-65171609D01*
X129223744Y-65131491D01*
X129231558Y-65077302D01*
X129356640Y-65077302D01*
X129360101Y-65093007D01*
X129375834Y-65105099D01*
X129406677Y-65114046D01*
X129455467Y-65120316D01*
X129525039Y-65124377D01*
X129618231Y-65126699D01*
X129737880Y-65127748D01*
X129886822Y-65127994D01*
X129977355Y-65127950D01*
X130102503Y-65127483D01*
X130200529Y-65126106D01*
X130274553Y-65123340D01*
X130327691Y-65118706D01*
X130363061Y-65111724D01*
X130383781Y-65101915D01*
X130392968Y-65088800D01*
X130393740Y-65071898D01*
X130389214Y-65050731D01*
X130385224Y-65039723D01*
X130362323Y-65017748D01*
X130315759Y-65005039D01*
X130308373Y-65003676D01*
X130254056Y-64985336D01*
X130209218Y-64958355D01*
X130166869Y-64921935D01*
X130162883Y-64105198D01*
X130158897Y-63288462D01*
X130365694Y-63890928D01*
X130369089Y-63900820D01*
X130417380Y-64041903D01*
X130464607Y-64180522D01*
X130509200Y-64312027D01*
X130549591Y-64431765D01*
X130584209Y-64535085D01*
X130611485Y-64617334D01*
X130629849Y-64673862D01*
X130630212Y-64675004D01*
X130663857Y-64773928D01*
X130699731Y-64867776D01*
X130735791Y-64952308D01*
X130769993Y-65023280D01*
X130800297Y-65076452D01*
X130824658Y-65107580D01*
X130841034Y-65112424D01*
X130841624Y-65111919D01*
X130856282Y-65092357D01*
X130876177Y-65054319D01*
X130901810Y-64996458D01*
X130933684Y-64917424D01*
X130972302Y-64815868D01*
X131018166Y-64690442D01*
X131071778Y-64539797D01*
X131133641Y-64362584D01*
X131204258Y-64157454D01*
X131284131Y-63923060D01*
X131488599Y-63320593D01*
X131499615Y-63457152D01*
X131500086Y-63463651D01*
X131502331Y-63515902D01*
X131504140Y-63595027D01*
X131505480Y-63696606D01*
X131506316Y-63816221D01*
X131506618Y-63949451D01*
X131506350Y-64091878D01*
X131505480Y-64239083D01*
X131500329Y-64884455D01*
X131462046Y-64925187D01*
X131451973Y-64934807D01*
X131406549Y-64967477D01*
X131354468Y-64994580D01*
X131327818Y-65007575D01*
X131288126Y-65039361D01*
X131272639Y-65073137D01*
X131284738Y-65103618D01*
X131300841Y-65108547D01*
X131346050Y-65113990D01*
X131415644Y-65118760D01*
X131505430Y-65122581D01*
X131611213Y-65125176D01*
X131664333Y-65126012D01*
X131760703Y-65126972D01*
X131831435Y-65126482D01*
X131880992Y-65124268D01*
X131913835Y-65120056D01*
X131934427Y-65113572D01*
X131947229Y-65104542D01*
X131962072Y-65077988D01*
X131958409Y-65041473D01*
X131934428Y-65011730D01*
X131895378Y-64999407D01*
X131877192Y-64998230D01*
X131814938Y-64976624D01*
X131765512Y-64933361D01*
X131738171Y-64875724D01*
X131736248Y-64856216D01*
X131733995Y-64805468D01*
X131731913Y-64728137D01*
X131730042Y-64627288D01*
X131728423Y-64505987D01*
X131727094Y-64367300D01*
X131726096Y-64214293D01*
X131725468Y-64050031D01*
X131725250Y-63877582D01*
X131725271Y-63700908D01*
X131725393Y-63530372D01*
X131725699Y-63387267D01*
X131726270Y-63269103D01*
X131727189Y-63173391D01*
X131728537Y-63097642D01*
X131730396Y-63039368D01*
X131732849Y-62996081D01*
X131735978Y-62965290D01*
X131739863Y-62944508D01*
X131744589Y-62931245D01*
X131750235Y-62923013D01*
X131756885Y-62917322D01*
X131762846Y-62913375D01*
X131803552Y-62894145D01*
X131853280Y-62878101D01*
X131918022Y-62858818D01*
X131957037Y-62837736D01*
X131969587Y-62813131D01*
X131958548Y-62782390D01*
X131957862Y-62781391D01*
X131954607Y-62779044D01*
X132026616Y-62779044D01*
X132030240Y-62811171D01*
X132030729Y-62813131D01*
X132030981Y-62814141D01*
X132038952Y-62843569D01*
X132049977Y-62859023D01*
X132073522Y-62867351D01*
X132119053Y-62875397D01*
X132177946Y-62894117D01*
X132221683Y-62932332D01*
X132228476Y-62941995D01*
X132235063Y-62954389D01*
X132240529Y-62970915D01*
X132245005Y-62994373D01*
X132248624Y-63027564D01*
X132251516Y-63073286D01*
X132253814Y-63134340D01*
X132255649Y-63213526D01*
X132257153Y-63313643D01*
X132258459Y-63437492D01*
X132259697Y-63587872D01*
X132261000Y-63767583D01*
X132261853Y-63920850D01*
X132262265Y-64081213D01*
X132262185Y-64233987D01*
X132261636Y-64375082D01*
X132260644Y-64500408D01*
X132259232Y-64605874D01*
X132257424Y-64687391D01*
X132255245Y-64740868D01*
X132249825Y-64812449D01*
X132239288Y-64887534D01*
X132222666Y-64939241D01*
X132197133Y-64972640D01*
X132159858Y-64992804D01*
X132108013Y-65004803D01*
X132063193Y-65019295D01*
X132033351Y-65045877D01*
X132027745Y-65077493D01*
X132049887Y-65107911D01*
X132054951Y-65110626D01*
X132079294Y-65116386D01*
X132122562Y-65120854D01*
X132187395Y-65124141D01*
X132276432Y-65126354D01*
X132392312Y-65127602D01*
X132537676Y-65127994D01*
X132624137Y-65127965D01*
X132746612Y-65127555D01*
X132842065Y-65126205D01*
X132913706Y-65123360D01*
X132964745Y-65118461D01*
X132998393Y-65110952D01*
X133017860Y-65100273D01*
X133026357Y-65085868D01*
X133027094Y-65067179D01*
X133023281Y-65043648D01*
X133016565Y-65019910D01*
X132998226Y-65003284D01*
X132959386Y-64999467D01*
X132954634Y-64999438D01*
X132892012Y-64989992D01*
X132850850Y-64960620D01*
X132824715Y-64906900D01*
X132822407Y-64896574D01*
X132817139Y-64848869D01*
X132812388Y-64769431D01*
X132808162Y-64658540D01*
X132804471Y-64516476D01*
X132801325Y-64343519D01*
X132798733Y-64139948D01*
X132798614Y-64128526D01*
X132798493Y-64111728D01*
X133206406Y-64111728D01*
X133212093Y-64263373D01*
X133240134Y-64409097D01*
X133292426Y-64561198D01*
X133354984Y-64694523D01*
X133452970Y-64848155D01*
X133567509Y-64975663D01*
X133697510Y-65076241D01*
X133841877Y-65149082D01*
X133999518Y-65193378D01*
X134169339Y-65208323D01*
X134176125Y-65208311D01*
X134276246Y-65204783D01*
X134368048Y-65193556D01*
X134460605Y-65172603D01*
X134562992Y-65139901D01*
X134684284Y-65093425D01*
X134699040Y-65087508D01*
X134773567Y-65058981D01*
X134837807Y-65036539D01*
X134885322Y-65022323D01*
X134909677Y-65018473D01*
X134930345Y-65030884D01*
X134964131Y-65062644D01*
X135001798Y-65106095D01*
X135035707Y-65145798D01*
X135074599Y-65184594D01*
X135103837Y-65206454D01*
X135108338Y-65208636D01*
X135140260Y-65221939D01*
X135156275Y-65218425D01*
X135167848Y-65196273D01*
X135169132Y-65189709D01*
X135171638Y-65154383D01*
X135173788Y-65093491D01*
X135175580Y-65011156D01*
X135177013Y-64911499D01*
X135178085Y-64798640D01*
X135178793Y-64676700D01*
X135179136Y-64549801D01*
X135179112Y-64422063D01*
X135178718Y-64297607D01*
X135177954Y-64180555D01*
X135176816Y-64075027D01*
X135175303Y-63985145D01*
X135173412Y-63915028D01*
X135171143Y-63868799D01*
X135168492Y-63850579D01*
X135146905Y-63845961D01*
X135109808Y-63850169D01*
X135092694Y-63854945D01*
X135071012Y-63867418D01*
X135053098Y-63890585D01*
X135036335Y-63929628D01*
X135018108Y-63989731D01*
X134995800Y-64076077D01*
X134991970Y-64091099D01*
X134951119Y-64224154D01*
X134899085Y-64356843D01*
X134839105Y-64482890D01*
X134774416Y-64596022D01*
X134708253Y-64689964D01*
X134643854Y-64758440D01*
X134630342Y-64769438D01*
X134573599Y-64809378D01*
X134503563Y-64852454D01*
X134432334Y-64891078D01*
X134391399Y-64911195D01*
X134333796Y-64936689D01*
X134287203Y-64951102D01*
X134240687Y-64957394D01*
X134183315Y-64958529D01*
X134153891Y-64958005D01*
X134093353Y-64952663D01*
X134045172Y-64938868D01*
X133995209Y-64913213D01*
X133955579Y-64887482D01*
X133864799Y-64804753D01*
X133798784Y-64706515D01*
X133758280Y-64597258D01*
X133744035Y-64481469D01*
X133756797Y-64363635D01*
X133797315Y-64248246D01*
X133866335Y-64139790D01*
X133873026Y-64131756D01*
X133925918Y-64077067D01*
X133999429Y-64010963D01*
X134087810Y-63938050D01*
X134185310Y-63862934D01*
X134286179Y-63790223D01*
X134384667Y-63724524D01*
X134453879Y-63677888D01*
X134549679Y-63607750D01*
X134649997Y-63529517D01*
X134744801Y-63451050D01*
X134824056Y-63380212D01*
X134839239Y-63365361D01*
X134902655Y-63294673D01*
X134967867Y-63210574D01*
X135028648Y-63121998D01*
X135078771Y-63037878D01*
X135112009Y-62967146D01*
X135132914Y-62909029D01*
X135149059Y-62856465D01*
X135160012Y-62805918D01*
X135166566Y-62750562D01*
X135169516Y-62683572D01*
X135169653Y-62598124D01*
X135167772Y-62487393D01*
X135167029Y-62453952D01*
X135163209Y-62340888D01*
X135156625Y-62251476D01*
X135145515Y-62178964D01*
X135128119Y-62116600D01*
X135102677Y-62057631D01*
X135067429Y-61995305D01*
X135020615Y-61922870D01*
X134995667Y-61887674D01*
X134903799Y-61783460D01*
X134795038Y-61690018D01*
X134675484Y-61611016D01*
X134551234Y-61550122D01*
X134428388Y-61511003D01*
X134313043Y-61497327D01*
X134243797Y-61503116D01*
X134142555Y-61523590D01*
X134029814Y-61556402D01*
X133914173Y-61598993D01*
X133804232Y-61648801D01*
X133763111Y-61668951D01*
X133702801Y-61696303D01*
X133655484Y-61715075D01*
X133628866Y-61722048D01*
X133625462Y-61721922D01*
X133589239Y-61703395D01*
X133557380Y-61654404D01*
X133530806Y-61576318D01*
X133527742Y-61565047D01*
X133506808Y-61514105D01*
X133482303Y-61491910D01*
X133464700Y-61489965D01*
X133440764Y-61502438D01*
X133421498Y-61538422D01*
X133403846Y-61602212D01*
X133403768Y-61602559D01*
X133396952Y-61647282D01*
X133389882Y-61718753D01*
X133382833Y-61811653D01*
X133376080Y-61920666D01*
X133369898Y-62040474D01*
X133368828Y-62065587D01*
X133364560Y-62165761D01*
X133360342Y-62291209D01*
X133357518Y-62411502D01*
X133356364Y-62521321D01*
X133355927Y-62718126D01*
X133424358Y-62718126D01*
X133439517Y-62717923D01*
X133474650Y-62713416D01*
X133499917Y-62698884D01*
X133519343Y-62668954D01*
X133536957Y-62618251D01*
X133556784Y-62541403D01*
X133585020Y-62442181D01*
X133653072Y-62276052D01*
X133748425Y-62111002D01*
X133821584Y-62011319D01*
X133919555Y-61911207D01*
X134023904Y-61841078D01*
X134136382Y-61799817D01*
X134258738Y-61786311D01*
X134266871Y-61786330D01*
X134361515Y-61790773D01*
X134433412Y-61804667D01*
X134490607Y-61830407D01*
X134541144Y-61870388D01*
X134544835Y-61873953D01*
X134603024Y-61939904D01*
X134639997Y-62007897D01*
X134659456Y-62087419D01*
X134665104Y-62187956D01*
X134663715Y-62259163D01*
X134658151Y-62310690D01*
X134646441Y-62350465D01*
X134626611Y-62388778D01*
X134620706Y-62398360D01*
X134558426Y-62480724D01*
X134474726Y-62567971D01*
X134376816Y-62653178D01*
X134271906Y-62729419D01*
X134233288Y-62755075D01*
X134179312Y-62792242D01*
X134165705Y-62802167D01*
X134139092Y-62821578D01*
X134119281Y-62838337D01*
X134116161Y-62841476D01*
X134090596Y-62862330D01*
X134045560Y-62896383D01*
X133986341Y-62939688D01*
X133918229Y-62988303D01*
X133837723Y-63046194D01*
X133683202Y-63165766D01*
X133555269Y-63279308D01*
X133451515Y-63390384D01*
X133369528Y-63502557D01*
X133306897Y-63619390D01*
X133261213Y-63744445D01*
X133230063Y-63881285D01*
X133211039Y-64033474D01*
X133206406Y-64111728D01*
X132798493Y-64111728D01*
X132796946Y-63897247D01*
X132796871Y-63686555D01*
X132798346Y-63497890D01*
X132801323Y-63332692D01*
X132805760Y-63192403D01*
X132811610Y-63078460D01*
X132818828Y-62992306D01*
X132827371Y-62935379D01*
X132837191Y-62909120D01*
X132846312Y-62902975D01*
X132882600Y-62888947D01*
X132931479Y-62876953D01*
X132946470Y-62874177D01*
X132987125Y-62866117D01*
X133007797Y-62858008D01*
X133017527Y-62844318D01*
X133025355Y-62819516D01*
X133029195Y-62802167D01*
X133026874Y-62784163D01*
X133013700Y-62770142D01*
X132986634Y-62759627D01*
X132942638Y-62752143D01*
X132878673Y-62747214D01*
X132791699Y-62744365D01*
X132678679Y-62743118D01*
X132536572Y-62743000D01*
X132430630Y-62743558D01*
X132322046Y-62744926D01*
X132226401Y-62746959D01*
X132148493Y-62749527D01*
X132093121Y-62752500D01*
X132065082Y-62755748D01*
X132042909Y-62762797D01*
X132026616Y-62779044D01*
X131954607Y-62779044D01*
X131947565Y-62773967D01*
X131926635Y-62768101D01*
X131891489Y-62763547D01*
X131838544Y-62760061D01*
X131764216Y-62757397D01*
X131664923Y-62755311D01*
X131537082Y-62753556D01*
X131130816Y-62748821D01*
X130897521Y-63449625D01*
X130855718Y-63574616D01*
X130810163Y-63709436D01*
X130768284Y-63831920D01*
X130731141Y-63939037D01*
X130699796Y-64027757D01*
X130675310Y-64095049D01*
X130658744Y-64137880D01*
X130651160Y-64153221D01*
X130645413Y-64147597D01*
X130630931Y-64117592D01*
X130611766Y-64067388D01*
X130590510Y-64003389D01*
X130578908Y-63966573D01*
X130556023Y-63894815D01*
X130525887Y-63800928D01*
X130490041Y-63689696D01*
X130450029Y-63565900D01*
X130407391Y-63434323D01*
X130363668Y-63299746D01*
X130184410Y-62748727D01*
X129786819Y-62753509D01*
X129742026Y-62754123D01*
X129621330Y-62756647D01*
X129521173Y-62760109D01*
X129444453Y-62764359D01*
X129394067Y-62769250D01*
X129372914Y-62774634D01*
X129365453Y-62786398D01*
X129364256Y-62818992D01*
X129379096Y-62849335D01*
X129404670Y-62862718D01*
X129421116Y-62865007D01*
X129443909Y-62878784D01*
X129462433Y-62889633D01*
X129498598Y-62894850D01*
X129507643Y-62894999D01*
X129532642Y-62897943D01*
X129554045Y-62906359D01*
X129572108Y-62922468D01*
X129587086Y-62948491D01*
X129599236Y-62986649D01*
X129608812Y-63039165D01*
X129616071Y-63108259D01*
X129621268Y-63196152D01*
X129624660Y-63305066D01*
X129626501Y-63437222D01*
X129627047Y-63594842D01*
X129626555Y-63780146D01*
X129625279Y-63995356D01*
X129625140Y-64015484D01*
X129623760Y-64201938D01*
X129622350Y-64359217D01*
X129620813Y-64490013D01*
X129619051Y-64597017D01*
X129616965Y-64682920D01*
X129616009Y-64708664D01*
X129614459Y-64750413D01*
X129611435Y-64802188D01*
X129607794Y-64840934D01*
X129603439Y-64869345D01*
X129598273Y-64890109D01*
X129592197Y-64905920D01*
X129590403Y-64909780D01*
X129571197Y-64944134D01*
X129547461Y-64965608D01*
X129510065Y-64979722D01*
X129449880Y-64991999D01*
X129406249Y-65006395D01*
X129369988Y-65042668D01*
X129362616Y-65057515D01*
X129356640Y-65077302D01*
X129231558Y-65077302D01*
X129233031Y-65067090D01*
X129238939Y-64976453D01*
X129242062Y-64857629D01*
X129242997Y-64708664D01*
X129242917Y-64660867D01*
X129241314Y-64524961D01*
X129237492Y-64418418D01*
X129231242Y-64339162D01*
X129222351Y-64285120D01*
X129210610Y-64254216D01*
X129195808Y-64244376D01*
X129174083Y-64255695D01*
X129147554Y-64294686D01*
X129117409Y-64362767D01*
X129082957Y-64461264D01*
X129075455Y-64483823D01*
X129008842Y-64640542D01*
X128925484Y-64771443D01*
X128826082Y-64875596D01*
X128711341Y-64952074D01*
X128699548Y-64957918D01*
X128653469Y-64975388D01*
X128604990Y-64981670D01*
X128539589Y-64979046D01*
X128503064Y-64975540D01*
X128454214Y-64966050D01*
X128418134Y-64948463D01*
X128382302Y-64917912D01*
X128352406Y-64885099D01*
X128303372Y-64800096D01*
X128283730Y-64706734D01*
X128293984Y-64609319D01*
X128334640Y-64512156D01*
X128352987Y-64482465D01*
X128376684Y-64450166D01*
X128406034Y-64418176D01*
X128445197Y-64382785D01*
X128498333Y-64340283D01*
X128569601Y-64286959D01*
X128663161Y-64219103D01*
X128779789Y-64133067D01*
X128890667Y-64044897D01*
X128980032Y-63964575D01*
X129051516Y-63888166D01*
X129108755Y-63811733D01*
X129155382Y-63731340D01*
X129195032Y-63643052D01*
X129206098Y-63613875D01*
X129219799Y-63567403D01*
X129227746Y-63517655D01*
X129231219Y-63455032D01*
X129231500Y-63369933D01*
X129230381Y-63302917D01*
X129226827Y-63237887D01*
X129219478Y-63188176D01*
X129206802Y-63144329D01*
X129187267Y-63096887D01*
X129184934Y-63091720D01*
X129111687Y-62962027D01*
X129020441Y-62857940D01*
X128908162Y-62776674D01*
X128771820Y-62715448D01*
X128717386Y-62697648D01*
X128671895Y-62688110D01*
X128629952Y-62688522D01*
X128577715Y-62697611D01*
X128560426Y-62701634D01*
X128496537Y-62719990D01*
X128420631Y-62745341D01*
X128345629Y-62773466D01*
X128310352Y-62787293D01*
X128250022Y-62809536D01*
X128203512Y-62824872D01*
X128178745Y-62830587D01*
X128159540Y-62818206D01*
X128145378Y-62784326D01*
X128143784Y-62777237D01*
X128122725Y-62729427D01*
X128091078Y-62697496D01*
X128056327Y-62689421D01*
X128055671Y-62689561D01*
X128038553Y-62705462D01*
X128025416Y-62745286D01*
X128016104Y-62810642D01*
X128010463Y-62903140D01*
X128008338Y-63024390D01*
X128009574Y-63176001D01*
X128012414Y-63294861D01*
X128016887Y-63386381D01*
X128023708Y-63452217D01*
X128033621Y-63495605D01*
X128047369Y-63519783D01*
X128065695Y-63527987D01*
X128089342Y-63523453D01*
X128106714Y-63512343D01*
X128129403Y-63477347D01*
X128150700Y-63415616D01*
X128154704Y-63401526D01*
X128182546Y-63314565D01*
X128213582Y-63242239D01*
X128254053Y-63171836D01*
X128310197Y-63090643D01*
X128354098Y-63033305D01*
X128410013Y-62973518D01*
X128463816Y-62935965D01*
X128522011Y-62916485D01*
X128591100Y-62910916D01*
X128624880Y-62911925D01*
X128705115Y-62927087D01*
X128769144Y-62963801D01*
X128825693Y-63026363D01*
X128851588Y-63069008D01*
X128874842Y-63149441D01*
X128866143Y-63230349D01*
X128825495Y-63309847D01*
X128790669Y-63351381D01*
X128724198Y-63415874D01*
X128632016Y-63494266D01*
X128513369Y-63587192D01*
X128367502Y-63695288D01*
X128365829Y-63696502D01*
X128290991Y-63752588D01*
X128217369Y-63810724D01*
X128153353Y-63864117D01*
X128107333Y-63905972D01*
X128041169Y-63982667D01*
X127968416Y-64105829D01*
X127919684Y-64242358D01*
X127896362Y-64386202D01*
X126908278Y-64386202D01*
X126908176Y-64356977D01*
X126907084Y-64039537D01*
X126897526Y-61238281D01*
X131484099Y-61238281D01*
X131503202Y-61283732D01*
X131548498Y-61345668D01*
X131620210Y-61424831D01*
X131698017Y-61507439D01*
X131924870Y-61771974D01*
X132137277Y-62055247D01*
X132327717Y-62347450D01*
X132359291Y-62398911D01*
X132392267Y-62447480D01*
X132424399Y-62484976D01*
X132464099Y-62520916D01*
X132519777Y-62564819D01*
X132568374Y-62600009D01*
X132614105Y-62629237D01*
X132645016Y-62644640D01*
X132662687Y-62648991D01*
X132677851Y-62641988D01*
X132681164Y-62610506D01*
X132681319Y-62606837D01*
X132692268Y-62565181D01*
X132717812Y-62504876D01*
X132754177Y-62432452D01*
X132797591Y-62354438D01*
X132844280Y-62277365D01*
X132890470Y-62207763D01*
X132932390Y-62152162D01*
X132966266Y-62117091D01*
X133031351Y-62065587D01*
X132944102Y-62002262D01*
X132926448Y-61989797D01*
X132844432Y-61943488D01*
X132773688Y-61926287D01*
X132711404Y-61938614D01*
X132654770Y-61980888D01*
X132600975Y-62053531D01*
X132584026Y-62080775D01*
X132559023Y-62115008D01*
X132541130Y-62127035D01*
X132525520Y-62121187D01*
X132521390Y-62117300D01*
X132497308Y-62091124D01*
X132458756Y-62046836D01*
X132410095Y-61989495D01*
X132355681Y-61924155D01*
X132293082Y-61848571D01*
X132222655Y-61764686D01*
X132164871Y-61697826D01*
X132115476Y-61643333D01*
X132070216Y-61596552D01*
X132024838Y-61552825D01*
X131975088Y-61507495D01*
X131955538Y-61490227D01*
X131888088Y-61433057D01*
X131815676Y-61374630D01*
X131743220Y-61318610D01*
X131675639Y-61268660D01*
X131617852Y-61228446D01*
X131574780Y-61201630D01*
X131551341Y-61191877D01*
X131523598Y-61193852D01*
X131490972Y-61208569D01*
X131484099Y-61238281D01*
X126897526Y-61238281D01*
X126896216Y-60854496D01*
X131596090Y-60854496D01*
X136295965Y-60854496D01*
X136295825Y-63959208D01*
X136295823Y-63992024D01*
X136295747Y-64305981D01*
X136295607Y-64549801D01*
X136295571Y-64611862D01*
G37*
D14*
%TO.C,C29*%
X125813333Y-112578000D02*
X125813333Y-113378000D01*
D10*
X127363333Y-112228000D02*
X124338333Y-112228000D01*
X124338333Y-113728000D01*
X127363333Y-113728000D01*
X127363333Y-112228000D01*
D14*
%TO.C,C15*%
X126590000Y-100833000D02*
X125790000Y-100833000D01*
D10*
X126940000Y-102383000D02*
X125440000Y-102383000D01*
X125440000Y-99358000D01*
X126940000Y-99358000D01*
X126940000Y-102383000D01*
D14*
%TO.C,C18*%
X122590000Y-100833000D02*
X121790000Y-100833000D01*
D10*
X122940000Y-102383000D02*
X121440000Y-102383000D01*
X121440000Y-99358000D01*
X122940000Y-99358000D01*
X122940000Y-102383000D01*
%TO.C,R1*%
X126642500Y-102845500D02*
X123617500Y-102845500D01*
X123617500Y-104345500D01*
X126642500Y-104345500D01*
X126642500Y-102845500D01*
%TO.C,R6*%
X116720000Y-145253000D02*
X119745000Y-145253000D01*
X119745000Y-143753000D01*
X116720000Y-143753000D01*
X116720000Y-145253000D01*
D14*
%TO.C,C16*%
X124590000Y-100833000D02*
X123790000Y-100833000D01*
D10*
X124940000Y-102383000D02*
X123440000Y-102383000D01*
X123440000Y-99358000D01*
X124940000Y-99358000D01*
X124940000Y-102383000D01*
%TO.C,R20*%
X108150265Y-82522643D02*
X111175265Y-82522643D01*
X111175265Y-81022643D01*
X108150265Y-81022643D01*
X108150265Y-82522643D01*
D14*
%TO.C,C3*%
X122340000Y-81413000D02*
X121540000Y-81413000D01*
D10*
X122690000Y-82963000D02*
X121190000Y-82963000D01*
X121190000Y-79938000D01*
X122690000Y-79938000D01*
X122690000Y-82963000D01*
D14*
%TO.C,C4*%
X128850000Y-81413000D02*
X128050000Y-81413000D01*
D10*
X129200000Y-82963000D02*
X127700000Y-82963000D01*
X127700000Y-79938000D01*
X129200000Y-79938000D01*
X129200000Y-82963000D01*
%TO.C,R33*%
X137717500Y-91050500D02*
X136217500Y-91050500D01*
X136217500Y-88025500D01*
X137717500Y-88025500D01*
X137717500Y-91050500D01*
%TO.C,R15*%
X108150265Y-74349786D02*
X111175265Y-74349786D01*
X111175265Y-72849786D01*
X108150265Y-72849786D01*
X108150265Y-74349786D01*
%TO.C,R14*%
X123005000Y-136028000D02*
X124505000Y-136028000D01*
X124505000Y-139053000D01*
X123005000Y-139053000D01*
X123005000Y-136028000D01*
D14*
%TO.C,C36*%
X135248750Y-89500500D02*
X134448750Y-89500500D01*
D10*
X135598750Y-91050500D02*
X134098750Y-91050500D01*
X134098750Y-88025500D01*
X135598750Y-88025500D01*
X135598750Y-91050500D01*
D14*
%TO.C,C31*%
X125813333Y-114480500D02*
X125813333Y-115280500D01*
D10*
X127363333Y-114130500D02*
X124338333Y-114130500D01*
X124338333Y-115630500D01*
X127363333Y-115630500D01*
X127363333Y-114130500D01*
D14*
%TO.C,L1*%
X125850833Y-110808000D02*
X125850833Y-111408000D01*
D10*
X127375833Y-110308000D02*
X124325833Y-110308000D01*
X124325833Y-111908000D01*
X127375833Y-111908000D01*
X127375833Y-110308000D01*
%TO.C,R26*%
X108150265Y-93367286D02*
X111175265Y-93367286D01*
X111175265Y-91867286D01*
X108150265Y-91867286D01*
X108150265Y-93367286D01*
D14*
%TO.C,C30*%
X125813333Y-116383000D02*
X125813333Y-117183000D01*
D10*
X127363333Y-116033000D02*
X124338333Y-116033000D01*
X124338333Y-117533000D01*
X127363333Y-117533000D01*
X127363333Y-116033000D01*
%TO.C,R34*%
X125167500Y-91050500D02*
X123667500Y-91050500D01*
X123667500Y-88025500D01*
X125167500Y-88025500D01*
X125167500Y-91050500D01*
%TO.C,R23*%
X108150265Y-85236929D02*
X111175265Y-85236929D01*
X111175265Y-83736929D01*
X108150265Y-83736929D01*
X108150265Y-85236929D01*
D14*
%TO.C,C34*%
X126911250Y-89500500D02*
X126111250Y-89500500D01*
D10*
X127261250Y-91050500D02*
X125761250Y-91050500D01*
X125761250Y-88025500D01*
X127261250Y-88025500D01*
X127261250Y-91050500D01*
D14*
%TO.C,C37*%
X154795265Y-63755500D02*
X155595265Y-63755500D01*
D10*
X154445265Y-62205500D02*
X155945265Y-62205500D01*
X155945265Y-65230500D01*
X154445265Y-65230500D01*
X154445265Y-62205500D01*
%TO.C,R4*%
X135200000Y-120978000D02*
X133700000Y-120978000D01*
X133700000Y-117953000D01*
X135200000Y-117953000D01*
X135200000Y-120978000D01*
%TO.C,R35*%
X137155000Y-58348000D02*
X135655000Y-58348000D01*
X135655000Y-55323000D01*
X137155000Y-55323000D01*
X137155000Y-58348000D01*
D14*
%TO.C,C17*%
X128590000Y-100833000D02*
X127790000Y-100833000D01*
D10*
X128940000Y-102383000D02*
X127440000Y-102383000D01*
X127440000Y-99358000D01*
X128940000Y-99358000D01*
X128940000Y-102383000D01*
%TO.C,R17*%
X108150265Y-77081572D02*
X111175265Y-77081572D01*
X111175265Y-75581572D01*
X108150265Y-75581572D01*
X108150265Y-77081572D01*
D14*
%TO.C,C25*%
X130925000Y-118663000D02*
X130925000Y-117863000D01*
D10*
X129375000Y-119013000D02*
X132400000Y-119013000D01*
X132400000Y-117513000D01*
X129375000Y-117513000D01*
X129375000Y-119013000D01*
%TO.C,R8*%
X116720000Y-140853000D02*
X119745000Y-140853000D01*
X119745000Y-139353000D01*
X116720000Y-139353000D01*
X116720000Y-140853000D01*
%TO.C,R13*%
X136475000Y-135938000D02*
X137975000Y-135938000D01*
X137975000Y-138963000D01*
X136475000Y-138963000D01*
X136475000Y-135938000D01*
%TO.C,R19*%
X108150265Y-79839786D02*
X111175265Y-79839786D01*
X111175265Y-78339786D01*
X108150265Y-78339786D01*
X108150265Y-79839786D01*
%TO.C,X3*%
X131180000Y-88788000D02*
X130180000Y-88788000D01*
X131180000Y-90288000D02*
X130180000Y-90288000D01*
X133530000Y-87538000D02*
X127830000Y-87538000D01*
X127830000Y-91538000D01*
X133530000Y-91538000D01*
X133530000Y-87538000D01*
%TO.C,R5*%
X116720000Y-143060500D02*
X119745000Y-143060500D01*
X119745000Y-141560500D01*
X116720000Y-141560500D01*
X116720000Y-143060500D01*
D14*
%TO.C,C5*%
X133840000Y-81413000D02*
X133040000Y-81413000D01*
D10*
X134190000Y-82963000D02*
X132690000Y-82963000D01*
X132690000Y-79938000D01*
X134190000Y-79938000D01*
X134190000Y-82963000D01*
D14*
%TO.C,C1*%
X116305000Y-106358000D02*
X116305000Y-107158000D01*
D10*
X117855000Y-106008000D02*
X114830000Y-106008000D01*
X114830000Y-107508000D01*
X117855000Y-107508000D01*
X117855000Y-106008000D01*
%TO.C,R7*%
X116720000Y-138793000D02*
X119745000Y-138793000D01*
X119745000Y-137293000D01*
X116720000Y-137293000D01*
X116720000Y-138793000D01*
D14*
%TO.C,C26*%
X130915000Y-116708000D02*
X130915000Y-115908000D01*
D10*
X129365000Y-117058000D02*
X132390000Y-117058000D01*
X132390000Y-115558000D01*
X129365000Y-115558000D01*
X129365000Y-117058000D01*
%TO.C,R24*%
X108150265Y-87951215D02*
X111175265Y-87951215D01*
X111175265Y-86451215D01*
X108150265Y-86451215D01*
X108150265Y-87951215D01*
%TO.C,R3*%
X117875000Y-88673000D02*
X114850000Y-88673000D01*
X114850000Y-90173000D01*
X117875000Y-90173000D01*
X117875000Y-88673000D01*
D14*
%TO.C,C14*%
X116410265Y-91680500D02*
X116410265Y-90880500D01*
D10*
X114860265Y-92030500D02*
X117885265Y-92030500D01*
X117885265Y-90530500D01*
X114860265Y-90530500D01*
X114860265Y-92030500D01*
%TO.C,R25*%
X108150265Y-90665500D02*
X111175265Y-90665500D01*
X111175265Y-89165500D01*
X108150265Y-89165500D01*
X108150265Y-90665500D01*
%TD*%
D15*
%TO.C,R40*%
X126627500Y-80132500D03*
X126627500Y-78632500D03*
%TD*%
D16*
%TO.C,J9*%
X159840000Y-103693413D03*
D17*
X162380000Y-103693413D03*
X159840000Y-106233413D03*
X162380000Y-106233413D03*
X159840000Y-108773413D03*
X162380000Y-108773413D03*
X159840000Y-111313413D03*
X162380000Y-111313413D03*
X159840000Y-113853413D03*
X162380000Y-113853413D03*
%TD*%
D16*
%TO.C,J7*%
X159840000Y-56600000D03*
D17*
X162380000Y-56600000D03*
X159840000Y-59140000D03*
X162380000Y-59140000D03*
X159840000Y-61680000D03*
X162380000Y-61680000D03*
X159840000Y-64220000D03*
X162380000Y-64220000D03*
X159840000Y-66760000D03*
X162380000Y-66760000D03*
%TD*%
D16*
%TO.C,J3*%
X102193100Y-137400119D03*
D17*
X99653100Y-137400119D03*
X102193100Y-134860119D03*
X99653100Y-134860119D03*
X102193100Y-132320119D03*
X99653100Y-132320119D03*
X102193100Y-129780119D03*
X99653100Y-129780119D03*
X102193100Y-127240119D03*
X99653100Y-127240119D03*
%TD*%
D18*
%TO.C,REF\u002A\u002A*%
X161985335Y-150527591D03*
D19*
X161985335Y-150527591D03*
%TD*%
D16*
%TO.C,J6*%
X102193100Y-66760000D03*
D17*
X99653100Y-66760000D03*
X102193100Y-64220000D03*
X99653100Y-64220000D03*
X102193100Y-61680000D03*
X99653100Y-61680000D03*
X102193100Y-59140000D03*
X99653100Y-59140000D03*
X102193100Y-56600000D03*
X99653100Y-56600000D03*
%TD*%
D16*
%TO.C,J10*%
X159840000Y-127240119D03*
D17*
X162380000Y-127240119D03*
X159840000Y-129780119D03*
X162380000Y-129780119D03*
X159840000Y-132320119D03*
X162380000Y-132320119D03*
X159840000Y-134860119D03*
X162380000Y-134860119D03*
X159840000Y-137400119D03*
X162380000Y-137400119D03*
%TD*%
D20*
%TO.C,J12*%
X144232500Y-49970500D03*
D21*
X144232500Y-52510500D03*
X144232500Y-55050500D03*
%TD*%
D22*
%TO.C,SW1*%
X147615265Y-146210500D03*
X154115265Y-146210500D03*
X147615265Y-150710500D03*
X154115265Y-150710500D03*
%TD*%
D18*
%TO.C,REF\u002A\u002A*%
X99985335Y-43527664D03*
D19*
X99985335Y-43527664D03*
%TD*%
D18*
%TO.C,REF\u002A\u002A*%
X99985335Y-150527591D03*
D19*
X99985335Y-150527591D03*
%TD*%
D16*
%TO.C,J5*%
X102193100Y-90306706D03*
D17*
X99653100Y-90306706D03*
X102193100Y-87766706D03*
X99653100Y-87766706D03*
X102193100Y-85226706D03*
X99653100Y-85226706D03*
X102193100Y-82686706D03*
X99653100Y-82686706D03*
X102193100Y-80146706D03*
X99653100Y-80146706D03*
%TD*%
D23*
%TO.C,J2*%
X129798590Y-48425500D03*
D24*
X132298590Y-48425500D03*
X132298590Y-46425500D03*
X129798590Y-46425500D03*
D25*
X125028590Y-43715500D03*
X137068590Y-43715500D03*
%TD*%
D16*
%TO.C,J8*%
X159840000Y-80146706D03*
D17*
X162380000Y-80146706D03*
X159840000Y-82686706D03*
X162380000Y-82686706D03*
X159840000Y-85226706D03*
X162380000Y-85226706D03*
X159840000Y-87766706D03*
X162380000Y-87766706D03*
X159840000Y-90306706D03*
X162380000Y-90306706D03*
%TD*%
D18*
%TO.C,REF\u002A\u002A*%
X161985335Y-43527664D03*
D19*
X161985335Y-43527664D03*
%TD*%
D16*
%TO.C,J4*%
X102193100Y-113853413D03*
D17*
X99653100Y-113853413D03*
X102193100Y-111313413D03*
X99653100Y-111313413D03*
X102193100Y-108773413D03*
X99653100Y-108773413D03*
X102193100Y-106233413D03*
X99653100Y-106233413D03*
X102193100Y-103693413D03*
X99653100Y-103693413D03*
%TD*%
D26*
%TO.C,J11*%
X124698090Y-153620500D03*
X137398090Y-153620500D03*
D27*
X134598090Y-151080500D03*
D28*
X133578090Y-149300500D03*
X132568090Y-151080500D03*
X131548090Y-149300500D03*
X130538090Y-151080500D03*
X129518090Y-149300500D03*
X128508090Y-151080500D03*
X127488090Y-149300500D03*
X137908090Y-144480500D03*
X135618090Y-144480500D03*
X126478090Y-144480500D03*
X124188090Y-144480500D03*
D29*
X122918090Y-150190500D03*
X139178090Y-150190500D03*
%TD*%
D30*
%TO.C,J1*%
X154855265Y-44340500D03*
D31*
X154855265Y-42340500D03*
X152855265Y-44340500D03*
X152855265Y-42340500D03*
X150855265Y-44340500D03*
X150855265Y-42340500D03*
X148855265Y-44340500D03*
X148855265Y-42340500D03*
X146855265Y-44340500D03*
X146855265Y-42340500D03*
%TD*%
D32*
%TO.C,C29*%
X126488333Y-112978000D03*
X125138333Y-112978000D03*
%TD*%
D33*
%TO.C,C15*%
X126190000Y-101508000D03*
X126190000Y-100158000D03*
%TD*%
%TO.C,C18*%
X122190000Y-101508000D03*
X122190000Y-100158000D03*
%TD*%
D15*
%TO.C,R1*%
X125892500Y-103620500D03*
X124392500Y-103620500D03*
%TD*%
%TO.C,R6*%
X117470000Y-144478000D03*
X118970000Y-144478000D03*
%TD*%
D33*
%TO.C,C16*%
X124190000Y-101508000D03*
X124190000Y-100158000D03*
%TD*%
D15*
%TO.C,R20*%
X108900265Y-81747643D03*
X110400265Y-81747643D03*
%TD*%
D33*
%TO.C,C3*%
X121940000Y-82088000D03*
X121940000Y-80738000D03*
%TD*%
%TO.C,C4*%
X128450000Y-82088000D03*
X128450000Y-80738000D03*
%TD*%
D15*
%TO.C,R33*%
X136942500Y-90300500D03*
X136942500Y-88800500D03*
%TD*%
%TO.C,R15*%
X108900265Y-73574786D03*
X110400265Y-73574786D03*
%TD*%
%TO.C,R14*%
X123780000Y-136778000D03*
X123780000Y-138278000D03*
%TD*%
D33*
%TO.C,C36*%
X134848750Y-90175500D03*
X134848750Y-88825500D03*
%TD*%
D32*
%TO.C,C31*%
X126488333Y-114880500D03*
X125138333Y-114880500D03*
%TD*%
%TO.C,L1*%
X126525833Y-111108000D03*
X125175833Y-111108000D03*
%TD*%
D15*
%TO.C,R26*%
X108900265Y-92592286D03*
X110400265Y-92592286D03*
%TD*%
D32*
%TO.C,C30*%
X126488333Y-116783000D03*
X125138333Y-116783000D03*
%TD*%
D15*
%TO.C,R34*%
X124392500Y-90300500D03*
X124392500Y-88800500D03*
%TD*%
%TO.C,R23*%
X108900265Y-84461929D03*
X110400265Y-84461929D03*
%TD*%
D33*
%TO.C,C34*%
X126511250Y-90175500D03*
X126511250Y-88825500D03*
%TD*%
%TO.C,C37*%
X155195265Y-63080500D03*
X155195265Y-64430500D03*
%TD*%
D15*
%TO.C,R4*%
X134425000Y-120228000D03*
X134425000Y-118728000D03*
%TD*%
%TO.C,R35*%
X136380000Y-57598000D03*
X136380000Y-56098000D03*
%TD*%
D33*
%TO.C,C17*%
X128190000Y-101508000D03*
X128190000Y-100158000D03*
%TD*%
D15*
%TO.C,R17*%
X108900265Y-76306572D03*
X110400265Y-76306572D03*
%TD*%
D32*
%TO.C,C25*%
X130250000Y-118263000D03*
X131600000Y-118263000D03*
%TD*%
D15*
%TO.C,R8*%
X117470000Y-140078000D03*
X118970000Y-140078000D03*
%TD*%
%TO.C,R13*%
X137250000Y-136688000D03*
X137250000Y-138188000D03*
%TD*%
%TO.C,R19*%
X108900265Y-79064786D03*
X110400265Y-79064786D03*
%TD*%
D34*
%TO.C,X3*%
X131930000Y-89538000D03*
X129430000Y-89538000D03*
%TD*%
D15*
%TO.C,R5*%
X117470000Y-142285500D03*
X118970000Y-142285500D03*
%TD*%
D33*
%TO.C,C5*%
X133440000Y-82088000D03*
X133440000Y-80738000D03*
%TD*%
D32*
%TO.C,C1*%
X116980000Y-106758000D03*
X115630000Y-106758000D03*
%TD*%
D15*
%TO.C,R7*%
X117470000Y-138018000D03*
X118970000Y-138018000D03*
%TD*%
D32*
%TO.C,C26*%
X130240000Y-116308000D03*
X131590000Y-116308000D03*
%TD*%
D15*
%TO.C,R24*%
X108900265Y-87176215D03*
X110400265Y-87176215D03*
%TD*%
%TO.C,R3*%
X117125000Y-89448000D03*
X115625000Y-89448000D03*
%TD*%
D32*
%TO.C,C14*%
X115735265Y-91280500D03*
X117085265Y-91280500D03*
%TD*%
D15*
%TO.C,R25*%
X108900265Y-89890500D03*
X110400265Y-89890500D03*
%TD*%
%TO.C,R40*%
X126627500Y-80132500D03*
X126627500Y-78632500D03*
%TD*%
D32*
%TO.C,C29*%
X126488333Y-112978000D03*
X125138333Y-112978000D03*
%TD*%
D33*
%TO.C,C15*%
X126190000Y-101508000D03*
X126190000Y-100158000D03*
%TD*%
%TO.C,C18*%
X122190000Y-101508000D03*
X122190000Y-100158000D03*
%TD*%
D15*
%TO.C,R1*%
X125892500Y-103620500D03*
X124392500Y-103620500D03*
%TD*%
%TO.C,R6*%
X117470000Y-144478000D03*
X118970000Y-144478000D03*
%TD*%
D33*
%TO.C,C16*%
X124190000Y-101508000D03*
X124190000Y-100158000D03*
%TD*%
D15*
%TO.C,R20*%
X108900265Y-81747643D03*
X110400265Y-81747643D03*
%TD*%
D33*
%TO.C,C3*%
X121940000Y-82088000D03*
X121940000Y-80738000D03*
%TD*%
%TO.C,C4*%
X128450000Y-82088000D03*
X128450000Y-80738000D03*
%TD*%
D15*
%TO.C,R33*%
X136942500Y-90300500D03*
X136942500Y-88800500D03*
%TD*%
%TO.C,R15*%
X108900265Y-73574786D03*
X110400265Y-73574786D03*
%TD*%
%TO.C,R14*%
X123780000Y-136778000D03*
X123780000Y-138278000D03*
%TD*%
D33*
%TO.C,C36*%
X134848750Y-90175500D03*
X134848750Y-88825500D03*
%TD*%
D32*
%TO.C,C31*%
X126488333Y-114880500D03*
X125138333Y-114880500D03*
%TD*%
%TO.C,L1*%
X126525833Y-111108000D03*
X125175833Y-111108000D03*
%TD*%
D15*
%TO.C,R26*%
X108900265Y-92592286D03*
X110400265Y-92592286D03*
%TD*%
D32*
%TO.C,C30*%
X126488333Y-116783000D03*
X125138333Y-116783000D03*
%TD*%
D15*
%TO.C,R34*%
X124392500Y-90300500D03*
X124392500Y-88800500D03*
%TD*%
%TO.C,R23*%
X108900265Y-84461929D03*
X110400265Y-84461929D03*
%TD*%
D33*
%TO.C,C34*%
X126511250Y-90175500D03*
X126511250Y-88825500D03*
%TD*%
%TO.C,C37*%
X155195265Y-63080500D03*
X155195265Y-64430500D03*
%TD*%
D15*
%TO.C,R4*%
X134425000Y-120228000D03*
X134425000Y-118728000D03*
%TD*%
%TO.C,R35*%
X136380000Y-57598000D03*
X136380000Y-56098000D03*
%TD*%
D33*
%TO.C,C17*%
X128190000Y-101508000D03*
X128190000Y-100158000D03*
%TD*%
D15*
%TO.C,R17*%
X108900265Y-76306572D03*
X110400265Y-76306572D03*
%TD*%
D32*
%TO.C,C25*%
X130250000Y-118263000D03*
X131600000Y-118263000D03*
%TD*%
D15*
%TO.C,R8*%
X117470000Y-140078000D03*
X118970000Y-140078000D03*
%TD*%
%TO.C,R13*%
X137250000Y-136688000D03*
X137250000Y-138188000D03*
%TD*%
%TO.C,R19*%
X108900265Y-79064786D03*
X110400265Y-79064786D03*
%TD*%
D34*
%TO.C,X3*%
X131930000Y-89538000D03*
X129430000Y-89538000D03*
%TD*%
D15*
%TO.C,R5*%
X117470000Y-142285500D03*
X118970000Y-142285500D03*
%TD*%
D33*
%TO.C,C5*%
X133440000Y-82088000D03*
X133440000Y-80738000D03*
%TD*%
D32*
%TO.C,C1*%
X116980000Y-106758000D03*
X115630000Y-106758000D03*
%TD*%
D15*
%TO.C,R7*%
X117470000Y-138018000D03*
X118970000Y-138018000D03*
%TD*%
D32*
%TO.C,C26*%
X130240000Y-116308000D03*
X131590000Y-116308000D03*
%TD*%
D15*
%TO.C,R24*%
X108900265Y-87176215D03*
X110400265Y-87176215D03*
%TD*%
%TO.C,R3*%
X117125000Y-89448000D03*
X115625000Y-89448000D03*
%TD*%
D32*
%TO.C,C14*%
X115735265Y-91280500D03*
X117085265Y-91280500D03*
%TD*%
D15*
%TO.C,R25*%
X108900265Y-89890500D03*
X110400265Y-89890500D03*
%TD*%
%TO.C,R36*%
X108900265Y-110190500D03*
X110400265Y-110190500D03*
%TD*%
%TO.C,R38*%
X123362500Y-80265500D03*
X121862500Y-80265500D03*
%TD*%
D32*
%TO.C,C33*%
X138600000Y-126968000D03*
X139950000Y-126968000D03*
%TD*%
D15*
%TO.C,R11*%
X128202500Y-124135500D03*
X129702500Y-124135500D03*
%TD*%
D16*
%TO.C,J9*%
X159840000Y-103693413D03*
D17*
X162380000Y-103693413D03*
X159840000Y-106233413D03*
X162380000Y-106233413D03*
X159840000Y-108773413D03*
X162380000Y-108773413D03*
X159840000Y-111313413D03*
X162380000Y-111313413D03*
X159840000Y-113853413D03*
X162380000Y-113853413D03*
%TD*%
D32*
%TO.C,C35*%
X104095265Y-46390500D03*
X102745265Y-46390500D03*
%TD*%
%TO.C,C6*%
X144342500Y-93498000D03*
X145692500Y-93498000D03*
%TD*%
D33*
%TO.C,C10*%
X122950000Y-110448000D03*
X122950000Y-111798000D03*
%TD*%
D15*
%TO.C,R27*%
X108900265Y-84474429D03*
X110400265Y-84474429D03*
%TD*%
D16*
%TO.C,J7*%
X159840000Y-56600000D03*
D17*
X162380000Y-56600000D03*
X159840000Y-59140000D03*
X162380000Y-59140000D03*
X159840000Y-61680000D03*
X162380000Y-61680000D03*
X159840000Y-64220000D03*
X162380000Y-64220000D03*
X159840000Y-66760000D03*
X162380000Y-66760000D03*
%TD*%
D33*
%TO.C,C19*%
X138940000Y-110448000D03*
X138940000Y-111798000D03*
%TD*%
D35*
%TO.C,X2*%
X135965000Y-117018000D03*
X137315000Y-117018000D03*
X137315000Y-116018000D03*
X135965000Y-116018000D03*
%TD*%
D36*
%TO.C,U3*%
X133005000Y-118318000D03*
X133005000Y-117818000D03*
X133005000Y-117318000D03*
X133005000Y-116818000D03*
X133005000Y-116318000D03*
X133005000Y-115818000D03*
D37*
X132305000Y-115118000D03*
X131805000Y-115118000D03*
X131305000Y-115118000D03*
X130805000Y-115118000D03*
X130305000Y-115118000D03*
X129805000Y-115118000D03*
D36*
X129105000Y-115818000D03*
X129105000Y-116318000D03*
X129105000Y-116818000D03*
X129105000Y-117318000D03*
X129105000Y-117818000D03*
X129105000Y-118318000D03*
D37*
X129805000Y-119018000D03*
X130305000Y-119018000D03*
X130805000Y-119018000D03*
X131305000Y-119018000D03*
X131805000Y-119018000D03*
X132305000Y-119018000D03*
D38*
X131055000Y-117068000D03*
%TD*%
D32*
%TO.C,C9*%
X117035265Y-100950500D03*
X115685265Y-100950500D03*
%TD*%
D33*
%TO.C,C12*%
X134440000Y-110448000D03*
X134440000Y-111798000D03*
%TD*%
D16*
%TO.C,J3*%
X102193100Y-137400119D03*
D17*
X99653100Y-137400119D03*
X102193100Y-134860119D03*
X99653100Y-134860119D03*
X102193100Y-132320119D03*
X99653100Y-132320119D03*
X102193100Y-129780119D03*
X99653100Y-129780119D03*
X102193100Y-127240119D03*
X99653100Y-127240119D03*
%TD*%
D15*
%TO.C,R12*%
X126340000Y-124148000D03*
X124840000Y-124148000D03*
%TD*%
D18*
%TO.C,REF\u002A\u002A*%
X161985335Y-150527591D03*
D19*
X161985335Y-150527591D03*
%TD*%
D32*
%TO.C,C2*%
X115705000Y-106768000D03*
X117055000Y-106768000D03*
%TD*%
D39*
%TO.C,U1*%
X119952000Y-87008000D03*
X119952000Y-87508000D03*
X119952000Y-88008000D03*
X119952000Y-88508000D03*
X119952000Y-89008000D03*
X119952000Y-89508000D03*
X119952000Y-90008000D03*
X119952000Y-90508000D03*
X119952000Y-91008000D03*
X119952000Y-91508000D03*
X119952000Y-92008000D03*
X119952000Y-92508000D03*
X119952000Y-93008000D03*
X119952000Y-93508000D03*
X119952000Y-94008000D03*
X119952000Y-94508000D03*
X119952000Y-95008000D03*
X119952000Y-95508000D03*
X119952000Y-96008000D03*
X119952000Y-96508000D03*
X119952000Y-97008000D03*
X119952000Y-97508000D03*
X119952000Y-98008000D03*
X119952000Y-98508000D03*
X119952000Y-99008000D03*
X119952000Y-99508000D03*
X119952000Y-100008000D03*
X119952000Y-100508000D03*
X119952000Y-101008000D03*
X119952000Y-101508000D03*
X119952000Y-102008000D03*
X119952000Y-102508000D03*
X119952000Y-103008000D03*
X119952000Y-103508000D03*
X119952000Y-104008000D03*
X119952000Y-104508000D03*
D40*
X121940000Y-106496000D03*
X122440000Y-106496000D03*
X122940000Y-106496000D03*
X123440000Y-106496000D03*
X123940000Y-106496000D03*
X124440000Y-106496000D03*
X124940000Y-106496000D03*
X125440000Y-106496000D03*
X125940000Y-106496000D03*
X126440000Y-106496000D03*
X126940000Y-106496000D03*
X127440000Y-106496000D03*
X127940000Y-106496000D03*
X128440000Y-106496000D03*
X128940000Y-106496000D03*
X129440000Y-106496000D03*
X129940000Y-106496000D03*
X130440000Y-106496000D03*
X130940000Y-106496000D03*
X131440000Y-106496000D03*
X131940000Y-106496000D03*
X132440000Y-106496000D03*
X132940000Y-106496000D03*
X133440000Y-106496000D03*
X133940000Y-106496000D03*
X134440000Y-106496000D03*
X134940000Y-106496000D03*
X135440000Y-106496000D03*
X135940000Y-106496000D03*
X136440000Y-106496000D03*
X136940000Y-106496000D03*
X137440000Y-106496000D03*
X137940000Y-106496000D03*
X138440000Y-106496000D03*
X138940000Y-106496000D03*
X139440000Y-106496000D03*
D39*
X141428000Y-104508000D03*
X141428000Y-104008000D03*
X141428000Y-103508000D03*
X141428000Y-103008000D03*
X141428000Y-102508000D03*
X141428000Y-102008000D03*
X141428000Y-101508000D03*
X141428000Y-101008000D03*
X141428000Y-100508000D03*
X141428000Y-100008000D03*
X141428000Y-99508000D03*
X141428000Y-99008000D03*
X141428000Y-98508000D03*
X141428000Y-98008000D03*
X141428000Y-97508000D03*
X141428000Y-97008000D03*
X141428000Y-96508000D03*
X141428000Y-96008000D03*
X141428000Y-95508000D03*
X141428000Y-95008000D03*
X141428000Y-94508000D03*
X141428000Y-94008000D03*
X141428000Y-93508000D03*
X141428000Y-93008000D03*
X141428000Y-92508000D03*
X141428000Y-92008000D03*
X141428000Y-91508000D03*
X141428000Y-91008000D03*
X141428000Y-90508000D03*
X141428000Y-90008000D03*
X141428000Y-89508000D03*
X141428000Y-89008000D03*
X141428000Y-88508000D03*
X141428000Y-88008000D03*
X141428000Y-87508000D03*
X141428000Y-87008000D03*
D40*
X139440000Y-85020000D03*
X138940000Y-85020000D03*
X138440000Y-85020000D03*
X137940000Y-85020000D03*
X137440000Y-85020000D03*
X136940000Y-85020000D03*
X136440000Y-85020000D03*
X135940000Y-85020000D03*
X135440000Y-85020000D03*
X134940000Y-85020000D03*
X134440000Y-85020000D03*
X133940000Y-85020000D03*
X133440000Y-85020000D03*
X132940000Y-85020000D03*
X132440000Y-85020000D03*
X131940000Y-85020000D03*
X131440000Y-85020000D03*
X130940000Y-85020000D03*
X130440000Y-85020000D03*
X129940000Y-85020000D03*
X129440000Y-85020000D03*
X128940000Y-85020000D03*
X128440000Y-85020000D03*
X127940000Y-85020000D03*
X127440000Y-85020000D03*
X126940000Y-85020000D03*
X126440000Y-85020000D03*
X125940000Y-85020000D03*
X125440000Y-85020000D03*
X124940000Y-85020000D03*
X124440000Y-85020000D03*
X123940000Y-85020000D03*
X123440000Y-85020000D03*
X122940000Y-85020000D03*
X122440000Y-85020000D03*
X121940000Y-85020000D03*
%TD*%
D33*
%TO.C,C40*%
X144855265Y-143300500D03*
X144855265Y-144650500D03*
%TD*%
D32*
%TO.C,C7*%
X144342500Y-85998000D03*
X145692500Y-85998000D03*
%TD*%
D41*
%TO.C,+5V1*%
X127880000Y-57578000D03*
%TD*%
D15*
%TO.C,R28*%
X108900265Y-87188715D03*
X110400265Y-87188715D03*
%TD*%
D16*
%TO.C,J6*%
X102193100Y-66760000D03*
D17*
X99653100Y-66760000D03*
X102193100Y-64220000D03*
X99653100Y-64220000D03*
X102193100Y-61680000D03*
X99653100Y-61680000D03*
X102193100Y-59140000D03*
X99653100Y-59140000D03*
X102193100Y-56600000D03*
X99653100Y-56600000D03*
%TD*%
D16*
%TO.C,J10*%
X159840000Y-127240119D03*
D17*
X162380000Y-127240119D03*
X159840000Y-129780119D03*
X162380000Y-129780119D03*
X159840000Y-132320119D03*
X162380000Y-132320119D03*
X159840000Y-134860119D03*
X162380000Y-134860119D03*
X159840000Y-137400119D03*
X162380000Y-137400119D03*
%TD*%
D32*
%TO.C,C21*%
X110300265Y-96950500D03*
X108950265Y-96950500D03*
%TD*%
%TO.C,C24*%
X130782500Y-60848000D03*
X132132500Y-60848000D03*
%TD*%
D20*
%TO.C,J12*%
X144232500Y-49970500D03*
D21*
X144232500Y-52510500D03*
X144232500Y-55050500D03*
%TD*%
D32*
%TO.C,C28*%
X135950000Y-118888000D03*
X137300000Y-118888000D03*
%TD*%
D22*
%TO.C,SW1*%
X147615265Y-146210500D03*
X154115265Y-146210500D03*
X147615265Y-150710500D03*
X154115265Y-150710500D03*
%TD*%
D42*
%TO.C,D1*%
X130290000Y-57498000D03*
X133390000Y-57498000D03*
%TD*%
D15*
%TO.C,R31*%
X118240000Y-49108000D03*
X119740000Y-49108000D03*
%TD*%
%TO.C,R16*%
X108900265Y-73617286D03*
X110400265Y-73617286D03*
%TD*%
D43*
%TO.C,U2*%
X128270000Y-63318000D03*
X128270000Y-65618000D03*
X128270000Y-67918000D03*
D44*
X134570000Y-65618000D03*
%TD*%
D35*
%TO.C,X1*%
X110315265Y-98750500D03*
X108965265Y-98750500D03*
X108965265Y-99750500D03*
X110315265Y-99750500D03*
%TD*%
D15*
%TO.C,R30*%
X108900265Y-92617286D03*
X110400265Y-92617286D03*
%TD*%
D18*
%TO.C,REF\u002A\u002A*%
X99985335Y-43527664D03*
D19*
X99985335Y-43527664D03*
%TD*%
D45*
%TO.C,D3*%
X111805000Y-47118000D03*
X113555000Y-47118000D03*
%TD*%
D18*
%TO.C,REF\u002A\u002A*%
X99985335Y-150527591D03*
D19*
X99985335Y-150527591D03*
%TD*%
D15*
%TO.C,R32*%
X111927500Y-49108000D03*
X113427500Y-49108000D03*
%TD*%
%TO.C,R37*%
X108900265Y-114185500D03*
X110400265Y-114185500D03*
%TD*%
D16*
%TO.C,J5*%
X102193100Y-90306706D03*
D17*
X99653100Y-90306706D03*
X102193100Y-87766706D03*
X99653100Y-87766706D03*
X102193100Y-85226706D03*
X99653100Y-85226706D03*
X102193100Y-82686706D03*
X99653100Y-82686706D03*
X102193100Y-80146706D03*
X99653100Y-80146706D03*
%TD*%
D41*
%TO.C,+3.3V1*%
X130780000Y-74338000D03*
%TD*%
D23*
%TO.C,J2*%
X129798590Y-48425500D03*
D24*
X132298590Y-48425500D03*
X132298590Y-46425500D03*
X129798590Y-46425500D03*
D25*
X125028590Y-43715500D03*
X137068590Y-43715500D03*
%TD*%
D32*
%TO.C,C22*%
X110300265Y-101550500D03*
X108950265Y-101550500D03*
%TD*%
D16*
%TO.C,J8*%
X159840000Y-80146706D03*
D17*
X162380000Y-80146706D03*
X159840000Y-82686706D03*
X162380000Y-82686706D03*
X159840000Y-85226706D03*
X162380000Y-85226706D03*
X159840000Y-87766706D03*
X162380000Y-87766706D03*
X159840000Y-90306706D03*
X162380000Y-90306706D03*
%TD*%
D32*
%TO.C,C32*%
X122840000Y-126868000D03*
X121490000Y-126868000D03*
%TD*%
D18*
%TO.C,REF\u002A\u002A*%
X161985335Y-43527664D03*
D19*
X161985335Y-43527664D03*
%TD*%
D32*
%TO.C,C8*%
X116980000Y-102794667D03*
X115630000Y-102794667D03*
%TD*%
D15*
%TO.C,R10*%
X133065000Y-124148000D03*
X131565000Y-124148000D03*
%TD*%
D32*
%TO.C,C23*%
X132057500Y-70388000D03*
X130707500Y-70388000D03*
%TD*%
D15*
%TO.C,R18*%
X108900265Y-76331572D03*
X110400265Y-76331572D03*
%TD*%
D32*
%TO.C,C38*%
X109025265Y-112175500D03*
X110375265Y-112175500D03*
%TD*%
D16*
%TO.C,J4*%
X102193100Y-113853413D03*
D17*
X99653100Y-113853413D03*
X102193100Y-111313413D03*
X99653100Y-111313413D03*
X102193100Y-108773413D03*
X99653100Y-108773413D03*
X102193100Y-106233413D03*
X99653100Y-106233413D03*
X102193100Y-103693413D03*
X99653100Y-103693413D03*
%TD*%
D45*
%TO.C,D2*%
X118200000Y-47118000D03*
X119950000Y-47118000D03*
%TD*%
D46*
%TO.C,U4*%
X135080000Y-126752000D03*
X133810000Y-126752000D03*
X132540000Y-126752000D03*
X131270000Y-126752000D03*
X130000000Y-126752000D03*
X128730000Y-126752000D03*
X127460000Y-126752000D03*
X126190000Y-126752000D03*
X126190000Y-135508000D03*
X127460000Y-135508000D03*
X128730000Y-135508000D03*
X130000000Y-135508000D03*
X131270000Y-135508000D03*
X132540000Y-135508000D03*
X133810000Y-135508000D03*
X135080000Y-135508000D03*
%TD*%
D15*
%TO.C,R22*%
X108900265Y-81760143D03*
X110400265Y-81760143D03*
%TD*%
D33*
%TO.C,C13*%
X140920000Y-110440500D03*
X140920000Y-111790500D03*
%TD*%
D26*
%TO.C,J11*%
X124698090Y-153620500D03*
X137398090Y-153620500D03*
D27*
X134598090Y-151080500D03*
D28*
X133578090Y-149300500D03*
X132568090Y-151080500D03*
X131548090Y-149300500D03*
X130538090Y-151080500D03*
X129518090Y-149300500D03*
X128508090Y-151080500D03*
X127488090Y-149300500D03*
X137908090Y-144480500D03*
X135618090Y-144480500D03*
X126478090Y-144480500D03*
X124188090Y-144480500D03*
D29*
X122918090Y-150190500D03*
X139178090Y-150190500D03*
%TD*%
D15*
%TO.C,R29*%
X108900265Y-89903000D03*
X110400265Y-89903000D03*
%TD*%
D33*
%TO.C,C11*%
X129460000Y-109940500D03*
X129460000Y-111290500D03*
%TD*%
D15*
%TO.C,R9*%
X134952500Y-124123000D03*
X136452500Y-124123000D03*
%TD*%
D30*
%TO.C,J1*%
X154855265Y-44340500D03*
D31*
X154855265Y-42340500D03*
X152855265Y-44340500D03*
X152855265Y-42340500D03*
X150855265Y-44340500D03*
X150855265Y-42340500D03*
X148855265Y-44340500D03*
X148855265Y-42340500D03*
X146855265Y-44340500D03*
X146855265Y-42340500D03*
%TD*%
D15*
%TO.C,R39*%
X123362500Y-78325500D03*
X121862500Y-78325500D03*
%TD*%
%TO.C,R2*%
X115580000Y-104793833D03*
X117080000Y-104793833D03*
%TD*%
D32*
%TO.C,C27*%
X135977500Y-114148000D03*
X137327500Y-114148000D03*
%TD*%
%TO.C,C20*%
X144342500Y-88038000D03*
X145692500Y-88038000D03*
%TD*%
D15*
%TO.C,R21*%
X108900265Y-79045857D03*
X110400265Y-79045857D03*
%TD*%
D32*
%TO.C,C39*%
X109025265Y-116170500D03*
X110375265Y-116170500D03*
%TD*%
D15*
%TO.C,R36*%
X108900265Y-110190500D03*
X110400265Y-110190500D03*
%TD*%
%TO.C,R38*%
X123362500Y-80265500D03*
X121862500Y-80265500D03*
%TD*%
D32*
%TO.C,C33*%
X138600000Y-126968000D03*
X139950000Y-126968000D03*
%TD*%
D15*
%TO.C,R11*%
X128202500Y-124135500D03*
X129702500Y-124135500D03*
%TD*%
D32*
%TO.C,C35*%
X104095265Y-46390500D03*
X102745265Y-46390500D03*
%TD*%
%TO.C,C6*%
X144342500Y-93498000D03*
X145692500Y-93498000D03*
%TD*%
D33*
%TO.C,C10*%
X122950000Y-110448000D03*
X122950000Y-111798000D03*
%TD*%
D15*
%TO.C,R27*%
X108900265Y-84474429D03*
X110400265Y-84474429D03*
%TD*%
D33*
%TO.C,C19*%
X138940000Y-110448000D03*
X138940000Y-111798000D03*
%TD*%
D35*
%TO.C,X2*%
X135965000Y-117018000D03*
X137315000Y-117018000D03*
X137315000Y-116018000D03*
X135965000Y-116018000D03*
%TD*%
D36*
%TO.C,U3*%
X133005000Y-118318000D03*
X133005000Y-117818000D03*
X133005000Y-117318000D03*
X133005000Y-116818000D03*
X133005000Y-116318000D03*
X133005000Y-115818000D03*
D37*
X132305000Y-115118000D03*
X131805000Y-115118000D03*
X131305000Y-115118000D03*
X130805000Y-115118000D03*
X130305000Y-115118000D03*
X129805000Y-115118000D03*
D36*
X129105000Y-115818000D03*
X129105000Y-116318000D03*
X129105000Y-116818000D03*
X129105000Y-117318000D03*
X129105000Y-117818000D03*
X129105000Y-118318000D03*
D37*
X129805000Y-119018000D03*
X130305000Y-119018000D03*
X130805000Y-119018000D03*
X131305000Y-119018000D03*
X131805000Y-119018000D03*
X132305000Y-119018000D03*
D38*
X131055000Y-117068000D03*
%TD*%
D32*
%TO.C,C9*%
X117035265Y-100950500D03*
X115685265Y-100950500D03*
%TD*%
D33*
%TO.C,C12*%
X134440000Y-110448000D03*
X134440000Y-111798000D03*
%TD*%
D15*
%TO.C,R12*%
X126340000Y-124148000D03*
X124840000Y-124148000D03*
%TD*%
D32*
%TO.C,C2*%
X115705000Y-106768000D03*
X117055000Y-106768000D03*
%TD*%
D39*
%TO.C,U1*%
X119952000Y-87008000D03*
X119952000Y-87508000D03*
X119952000Y-88008000D03*
X119952000Y-88508000D03*
X119952000Y-89008000D03*
X119952000Y-89508000D03*
X119952000Y-90008000D03*
X119952000Y-90508000D03*
X119952000Y-91008000D03*
X119952000Y-91508000D03*
X119952000Y-92008000D03*
X119952000Y-92508000D03*
X119952000Y-93008000D03*
X119952000Y-93508000D03*
X119952000Y-94008000D03*
X119952000Y-94508000D03*
X119952000Y-95008000D03*
X119952000Y-95508000D03*
X119952000Y-96008000D03*
X119952000Y-96508000D03*
X119952000Y-97008000D03*
X119952000Y-97508000D03*
X119952000Y-98008000D03*
X119952000Y-98508000D03*
X119952000Y-99008000D03*
X119952000Y-99508000D03*
X119952000Y-100008000D03*
X119952000Y-100508000D03*
X119952000Y-101008000D03*
X119952000Y-101508000D03*
X119952000Y-102008000D03*
X119952000Y-102508000D03*
X119952000Y-103008000D03*
X119952000Y-103508000D03*
X119952000Y-104008000D03*
X119952000Y-104508000D03*
D40*
X121940000Y-106496000D03*
X122440000Y-106496000D03*
X122940000Y-106496000D03*
X123440000Y-106496000D03*
X123940000Y-106496000D03*
X124440000Y-106496000D03*
X124940000Y-106496000D03*
X125440000Y-106496000D03*
X125940000Y-106496000D03*
X126440000Y-106496000D03*
X126940000Y-106496000D03*
X127440000Y-106496000D03*
X127940000Y-106496000D03*
X128440000Y-106496000D03*
X128940000Y-106496000D03*
X129440000Y-106496000D03*
X129940000Y-106496000D03*
X130440000Y-106496000D03*
X130940000Y-106496000D03*
X131440000Y-106496000D03*
X131940000Y-106496000D03*
X132440000Y-106496000D03*
X132940000Y-106496000D03*
X133440000Y-106496000D03*
X133940000Y-106496000D03*
X134440000Y-106496000D03*
X134940000Y-106496000D03*
X135440000Y-106496000D03*
X135940000Y-106496000D03*
X136440000Y-106496000D03*
X136940000Y-106496000D03*
X137440000Y-106496000D03*
X137940000Y-106496000D03*
X138440000Y-106496000D03*
X138940000Y-106496000D03*
X139440000Y-106496000D03*
D39*
X141428000Y-104508000D03*
X141428000Y-104008000D03*
X141428000Y-103508000D03*
X141428000Y-103008000D03*
X141428000Y-102508000D03*
X141428000Y-102008000D03*
X141428000Y-101508000D03*
X141428000Y-101008000D03*
X141428000Y-100508000D03*
X141428000Y-100008000D03*
X141428000Y-99508000D03*
X141428000Y-99008000D03*
X141428000Y-98508000D03*
X141428000Y-98008000D03*
X141428000Y-97508000D03*
X141428000Y-97008000D03*
X141428000Y-96508000D03*
X141428000Y-96008000D03*
X141428000Y-95508000D03*
X141428000Y-95008000D03*
X141428000Y-94508000D03*
X141428000Y-94008000D03*
X141428000Y-93508000D03*
X141428000Y-93008000D03*
X141428000Y-92508000D03*
X141428000Y-92008000D03*
X141428000Y-91508000D03*
X141428000Y-91008000D03*
X141428000Y-90508000D03*
X141428000Y-90008000D03*
X141428000Y-89508000D03*
X141428000Y-89008000D03*
X141428000Y-88508000D03*
X141428000Y-88008000D03*
X141428000Y-87508000D03*
X141428000Y-87008000D03*
D40*
X139440000Y-85020000D03*
X138940000Y-85020000D03*
X138440000Y-85020000D03*
X137940000Y-85020000D03*
X137440000Y-85020000D03*
X136940000Y-85020000D03*
X136440000Y-85020000D03*
X135940000Y-85020000D03*
X135440000Y-85020000D03*
X134940000Y-85020000D03*
X134440000Y-85020000D03*
X133940000Y-85020000D03*
X133440000Y-85020000D03*
X132940000Y-85020000D03*
X132440000Y-85020000D03*
X131940000Y-85020000D03*
X131440000Y-85020000D03*
X130940000Y-85020000D03*
X130440000Y-85020000D03*
X129940000Y-85020000D03*
X129440000Y-85020000D03*
X128940000Y-85020000D03*
X128440000Y-85020000D03*
X127940000Y-85020000D03*
X127440000Y-85020000D03*
X126940000Y-85020000D03*
X126440000Y-85020000D03*
X125940000Y-85020000D03*
X125440000Y-85020000D03*
X124940000Y-85020000D03*
X124440000Y-85020000D03*
X123940000Y-85020000D03*
X123440000Y-85020000D03*
X122940000Y-85020000D03*
X122440000Y-85020000D03*
X121940000Y-85020000D03*
%TD*%
D33*
%TO.C,C40*%
X144855265Y-143300500D03*
X144855265Y-144650500D03*
%TD*%
D32*
%TO.C,C7*%
X144342500Y-85998000D03*
X145692500Y-85998000D03*
%TD*%
D15*
%TO.C,R28*%
X108900265Y-87188715D03*
X110400265Y-87188715D03*
%TD*%
D32*
%TO.C,C21*%
X110300265Y-96950500D03*
X108950265Y-96950500D03*
%TD*%
%TO.C,C24*%
X130782500Y-60848000D03*
X132132500Y-60848000D03*
%TD*%
%TO.C,C28*%
X135950000Y-118888000D03*
X137300000Y-118888000D03*
%TD*%
D42*
%TO.C,D1*%
X130290000Y-57498000D03*
X133390000Y-57498000D03*
%TD*%
D15*
%TO.C,R31*%
X118240000Y-49108000D03*
X119740000Y-49108000D03*
%TD*%
%TO.C,R16*%
X108900265Y-73617286D03*
X110400265Y-73617286D03*
%TD*%
D43*
%TO.C,U2*%
X128270000Y-63318000D03*
X128270000Y-65618000D03*
X128270000Y-67918000D03*
D44*
X134570000Y-65618000D03*
%TD*%
D35*
%TO.C,X1*%
X110315265Y-98750500D03*
X108965265Y-98750500D03*
X108965265Y-99750500D03*
X110315265Y-99750500D03*
%TD*%
D15*
%TO.C,R30*%
X108900265Y-92617286D03*
X110400265Y-92617286D03*
%TD*%
D45*
%TO.C,D3*%
X111805000Y-47118000D03*
X113555000Y-47118000D03*
%TD*%
D15*
%TO.C,R32*%
X111927500Y-49108000D03*
X113427500Y-49108000D03*
%TD*%
%TO.C,R37*%
X108900265Y-114185500D03*
X110400265Y-114185500D03*
%TD*%
D32*
%TO.C,C22*%
X110300265Y-101550500D03*
X108950265Y-101550500D03*
%TD*%
%TO.C,C32*%
X122840000Y-126868000D03*
X121490000Y-126868000D03*
%TD*%
%TO.C,C8*%
X116980000Y-102794667D03*
X115630000Y-102794667D03*
%TD*%
D15*
%TO.C,R10*%
X133065000Y-124148000D03*
X131565000Y-124148000D03*
%TD*%
D32*
%TO.C,C23*%
X132057500Y-70388000D03*
X130707500Y-70388000D03*
%TD*%
D15*
%TO.C,R18*%
X108900265Y-76331572D03*
X110400265Y-76331572D03*
%TD*%
D32*
%TO.C,C38*%
X109025265Y-112175500D03*
X110375265Y-112175500D03*
%TD*%
D45*
%TO.C,D2*%
X118200000Y-47118000D03*
X119950000Y-47118000D03*
%TD*%
D46*
%TO.C,U4*%
X135080000Y-126752000D03*
X133810000Y-126752000D03*
X132540000Y-126752000D03*
X131270000Y-126752000D03*
X130000000Y-126752000D03*
X128730000Y-126752000D03*
X127460000Y-126752000D03*
X126190000Y-126752000D03*
X126190000Y-135508000D03*
X127460000Y-135508000D03*
X128730000Y-135508000D03*
X130000000Y-135508000D03*
X131270000Y-135508000D03*
X132540000Y-135508000D03*
X133810000Y-135508000D03*
X135080000Y-135508000D03*
%TD*%
D15*
%TO.C,R22*%
X108900265Y-81760143D03*
X110400265Y-81760143D03*
%TD*%
D33*
%TO.C,C13*%
X140920000Y-110440500D03*
X140920000Y-111790500D03*
%TD*%
D15*
%TO.C,R29*%
X108900265Y-89903000D03*
X110400265Y-89903000D03*
%TD*%
D33*
%TO.C,C11*%
X129460000Y-109940500D03*
X129460000Y-111290500D03*
%TD*%
D15*
%TO.C,R9*%
X134952500Y-124123000D03*
X136452500Y-124123000D03*
%TD*%
%TO.C,R39*%
X123362500Y-78325500D03*
X121862500Y-78325500D03*
%TD*%
%TO.C,R2*%
X115580000Y-104793833D03*
X117080000Y-104793833D03*
%TD*%
D32*
%TO.C,C27*%
X135977500Y-114148000D03*
X137327500Y-114148000D03*
%TD*%
%TO.C,C20*%
X144342500Y-88038000D03*
X145692500Y-88038000D03*
%TD*%
D15*
%TO.C,R21*%
X108900265Y-79045857D03*
X110400265Y-79045857D03*
%TD*%
D32*
%TO.C,C39*%
X109025265Y-116170500D03*
X110375265Y-116170500D03*
%TD*%
D47*
X167985335Y-147757663D02*
X167985335Y-46100239D01*
X102755264Y-156527591D02*
X159415264Y-156527591D01*
X93985335Y-46297664D02*
X93985335Y-147957664D01*
X159215335Y-37527664D02*
G75*
G02*
X167985323Y-46097664I35165J-8736336D01*
G01*
X93985335Y-46297664D02*
G75*
G02*
X102555335Y-37527669I8736375J35134D01*
G01*
X102755264Y-156527592D02*
G75*
G02*
X93985222Y-147957593I-35164J8736392D01*
G01*
X167985335Y-147757663D02*
G75*
G02*
X159415265Y-156527722I-8736435J-35137D01*
G01*
X159215335Y-37527664D02*
X102555335Y-37527664D01*
M02*
